M48
; DRILL file {KiCad 9.0.6} date 2025-12-17T23:03:54-0800
; FORMAT={-:-/ absolute / metric / decimal}
; #@! TF.CreationDate,2025-12-17T23:03:54-08:00
; #@! TF.GenerationSoftware,Kicad,Pcbnew,9.0.6
; #@! TF.FileFunction,Plated,1,4,PTH
FMAT,2
METRIC
; #@! TA.AperFunction,Plated,PTH,ViaDrill
T1C0.330
; #@! TA.AperFunction,Plated,PTH,ComponentDrill
T2C0.650
; #@! TA.AperFunction,Plated,PTH,ComponentDrill
T3C0.700
; #@! TA.AperFunction,Plated,PTH,ComponentDrill
T4C0.800
; #@! TA.AperFunction,Plated,PTH,ComponentDrill
T5C0.900
; #@! TA.AperFunction,Plated,PTH,ComponentDrill
T6C1.000
; #@! TA.AperFunction,Plated,PTH,ComponentDrill
T7C1.100
%
G90
G05
T1
X126.5Y-96.0
X127.5Y-89.5
X127.5Y-114.0
X131.0Y-114.0
X131.5Y-98.5
X134.0Y-86.5
X134.0Y-90.5
X134.5Y-95.0
X135.5Y-96.0
X136.0Y-107.0
X137.0Y-94.0
X138.0Y-91.0
X138.5Y-84.5
X141.0Y-86.0
X142.0Y-82.5
X142.0Y-85.5
X143.0Y-91.0
X145.5Y-78.5
X145.5Y-81.5
X146.0Y-80.0
X147.0Y-94.0
X149.0Y-97.0
X150.5Y-89.0
X151.0Y-95.0
X151.0Y-103.5
X151.0Y-108.0
X153.0Y-93.5
X154.5Y-78.0
X154.5Y-87.0
X154.5Y-108.5
X155.0Y-106.0
X157.5Y-99.0
X158.0Y-86.0
X158.0Y-103.5
X158.5Y-106.0
X158.5Y-110.5
X161.0Y-104.5
X163.5Y-91.0
X164.5Y-101.0
X165.0Y-89.0
X165.5Y-99.0
X165.5Y-103.5
X165.5Y-111.0
X166.0Y-106.0
X166.0Y-109.0
X166.5Y-91.5
X167.119Y-89.0
X172.5Y-89.5
X175.0Y-92.5
X175.0Y-105.0
X176.5Y-97.0
X176.5Y-114.5
X177.0Y-105.5
X177.5Y-83.5
X178.0Y-92.5
X182.0Y-93.5
X185.0Y-107.0
X185.0Y-113.5
X185.5Y-98.0
T2
X129.275Y-76.0
X130.545Y-76.0
X131.815Y-76.0
X188.405Y-96.15
X188.405Y-97.42
X188.405Y-98.69
T3
X128.235Y-84.5
X128.235Y-88.5
X128.235Y-92.5
X128.315Y-80.5
X128.315Y-96.5
X133.315Y-84.5
X133.315Y-88.5
X133.315Y-92.5
X133.395Y-80.5
X133.395Y-96.5
X137.775Y-96.185
X137.775Y-101.265
X141.775Y-96.225
X141.775Y-101.305
X144.775Y-108.96
X144.775Y-114.04
X148.275Y-81.46
X148.275Y-86.54
X148.275Y-89.0
X148.275Y-94.08
X148.96Y-108.84
X148.96Y-113.92
X152.275Y-81.5
X152.275Y-86.58
X152.96Y-100.57
X152.96Y-105.65
X152.96Y-108.65
X152.96Y-113.73
X156.275Y-81.42
X156.275Y-86.5
X160.275Y-81.46
X160.275Y-86.54
X164.275Y-81.5
X164.275Y-86.58
X166.155Y-95.42
X166.155Y-100.5
X167.96Y-108.61
X167.96Y-113.69
X170.155Y-95.38
X170.155Y-100.46
T4
X133.775Y-111.5
X133.775Y-114.0
X135.985Y-93.0
X136.235Y-79.0
X136.235Y-81.54
X136.235Y-84.08
X136.235Y-86.62
X138.485Y-93.0
X139.275Y-107.46
X139.275Y-110.0
X139.275Y-112.54
X141.485Y-93.0
X143.855Y-79.0
X143.855Y-81.54
X143.855Y-84.08
X143.855Y-86.62
X143.985Y-93.0
X147.275Y-97.295
X147.275Y-99.795
X147.275Y-103.295
X147.275Y-105.795
X148.275Y-76.75
X148.275Y-79.25
X152.775Y-76.75
X152.775Y-79.25
X153.465Y-89.695
X153.465Y-97.315
X156.005Y-89.695
X156.005Y-97.315
X156.155Y-103.38
X156.155Y-105.92
X156.155Y-108.46
X156.155Y-111.0
X157.275Y-76.75
X157.275Y-79.25
X158.545Y-89.695
X158.545Y-97.315
X160.775Y-77.0
X161.085Y-89.695
X161.085Y-97.315
X163.275Y-77.0
X163.775Y-103.38
X163.775Y-105.92
X163.775Y-108.46
X163.775Y-111.0
X167.96Y-103.4
X167.96Y-105.9
X172.655Y-95.42
X172.655Y-97.96
X172.655Y-100.5
X172.655Y-103.04
X172.655Y-105.58
X172.655Y-108.12
X172.655Y-110.66
X172.655Y-113.2
X180.275Y-95.42
X180.275Y-97.96
X180.275Y-100.5
X180.275Y-103.04
X180.275Y-105.58
X180.275Y-108.12
X180.275Y-110.66
X180.275Y-113.2
X182.905Y-95.42
X182.905Y-99.92
X185.405Y-95.42
X185.405Y-99.92
X194.0Y-93.5
X194.0Y-95.5
X194.0Y-97.5
X194.0Y-99.5
T5
X133.775Y-99.88
X133.775Y-107.5
T6
X172.0Y-87.725
X174.5Y-87.725
X177.0Y-87.725
X187.5Y-87.725
X190.0Y-87.725
X192.5Y-87.725
T7
X128.775Y-100.11
X128.775Y-110.27
T7
X169.7Y-80.575G85X169.7Y-79.875
G05
X179.3Y-80.575G85X179.3Y-79.875
G05
X185.2Y-80.575G85X185.2Y-79.875
G05
X194.8Y-80.575G85X194.8Y-79.875
G05
M30
