G04 #@! TF.GenerationSoftware,KiCad,Pcbnew,9.0.6*
G04 #@! TF.CreationDate,2025-12-17T23:00:56-08:00*
G04 #@! TF.ProjectId,LichKingChorus,4c696368-4b69-46e6-9743-686f7275732e,rev?*
G04 #@! TF.SameCoordinates,Original*
G04 #@! TF.FileFunction,Copper,L1,Top*
G04 #@! TF.FilePolarity,Positive*
%FSLAX46Y46*%
G04 Gerber Fmt 4.6, Leading zero omitted, Abs format (unit mm)*
G04 Created by KiCad (PCBNEW 9.0.6) date 2025-12-17 23:00:56*
%MOMM*%
%LPD*%
G01*
G04 APERTURE LIST*
G04 Aperture macros list*
%AMRoundRect*
0 Rectangle with rounded corners*
0 $1 Rounding radius*
0 $2 $3 $4 $5 $6 $7 $8 $9 X,Y pos of 4 corners*
0 Add a 4 corners polygon primitive as box body*
4,1,4,$2,$3,$4,$5,$6,$7,$8,$9,$2,$3,0*
0 Add four circle primitives for the rounded corners*
1,1,$1+$1,$2,$3*
1,1,$1+$1,$4,$5*
1,1,$1+$1,$6,$7*
1,1,$1+$1,$8,$9*
0 Add four rect primitives between the rounded corners*
20,1,$1+$1,$2,$3,$4,$5,0*
20,1,$1+$1,$4,$5,$6,$7,0*
20,1,$1+$1,$6,$7,$8,$9,0*
20,1,$1+$1,$8,$9,$2,$3,0*%
G04 Aperture macros list end*
G04 #@! TA.AperFunction,ComponentPad*
%ADD10R,1.350000X1.350000*%
G04 #@! TD*
G04 #@! TA.AperFunction,ComponentPad*
%ADD11C,1.350000*%
G04 #@! TD*
G04 #@! TA.AperFunction,ComponentPad*
%ADD12C,1.600000*%
G04 #@! TD*
G04 #@! TA.AperFunction,ComponentPad*
%ADD13RoundRect,0.250000X-0.550000X-0.550000X0.550000X-0.550000X0.550000X0.550000X-0.550000X0.550000X0*%
G04 #@! TD*
G04 #@! TA.AperFunction,ComponentPad*
%ADD14C,1.800000*%
G04 #@! TD*
G04 #@! TA.AperFunction,ComponentPad*
%ADD15R,1.800000X1.800000*%
G04 #@! TD*
G04 #@! TA.AperFunction,ComponentPad*
%ADD16O,2.720000X3.240000*%
G04 #@! TD*
G04 #@! TA.AperFunction,ComponentPad*
%ADD17C,1.000000*%
G04 #@! TD*
G04 #@! TA.AperFunction,ComponentPad*
%ADD18R,1.000000X1.000000*%
G04 #@! TD*
G04 #@! TA.AperFunction,ComponentPad*
%ADD19C,1.400000*%
G04 #@! TD*
G04 #@! TA.AperFunction,ComponentPad*
%ADD20RoundRect,0.250000X-0.550000X0.550000X-0.550000X-0.550000X0.550000X-0.550000X0.550000X0.550000X0*%
G04 #@! TD*
G04 #@! TA.AperFunction,ComponentPad*
%ADD21C,1.440000*%
G04 #@! TD*
G04 #@! TA.AperFunction,ComponentPad*
%ADD22RoundRect,0.250000X0.550000X0.550000X-0.550000X0.550000X-0.550000X-0.550000X0.550000X-0.550000X0*%
G04 #@! TD*
G04 #@! TA.AperFunction,ComponentPad*
%ADD23RoundRect,0.249999X-0.850001X0.850001X-0.850001X-0.850001X0.850001X-0.850001X0.850001X0.850001X0*%
G04 #@! TD*
G04 #@! TA.AperFunction,ComponentPad*
%ADD24C,2.200000*%
G04 #@! TD*
G04 #@! TA.AperFunction,ComponentPad*
%ADD25RoundRect,0.250000X-0.650000X0.650000X-0.650000X-0.650000X0.650000X-0.650000X0.650000X0.650000X0*%
G04 #@! TD*
G04 #@! TA.AperFunction,ComponentPad*
%ADD26RoundRect,0.250000X0.550000X-0.550000X0.550000X0.550000X-0.550000X0.550000X-0.550000X-0.550000X0*%
G04 #@! TD*
G04 #@! TA.AperFunction,ViaPad*
%ADD27C,0.685800*%
G04 #@! TD*
G04 #@! TA.AperFunction,Conductor*
%ADD28C,0.127000*%
G04 #@! TD*
G04 #@! TA.AperFunction,Conductor*
%ADD29C,0.254000*%
G04 #@! TD*
G04 APERTURE END LIST*
D10*
X194000000Y-93500000D03*
D11*
X194000000Y-95500000D03*
X194000000Y-97500000D03*
X194000000Y-99500000D03*
D12*
X163275000Y-77000000D03*
D13*
X160775000Y-77000000D03*
D14*
X192500000Y-87725000D03*
X190000000Y-87725000D03*
D15*
X187500000Y-87725000D03*
D16*
X194800000Y-80225000D03*
X185200000Y-80225000D03*
D14*
X177000000Y-87725000D03*
X174500000Y-87725000D03*
D15*
X172000000Y-87725000D03*
D16*
X179300000Y-80225000D03*
X169700000Y-80225000D03*
D17*
X188405000Y-98690000D03*
X188405000Y-97420000D03*
D18*
X188405000Y-96150000D03*
X129275000Y-76000000D03*
D17*
X130545000Y-76000000D03*
X131815000Y-76000000D03*
D12*
X138485000Y-93000000D03*
X135985000Y-93000000D03*
D19*
X128235000Y-92500000D03*
X133315000Y-92500000D03*
D13*
X136235000Y-79000000D03*
D12*
X136235000Y-81540000D03*
X136235000Y-84080000D03*
X136235000Y-86620000D03*
X143855000Y-86620000D03*
X143855000Y-84080000D03*
X143855000Y-81540000D03*
X143855000Y-79000000D03*
D13*
X156155000Y-103380000D03*
D12*
X156155000Y-105920000D03*
X156155000Y-108460000D03*
X156155000Y-111000000D03*
X163775000Y-111000000D03*
X163775000Y-108460000D03*
X163775000Y-105920000D03*
X163775000Y-103380000D03*
D20*
X161085000Y-89695000D03*
D12*
X158545000Y-89695000D03*
X156005000Y-89695000D03*
X153465000Y-89695000D03*
X153465000Y-97315000D03*
X156005000Y-97315000D03*
X158545000Y-97315000D03*
X161085000Y-97315000D03*
D21*
X139275000Y-107460000D03*
X139275000Y-110000000D03*
X139275000Y-112540000D03*
D19*
X166155000Y-100500000D03*
X166155000Y-95420000D03*
X170155000Y-100460000D03*
X170155000Y-95380000D03*
X133395000Y-80500000D03*
X128315000Y-80500000D03*
X164275000Y-86580000D03*
X164275000Y-81500000D03*
X160275000Y-86540000D03*
X160275000Y-81460000D03*
X156275000Y-81420000D03*
X156275000Y-86500000D03*
X152275000Y-86580000D03*
X152275000Y-81500000D03*
X148275000Y-86540000D03*
X148275000Y-81460000D03*
X148275000Y-94080000D03*
X148275000Y-89000000D03*
X152960000Y-105650000D03*
X152960000Y-100570000D03*
X152960000Y-113730000D03*
X152960000Y-108650000D03*
X167960000Y-113690000D03*
X167960000Y-108610000D03*
X148960000Y-113920000D03*
X148960000Y-108840000D03*
X128235000Y-84500000D03*
X133315000Y-84500000D03*
X128235000Y-88500000D03*
X133315000Y-88500000D03*
X128315000Y-96500000D03*
X133395000Y-96500000D03*
X141775000Y-96225000D03*
X141775000Y-101305000D03*
X144775000Y-108960000D03*
X144775000Y-114040000D03*
X137775000Y-96185000D03*
X137775000Y-101265000D03*
D22*
X180275000Y-113200000D03*
D12*
X180275000Y-110660000D03*
X180275000Y-108120000D03*
X180275000Y-105580000D03*
X180275000Y-103040000D03*
X180275000Y-100500000D03*
X180275000Y-97960000D03*
X180275000Y-95420000D03*
X172655000Y-95420000D03*
X172655000Y-97960000D03*
X172655000Y-100500000D03*
X172655000Y-103040000D03*
X172655000Y-105580000D03*
X172655000Y-108120000D03*
X172655000Y-110660000D03*
X172655000Y-113200000D03*
D23*
X128775000Y-100110000D03*
D24*
X128775000Y-110270000D03*
D25*
X133775000Y-99880000D03*
D14*
X133775000Y-107500000D03*
D12*
X185405000Y-95420000D03*
X182905000Y-95420000D03*
X182905000Y-99920000D03*
X185405000Y-99920000D03*
X152775000Y-79250000D03*
X152775000Y-76750000D03*
X157275000Y-79250000D03*
X157275000Y-76750000D03*
X148275000Y-79250000D03*
X148275000Y-76750000D03*
X167960000Y-105900000D03*
X167960000Y-103400000D03*
X141485000Y-93000000D03*
X143985000Y-93000000D03*
D20*
X147275000Y-97294888D03*
D12*
X147275000Y-99794888D03*
D26*
X133775000Y-114000000D03*
D12*
X133775000Y-111500000D03*
D20*
X147275000Y-103294888D03*
D12*
X147275000Y-105794888D03*
D27*
X126500000Y-96000000D03*
X177500000Y-83500000D03*
X182000000Y-93500000D03*
X127500000Y-114000000D03*
X185000000Y-113500000D03*
X185000000Y-107000000D03*
X165000000Y-89000000D03*
X172500000Y-89500000D03*
X167119500Y-89000000D03*
X176500000Y-114500000D03*
X178000000Y-92500000D03*
X165500000Y-99000000D03*
X166500000Y-91500000D03*
X164500000Y-101000000D03*
X161000000Y-104500000D03*
X163500000Y-91000000D03*
X145500000Y-81500000D03*
X145500000Y-78500000D03*
X154500000Y-78000000D03*
X154500000Y-87000000D03*
X158000000Y-86000000D03*
X150500000Y-89000000D03*
X151000000Y-95000000D03*
X185500000Y-98000000D03*
X142000000Y-82500000D03*
X142000000Y-85500000D03*
X143000000Y-91000000D03*
X141000000Y-86000000D03*
X134000000Y-86500000D03*
X138500000Y-84500000D03*
X138000000Y-91000000D03*
X135500000Y-96000000D03*
X137000000Y-94000000D03*
X134000000Y-90500000D03*
X134500000Y-95000000D03*
X175000000Y-92500000D03*
X175000000Y-105000000D03*
X177000000Y-105500000D03*
X176500000Y-97000000D03*
X147000000Y-94000000D03*
X146000000Y-80000000D03*
X153000000Y-93500000D03*
X165500000Y-103500000D03*
X165500000Y-111000000D03*
X158000000Y-103500000D03*
X157500000Y-99000000D03*
X166000000Y-109000000D03*
X166000000Y-106000000D03*
X158500000Y-106000000D03*
X158500000Y-110500000D03*
X154500000Y-108500000D03*
X155000000Y-106000000D03*
X151000000Y-108000000D03*
X151000000Y-103500000D03*
X127500000Y-89500000D03*
X149000000Y-97000000D03*
X131500000Y-98500000D03*
X136000000Y-107000000D03*
X131000000Y-114000000D03*
D28*
X166275000Y-83500000D02*
X164275000Y-81500000D01*
X177500000Y-83500000D02*
X166275000Y-83500000D01*
X192000000Y-93500000D02*
X182000000Y-93500000D01*
X194000000Y-95500000D02*
X192000000Y-93500000D01*
X129000000Y-115500000D02*
X127500000Y-114000000D01*
X183000000Y-115500000D02*
X129000000Y-115500000D01*
X185000000Y-113500000D02*
X183000000Y-115500000D01*
X185000000Y-106000000D02*
X185000000Y-107000000D01*
X193500000Y-97500000D02*
X185000000Y-106000000D01*
X194000000Y-97500000D02*
X193500000Y-97500000D01*
D29*
X176500000Y-112000000D02*
X181500000Y-112000000D01*
X175300000Y-113200000D02*
X176500000Y-112000000D01*
X172655000Y-113200000D02*
X175300000Y-113200000D01*
X181500000Y-112000000D02*
X194000000Y-99500000D01*
D28*
X186225000Y-91500000D02*
X166500000Y-91500000D01*
X190000000Y-87725000D02*
X186225000Y-91500000D01*
X187725000Y-92500000D02*
X178000000Y-92500000D01*
X192500000Y-87725000D02*
X187725000Y-92500000D01*
X168500000Y-85500000D02*
X165000000Y-89000000D01*
X185275000Y-85500000D02*
X168500000Y-85500000D01*
X187500000Y-87725000D02*
X185275000Y-85500000D01*
X163559600Y-90940400D02*
X163500000Y-91000000D01*
X173784600Y-90940400D02*
X163559600Y-90940400D01*
X177000000Y-87725000D02*
X173784600Y-90940400D01*
X174275000Y-87725000D02*
X172500000Y-89500000D01*
X174500000Y-87725000D02*
X174275000Y-87725000D01*
X168394500Y-87725000D02*
X167119500Y-89000000D01*
X172000000Y-87725000D02*
X168394500Y-87725000D01*
X165400000Y-108460000D02*
X167960000Y-105900000D01*
X163775000Y-108460000D02*
X165400000Y-108460000D01*
X153884500Y-114654500D02*
X152960000Y-113730000D01*
X176345500Y-114654500D02*
X153884500Y-114654500D01*
X176500000Y-114500000D02*
X176345500Y-114654500D01*
X178000000Y-92275000D02*
X178000000Y-92500000D01*
X163930000Y-100570000D02*
X152960000Y-100570000D01*
X165500000Y-99000000D02*
X163930000Y-100570000D01*
X158535000Y-101000000D02*
X156155000Y-103380000D01*
X164500000Y-101000000D02*
X158535000Y-101000000D01*
X160000000Y-104500000D02*
X158500000Y-106000000D01*
X161000000Y-104500000D02*
X160000000Y-104500000D01*
X159275001Y-75500001D02*
X160775000Y-77000000D01*
X132314999Y-75500001D02*
X159275001Y-75500001D01*
X131815000Y-76000000D02*
X132314999Y-75500001D01*
X145500000Y-81500000D02*
X145460000Y-81540000D01*
X146185500Y-77814500D02*
X145500000Y-78500000D01*
X145460000Y-81540000D02*
X143855000Y-81540000D01*
X151710500Y-77814500D02*
X146185500Y-77814500D01*
X152775000Y-76750000D02*
X151710500Y-77814500D01*
X156195000Y-81500000D02*
X156275000Y-81420000D01*
X152275000Y-81500000D02*
X156195000Y-81500000D01*
X154500000Y-78000000D02*
X154025000Y-78000000D01*
X154964500Y-87464500D02*
X154500000Y-87000000D01*
X159350500Y-87464500D02*
X154964500Y-87464500D01*
X160275000Y-86540000D02*
X159350500Y-87464500D01*
X154025000Y-78000000D02*
X152775000Y-76750000D01*
X157500000Y-86500000D02*
X158000000Y-86000000D01*
X156275000Y-86500000D02*
X157500000Y-86500000D01*
X153855000Y-84080000D02*
X143855000Y-84080000D01*
X156275000Y-86500000D02*
X153855000Y-84080000D01*
X150500000Y-89000000D02*
X148275000Y-89000000D01*
X156230000Y-95000000D02*
X151000000Y-95000000D01*
X158545000Y-97315000D02*
X156230000Y-95000000D01*
X158545000Y-97315000D02*
X161085000Y-97315000D01*
X182905000Y-99920000D02*
X180855000Y-99920000D01*
X180855000Y-99920000D02*
X180275000Y-100500000D01*
X185500000Y-98500000D02*
X185500000Y-98000000D01*
X185690000Y-98690000D02*
X185500000Y-98500000D01*
X188405000Y-98690000D02*
X185690000Y-98690000D01*
X187175000Y-99920000D02*
X188405000Y-98690000D01*
X185405000Y-99920000D02*
X187175000Y-99920000D01*
X184905000Y-97420000D02*
X182905000Y-95420000D01*
X188405000Y-97420000D02*
X184905000Y-97420000D01*
X182815000Y-95420000D02*
X182905000Y-95420000D01*
X180275000Y-97960000D02*
X182815000Y-95420000D01*
X172615000Y-100460000D02*
X172655000Y-100500000D01*
X170155000Y-100460000D02*
X172615000Y-100460000D01*
X167895001Y-102240001D02*
X166155000Y-100500000D01*
X171855001Y-102240001D02*
X167895001Y-102240001D01*
X172655000Y-103040000D02*
X171855001Y-102240001D01*
X142000000Y-82500000D02*
X142895000Y-82500000D01*
X142735000Y-85500000D02*
X142000000Y-85500000D01*
X143855000Y-86620000D02*
X142735000Y-85500000D01*
X142895000Y-82500000D02*
X143855000Y-81540000D01*
X143985000Y-91985000D02*
X143985000Y-93000000D01*
X143000000Y-91000000D02*
X143985000Y-91985000D01*
X140555500Y-85555500D02*
X141000000Y-86000000D01*
X134370500Y-85555500D02*
X140555500Y-85555500D01*
X133315000Y-84500000D02*
X134370500Y-85555500D01*
X134895000Y-79000000D02*
X133395000Y-80500000D01*
X136235000Y-79000000D02*
X134895000Y-79000000D01*
X133315000Y-87185000D02*
X134000000Y-86500000D01*
X133315000Y-88500000D02*
X133315000Y-87185000D01*
X129315000Y-84500000D02*
X133315000Y-88500000D01*
X128235000Y-84500000D02*
X129315000Y-84500000D01*
X133315000Y-80580000D02*
X133395000Y-80500000D01*
X136655000Y-84500000D02*
X136235000Y-84080000D01*
X138500000Y-84500000D02*
X136655000Y-84500000D01*
X138485000Y-91485000D02*
X138000000Y-91000000D01*
X138485000Y-93000000D02*
X138485000Y-91485000D01*
X135500000Y-96000000D02*
X135000000Y-96500000D01*
X135000000Y-96500000D02*
X133395000Y-96500000D01*
X138485000Y-93000000D02*
X137485000Y-94000000D01*
X137485000Y-94000000D02*
X137000000Y-94000000D01*
X134000000Y-90500000D02*
X133315000Y-89815000D01*
X133315000Y-89815000D02*
X133315000Y-88500000D01*
X139485000Y-95000000D02*
X134500000Y-95000000D01*
X141485000Y-93000000D02*
X139485000Y-95000000D01*
X152700000Y-93000000D02*
X143985000Y-93000000D01*
X156005000Y-89695000D02*
X152700000Y-93000000D01*
X161350000Y-92500000D02*
X158545000Y-89695000D01*
X175000000Y-92500000D02*
X161350000Y-92500000D01*
X180275000Y-110275000D02*
X175000000Y-105000000D01*
X180275000Y-110660000D02*
X180275000Y-110275000D01*
X180275000Y-108120000D02*
X180275000Y-105580000D01*
X177080000Y-105580000D02*
X180275000Y-105580000D01*
X177000000Y-105500000D02*
X177080000Y-105580000D01*
X172214069Y-96895500D02*
X176395500Y-96895500D01*
X170730069Y-98379500D02*
X172214069Y-96895500D01*
X157069500Y-98379500D02*
X170730069Y-98379500D01*
X156005000Y-97315000D02*
X157069500Y-98379500D01*
X176395500Y-96895500D02*
X176500000Y-97000000D01*
D29*
X147000000Y-94000000D02*
X148195000Y-94000000D01*
X148195000Y-94000000D02*
X148275000Y-94080000D01*
X145000000Y-79000000D02*
X146000000Y-80000000D01*
X143855000Y-79000000D02*
X145000000Y-79000000D01*
X152420000Y-94080000D02*
X153000000Y-93500000D01*
X148275000Y-94080000D02*
X152420000Y-94080000D01*
X169975000Y-113200000D02*
X168775000Y-112000000D01*
X172655000Y-113200000D02*
X169975000Y-113200000D01*
D28*
X165500000Y-103500000D02*
X165380000Y-103380000D01*
D29*
X165380000Y-103380000D02*
X163775000Y-103380000D01*
X166500000Y-112000000D02*
X165500000Y-111000000D01*
X168775000Y-112000000D02*
X166500000Y-112000000D01*
X172655000Y-108120000D02*
X168775000Y-112000000D01*
X155150000Y-99000000D02*
X153465000Y-97315000D01*
X157500000Y-99000000D02*
X155150000Y-99000000D01*
D28*
X158120000Y-103380000D02*
X158000000Y-103500000D01*
D29*
X163775000Y-103380000D02*
X158120000Y-103380000D01*
D28*
X166000000Y-105360000D02*
X166000000Y-106000000D01*
X167960000Y-103400000D02*
X166000000Y-105360000D01*
X165420000Y-105920000D02*
X163775000Y-105920000D01*
X165500000Y-106000000D02*
X165420000Y-105920000D01*
X166000000Y-106000000D02*
X165500000Y-106000000D01*
X166390000Y-108610000D02*
X166000000Y-109000000D01*
X167960000Y-108610000D02*
X166390000Y-108610000D01*
X156155000Y-108946394D02*
X160898606Y-113690000D01*
X160898606Y-113690000D02*
X167960000Y-113690000D01*
X156155000Y-108460000D02*
X156155000Y-108946394D01*
X162315000Y-107000000D02*
X163775000Y-108460000D01*
X154310000Y-107000000D02*
X162315000Y-107000000D01*
X152960000Y-105650000D02*
X154310000Y-107000000D01*
X157500000Y-106000000D02*
X157420000Y-105920000D01*
X158500000Y-106000000D02*
X157500000Y-106000000D01*
X157420000Y-105920000D02*
X156155000Y-105920000D01*
X159000000Y-111000000D02*
X158500000Y-110500000D01*
X163775000Y-111000000D02*
X159000000Y-111000000D01*
X154350000Y-108650000D02*
X152960000Y-108650000D01*
X154500000Y-108500000D02*
X154350000Y-108650000D01*
X156155000Y-105920000D02*
X155080000Y-105920000D01*
X155080000Y-105920000D02*
X155000000Y-106000000D01*
X151120000Y-103380000D02*
X156155000Y-103380000D01*
X151000000Y-103500000D02*
X151120000Y-103380000D01*
X149800000Y-108000000D02*
X151000000Y-108000000D01*
X148960000Y-108840000D02*
X149800000Y-108000000D01*
X150695000Y-113920000D02*
X156155000Y-108460000D01*
X148960000Y-113920000D02*
X150695000Y-113920000D01*
X127500000Y-89235000D02*
X127500000Y-89500000D01*
X128235000Y-88500000D02*
X127500000Y-89235000D01*
X135185001Y-93799999D02*
X135985000Y-93000000D01*
X129534999Y-93799999D02*
X135185001Y-93799999D01*
X128235000Y-92500000D02*
X129534999Y-93799999D01*
X149315000Y-97315000D02*
X149000000Y-97000000D01*
D29*
X153465000Y-97315000D02*
X149315000Y-97315000D01*
D28*
X148705112Y-97294888D02*
X149000000Y-97000000D01*
D29*
X147275000Y-97294888D02*
X148705112Y-97294888D01*
X145785112Y-97294888D02*
X147275000Y-97294888D01*
X141775000Y-101305000D02*
X145785112Y-97294888D01*
D28*
X136275000Y-107000000D02*
X139275000Y-110000000D01*
X136000000Y-107000000D02*
X136275000Y-107000000D01*
X130315000Y-98500000D02*
X131500000Y-98500000D01*
X128315000Y-96500000D02*
X130315000Y-98500000D01*
X147275000Y-103294888D02*
X147604888Y-103294888D01*
X147604888Y-103294888D02*
X152960000Y-108650000D01*
X140569888Y-110000000D02*
X147275000Y-103294888D01*
X139275000Y-110000000D02*
X140569888Y-110000000D01*
X141195000Y-112540000D02*
X144775000Y-108960000D01*
X139275000Y-112540000D02*
X141195000Y-112540000D01*
D29*
X133775000Y-114000000D02*
X131000000Y-114000000D01*
X138355000Y-96225000D02*
X141775000Y-96225000D01*
D28*
X138315000Y-96185000D02*
X138355000Y-96225000D01*
X137775000Y-96185000D02*
X138315000Y-96185000D01*
X133775000Y-99880000D02*
X134080000Y-99880000D01*
D29*
X134080000Y-99880000D02*
X137775000Y-96185000D01*
D28*
X133545000Y-100110000D02*
X133775000Y-99880000D01*
D29*
X128775000Y-100110000D02*
X133545000Y-100110000D01*
D28*
X126500000Y-96000000D02*
X126500000Y-94235000D01*
X126500000Y-94235000D02*
X128235000Y-92500000D01*
M02*
