%TF.GenerationSoftware,KiCad,Pcbnew,9.0.6*%
%TF.CreationDate,2025-12-17T23:03:54-08:00*%
%TF.ProjectId,LichKingChorus,4c696368-4b69-46e6-9743-686f7275732e,rev?*%
%TF.SameCoordinates,Original*%
%TF.FileFunction,Drillmap*%
%TF.FilePolarity,Positive*%
%FSLAX45Y45*%
G04 Gerber Fmt 4.5, Leading zero omitted, Abs format (unit mm)*
G04 Created by KiCad (PCBNEW 9.0.6) date 2025-12-17 23:03:54*
%MOMM*%
%LPD*%
G01*
G04 APERTURE LIST*
%ADD10C,0.100000*%
%ADD11C,0.200000*%
%ADD12C,0.110000*%
G04 APERTURE END LIST*
D10*
X12450000Y-7200000D02*
X19950000Y-7200000D01*
X19950000Y-11750000D01*
X12450000Y-11750000D01*
X12450000Y-7200000D01*
D11*
D10*
X12633490Y-9583490D02*
X12666510Y-9616510D01*
X12666510Y-9583490D02*
X12633490Y-9616510D01*
X12733490Y-8933490D02*
X12766510Y-8966510D01*
X12766510Y-8933490D02*
X12733490Y-8966510D01*
X12733490Y-11383490D02*
X12766510Y-11416510D01*
X12766510Y-11383490D02*
X12733490Y-11416510D01*
X13083490Y-11383490D02*
X13116510Y-11416510D01*
X13116510Y-11383490D02*
X13083490Y-11416510D01*
X13133490Y-9833490D02*
X13166510Y-9866510D01*
X13166510Y-9833490D02*
X13133490Y-9866510D01*
X13383490Y-8633490D02*
X13416510Y-8666510D01*
X13416510Y-8633490D02*
X13383490Y-8666510D01*
X13383490Y-9033490D02*
X13416510Y-9066510D01*
X13416510Y-9033490D02*
X13383490Y-9066510D01*
X13433490Y-9483490D02*
X13466510Y-9516510D01*
X13466510Y-9483490D02*
X13433490Y-9516510D01*
X13533490Y-9583490D02*
X13566510Y-9616510D01*
X13566510Y-9583490D02*
X13533490Y-9616510D01*
X13583490Y-10683490D02*
X13616510Y-10716510D01*
X13616510Y-10683490D02*
X13583490Y-10716510D01*
X13683490Y-9383490D02*
X13716510Y-9416510D01*
X13716510Y-9383490D02*
X13683490Y-9416510D01*
X13783490Y-9083490D02*
X13816510Y-9116510D01*
X13816510Y-9083490D02*
X13783490Y-9116510D01*
X13833490Y-8433490D02*
X13866510Y-8466510D01*
X13866510Y-8433490D02*
X13833490Y-8466510D01*
X14083490Y-8583490D02*
X14116510Y-8616510D01*
X14116510Y-8583490D02*
X14083490Y-8616510D01*
X14183490Y-8233490D02*
X14216510Y-8266510D01*
X14216510Y-8233490D02*
X14183490Y-8266510D01*
X14183490Y-8533490D02*
X14216510Y-8566510D01*
X14216510Y-8533490D02*
X14183490Y-8566510D01*
X14283490Y-9083490D02*
X14316510Y-9116510D01*
X14316510Y-9083490D02*
X14283490Y-9116510D01*
X14533490Y-7833490D02*
X14566510Y-7866510D01*
X14566510Y-7833490D02*
X14533490Y-7866510D01*
X14533490Y-8133490D02*
X14566510Y-8166510D01*
X14566510Y-8133490D02*
X14533490Y-8166510D01*
X14583490Y-7983490D02*
X14616510Y-8016510D01*
X14616510Y-7983490D02*
X14583490Y-8016510D01*
X14683490Y-9383490D02*
X14716510Y-9416510D01*
X14716510Y-9383490D02*
X14683490Y-9416510D01*
X14883490Y-9683490D02*
X14916510Y-9716510D01*
X14916510Y-9683490D02*
X14883490Y-9716510D01*
X15033490Y-8883490D02*
X15066510Y-8916510D01*
X15066510Y-8883490D02*
X15033490Y-8916510D01*
X15083490Y-9483490D02*
X15116510Y-9516510D01*
X15116510Y-9483490D02*
X15083490Y-9516510D01*
X15083490Y-10333490D02*
X15116510Y-10366510D01*
X15116510Y-10333490D02*
X15083490Y-10366510D01*
X15083490Y-10783490D02*
X15116510Y-10816510D01*
X15116510Y-10783490D02*
X15083490Y-10816510D01*
X15283490Y-9333490D02*
X15316510Y-9366510D01*
X15316510Y-9333490D02*
X15283490Y-9366510D01*
X15433490Y-7783490D02*
X15466510Y-7816510D01*
X15466510Y-7783490D02*
X15433490Y-7816510D01*
X15433490Y-8683490D02*
X15466510Y-8716510D01*
X15466510Y-8683490D02*
X15433490Y-8716510D01*
X15433490Y-10833490D02*
X15466510Y-10866510D01*
X15466510Y-10833490D02*
X15433490Y-10866510D01*
X15483490Y-10583490D02*
X15516510Y-10616510D01*
X15516510Y-10583490D02*
X15483490Y-10616510D01*
X15733490Y-9883490D02*
X15766510Y-9916510D01*
X15766510Y-9883490D02*
X15733490Y-9916510D01*
X15783490Y-8583490D02*
X15816510Y-8616510D01*
X15816510Y-8583490D02*
X15783490Y-8616510D01*
X15783490Y-10333490D02*
X15816510Y-10366510D01*
X15816510Y-10333490D02*
X15783490Y-10366510D01*
X15833490Y-10583490D02*
X15866510Y-10616510D01*
X15866510Y-10583490D02*
X15833490Y-10616510D01*
X15833490Y-11033490D02*
X15866510Y-11066510D01*
X15866510Y-11033490D02*
X15833490Y-11066510D01*
X16083490Y-10433490D02*
X16116510Y-10466510D01*
X16116510Y-10433490D02*
X16083490Y-10466510D01*
X16333490Y-9083490D02*
X16366510Y-9116510D01*
X16366510Y-9083490D02*
X16333490Y-9116510D01*
X16433490Y-10083490D02*
X16466510Y-10116510D01*
X16466510Y-10083490D02*
X16433490Y-10116510D01*
X16483490Y-8883490D02*
X16516510Y-8916510D01*
X16516510Y-8883490D02*
X16483490Y-8916510D01*
X16533490Y-9883490D02*
X16566510Y-9916510D01*
X16566510Y-9883490D02*
X16533490Y-9916510D01*
X16533490Y-10333490D02*
X16566510Y-10366510D01*
X16566510Y-10333490D02*
X16533490Y-10366510D01*
X16533490Y-11083490D02*
X16566510Y-11116510D01*
X16566510Y-11083490D02*
X16533490Y-11116510D01*
X16583490Y-10583490D02*
X16616510Y-10616510D01*
X16616510Y-10583490D02*
X16583490Y-10616510D01*
X16583490Y-10883490D02*
X16616510Y-10916510D01*
X16616510Y-10883490D02*
X16583490Y-10916510D01*
X16633490Y-9133490D02*
X16666510Y-9166510D01*
X16666510Y-9133490D02*
X16633490Y-9166510D01*
X16695440Y-8883490D02*
X16728460Y-8916510D01*
X16728460Y-8883490D02*
X16695440Y-8916510D01*
X17233490Y-8933490D02*
X17266510Y-8966510D01*
X17266510Y-8933490D02*
X17233490Y-8966510D01*
X17483490Y-9233490D02*
X17516510Y-9266510D01*
X17516510Y-9233490D02*
X17483490Y-9266510D01*
X17483490Y-10483490D02*
X17516510Y-10516510D01*
X17516510Y-10483490D02*
X17483490Y-10516510D01*
X17633490Y-9683490D02*
X17666510Y-9716510D01*
X17666510Y-9683490D02*
X17633490Y-9716510D01*
X17633490Y-11433490D02*
X17666510Y-11466510D01*
X17666510Y-11433490D02*
X17633490Y-11466510D01*
X17683490Y-10533490D02*
X17716510Y-10566510D01*
X17716510Y-10533490D02*
X17683490Y-10566510D01*
X17733490Y-8333490D02*
X17766510Y-8366510D01*
X17766510Y-8333490D02*
X17733490Y-8366510D01*
X17783490Y-9233490D02*
X17816510Y-9266510D01*
X17816510Y-9233490D02*
X17783490Y-9266510D01*
X18183490Y-9333490D02*
X18216510Y-9366510D01*
X18216510Y-9333490D02*
X18183490Y-9366510D01*
X18483490Y-10683490D02*
X18516510Y-10716510D01*
X18516510Y-10683490D02*
X18483490Y-10716510D01*
X18483490Y-11333490D02*
X18516510Y-11366510D01*
X18516510Y-11333490D02*
X18483490Y-11366510D01*
X18533490Y-9783490D02*
X18566510Y-9816510D01*
X18566510Y-9783490D02*
X18533490Y-9816510D01*
X12960000Y-7600000D02*
G75*
G02*
X12895000Y-7600000I-32500J0D01*
G01*
X12895000Y-7600000D02*
G75*
G02*
X12960000Y-7600000I32500J0D01*
G01*
X13087000Y-7600000D02*
G75*
G02*
X13022000Y-7600000I-32500J0D01*
G01*
X13022000Y-7600000D02*
G75*
G02*
X13087000Y-7600000I32500J0D01*
G01*
X13214000Y-7600000D02*
G75*
G02*
X13149000Y-7600000I-32500J0D01*
G01*
X13149000Y-7600000D02*
G75*
G02*
X13214000Y-7600000I32500J0D01*
G01*
X18873000Y-9615000D02*
G75*
G02*
X18808000Y-9615000I-32500J0D01*
G01*
X18808000Y-9615000D02*
G75*
G02*
X18873000Y-9615000I32500J0D01*
G01*
X18873000Y-9742000D02*
G75*
G02*
X18808000Y-9742000I-32500J0D01*
G01*
X18808000Y-9742000D02*
G75*
G02*
X18873000Y-9742000I32500J0D01*
G01*
X18873000Y-9869000D02*
G75*
G02*
X18808000Y-9869000I-32500J0D01*
G01*
X18808000Y-9869000D02*
G75*
G02*
X18873000Y-9869000I32500J0D01*
G01*
X12823500Y-8415000D02*
X12823500Y-8485000D01*
X12788500Y-8450000D02*
X12858500Y-8450000D01*
X12823500Y-8815000D02*
X12823500Y-8885000D01*
X12788500Y-8850000D02*
X12858500Y-8850000D01*
X12823500Y-9215000D02*
X12823500Y-9285000D01*
X12788500Y-9250000D02*
X12858500Y-9250000D01*
X12831500Y-8015000D02*
X12831500Y-8085000D01*
X12796500Y-8050000D02*
X12866500Y-8050000D01*
X12831500Y-9615000D02*
X12831500Y-9685000D01*
X12796500Y-9650000D02*
X12866500Y-9650000D01*
X13331500Y-8415000D02*
X13331500Y-8485000D01*
X13296500Y-8450000D02*
X13366500Y-8450000D01*
X13331500Y-8815000D02*
X13331500Y-8885000D01*
X13296500Y-8850000D02*
X13366500Y-8850000D01*
X13331500Y-9215000D02*
X13331500Y-9285000D01*
X13296500Y-9250000D02*
X13366500Y-9250000D01*
X13339500Y-8015000D02*
X13339500Y-8085000D01*
X13304500Y-8050000D02*
X13374500Y-8050000D01*
X13339500Y-9615000D02*
X13339500Y-9685000D01*
X13304500Y-9650000D02*
X13374500Y-9650000D01*
X13777500Y-9583500D02*
X13777500Y-9653500D01*
X13742500Y-9618500D02*
X13812500Y-9618500D01*
X13777500Y-10091500D02*
X13777500Y-10161500D01*
X13742500Y-10126500D02*
X13812500Y-10126500D01*
X14177500Y-9587500D02*
X14177500Y-9657500D01*
X14142500Y-9622500D02*
X14212500Y-9622500D01*
X14177500Y-10095500D02*
X14177500Y-10165500D01*
X14142500Y-10130500D02*
X14212500Y-10130500D01*
X14477500Y-10861000D02*
X14477500Y-10931000D01*
X14442500Y-10896000D02*
X14512500Y-10896000D01*
X14477500Y-11369000D02*
X14477500Y-11439000D01*
X14442500Y-11404000D02*
X14512500Y-11404000D01*
X14827500Y-8111000D02*
X14827500Y-8181000D01*
X14792500Y-8146000D02*
X14862500Y-8146000D01*
X14827500Y-8619000D02*
X14827500Y-8689000D01*
X14792500Y-8654000D02*
X14862500Y-8654000D01*
X14827500Y-8865000D02*
X14827500Y-8935000D01*
X14792500Y-8900000D02*
X14862500Y-8900000D01*
X14827500Y-9373000D02*
X14827500Y-9443000D01*
X14792500Y-9408000D02*
X14862500Y-9408000D01*
X14896000Y-10849000D02*
X14896000Y-10919000D01*
X14861000Y-10884000D02*
X14931000Y-10884000D01*
X14896000Y-11357000D02*
X14896000Y-11427000D01*
X14861000Y-11392000D02*
X14931000Y-11392000D01*
X15227500Y-8115000D02*
X15227500Y-8185000D01*
X15192500Y-8150000D02*
X15262500Y-8150000D01*
X15227500Y-8623000D02*
X15227500Y-8693000D01*
X15192500Y-8658000D02*
X15262500Y-8658000D01*
X15296000Y-10022000D02*
X15296000Y-10092000D01*
X15261000Y-10057000D02*
X15331000Y-10057000D01*
X15296000Y-10530000D02*
X15296000Y-10600000D01*
X15261000Y-10565000D02*
X15331000Y-10565000D01*
X15296000Y-10830000D02*
X15296000Y-10900000D01*
X15261000Y-10865000D02*
X15331000Y-10865000D01*
X15296000Y-11338000D02*
X15296000Y-11408000D01*
X15261000Y-11373000D02*
X15331000Y-11373000D01*
X15627500Y-8107000D02*
X15627500Y-8177000D01*
X15592500Y-8142000D02*
X15662500Y-8142000D01*
X15627500Y-8615000D02*
X15627500Y-8685000D01*
X15592500Y-8650000D02*
X15662500Y-8650000D01*
X16027500Y-8111000D02*
X16027500Y-8181000D01*
X15992500Y-8146000D02*
X16062500Y-8146000D01*
X16027500Y-8619000D02*
X16027500Y-8689000D01*
X15992500Y-8654000D02*
X16062500Y-8654000D01*
X16427500Y-8115000D02*
X16427500Y-8185000D01*
X16392500Y-8150000D02*
X16462500Y-8150000D01*
X16427500Y-8623000D02*
X16427500Y-8693000D01*
X16392500Y-8658000D02*
X16462500Y-8658000D01*
X16615500Y-9507000D02*
X16615500Y-9577000D01*
X16580500Y-9542000D02*
X16650500Y-9542000D01*
X16615500Y-10015000D02*
X16615500Y-10085000D01*
X16580500Y-10050000D02*
X16650500Y-10050000D01*
X16796000Y-10826000D02*
X16796000Y-10896000D01*
X16761000Y-10861000D02*
X16831000Y-10861000D01*
X16796000Y-11334000D02*
X16796000Y-11404000D01*
X16761000Y-11369000D02*
X16831000Y-11369000D01*
X17015500Y-9503000D02*
X17015500Y-9573000D01*
X16980500Y-9538000D02*
X17050500Y-9538000D01*
X17015500Y-10011000D02*
X17015500Y-10081000D01*
X16980500Y-10046000D02*
X17050500Y-10046000D01*
X13405784Y-11178285D02*
X13405784Y-11121716D01*
X13349215Y-11121716D01*
X13349215Y-11178285D01*
X13405784Y-11178285D01*
X13405784Y-11428284D02*
X13405784Y-11371715D01*
X13349215Y-11371715D01*
X13349215Y-11428284D01*
X13405784Y-11428284D01*
X13626784Y-9328285D02*
X13626784Y-9271716D01*
X13570215Y-9271716D01*
X13570215Y-9328285D01*
X13626784Y-9328285D01*
X13651784Y-7928284D02*
X13651784Y-7871715D01*
X13595215Y-7871715D01*
X13595215Y-7928284D01*
X13651784Y-7928284D01*
X13651784Y-8182284D02*
X13651784Y-8125715D01*
X13595215Y-8125715D01*
X13595215Y-8182284D01*
X13651784Y-8182284D01*
X13651784Y-8436285D02*
X13651784Y-8379715D01*
X13595215Y-8379715D01*
X13595215Y-8436285D01*
X13651784Y-8436285D01*
X13651784Y-8690285D02*
X13651784Y-8633716D01*
X13595215Y-8633716D01*
X13595215Y-8690285D01*
X13651784Y-8690285D01*
X13876784Y-9328285D02*
X13876784Y-9271716D01*
X13820215Y-9271716D01*
X13820215Y-9328285D01*
X13876784Y-9328285D01*
X13955784Y-10774285D02*
X13955784Y-10717716D01*
X13899215Y-10717716D01*
X13899215Y-10774285D01*
X13955784Y-10774285D01*
X13955784Y-11028285D02*
X13955784Y-10971716D01*
X13899215Y-10971716D01*
X13899215Y-11028285D01*
X13955784Y-11028285D01*
X13955784Y-11282284D02*
X13955784Y-11225715D01*
X13899215Y-11225715D01*
X13899215Y-11282284D01*
X13955784Y-11282284D01*
X14176784Y-9328285D02*
X14176784Y-9271716D01*
X14120215Y-9271716D01*
X14120215Y-9328285D01*
X14176784Y-9328285D01*
X14413784Y-7928284D02*
X14413784Y-7871715D01*
X14357215Y-7871715D01*
X14357215Y-7928284D01*
X14413784Y-7928284D01*
X14413784Y-8182284D02*
X14413784Y-8125715D01*
X14357215Y-8125715D01*
X14357215Y-8182284D01*
X14413784Y-8182284D01*
X14413784Y-8436285D02*
X14413784Y-8379715D01*
X14357215Y-8379715D01*
X14357215Y-8436285D01*
X14413784Y-8436285D01*
X14413784Y-8690285D02*
X14413784Y-8633716D01*
X14357215Y-8633716D01*
X14357215Y-8690285D01*
X14413784Y-8690285D01*
X14426784Y-9328285D02*
X14426784Y-9271716D01*
X14370215Y-9271716D01*
X14370215Y-9328285D01*
X14426784Y-9328285D01*
X14755784Y-9757773D02*
X14755784Y-9701204D01*
X14699215Y-9701204D01*
X14699215Y-9757773D01*
X14755784Y-9757773D01*
X14755784Y-10007773D02*
X14755784Y-9951204D01*
X14699215Y-9951204D01*
X14699215Y-10007773D01*
X14755784Y-10007773D01*
X14755784Y-10357773D02*
X14755784Y-10301204D01*
X14699215Y-10301204D01*
X14699215Y-10357773D01*
X14755784Y-10357773D01*
X14755784Y-10607773D02*
X14755784Y-10551204D01*
X14699215Y-10551204D01*
X14699215Y-10607773D01*
X14755784Y-10607773D01*
X14855784Y-7703284D02*
X14855784Y-7646715D01*
X14799215Y-7646715D01*
X14799215Y-7703284D01*
X14855784Y-7703284D01*
X14855784Y-7953284D02*
X14855784Y-7896715D01*
X14799215Y-7896715D01*
X14799215Y-7953284D01*
X14855784Y-7953284D01*
X15305784Y-7703284D02*
X15305784Y-7646715D01*
X15249215Y-7646715D01*
X15249215Y-7703284D01*
X15305784Y-7703284D01*
X15305784Y-7953284D02*
X15305784Y-7896715D01*
X15249215Y-7896715D01*
X15249215Y-7953284D01*
X15305784Y-7953284D01*
X15374784Y-8997785D02*
X15374784Y-8941216D01*
X15318215Y-8941216D01*
X15318215Y-8997785D01*
X15374784Y-8997785D01*
X15374784Y-9759785D02*
X15374784Y-9703216D01*
X15318215Y-9703216D01*
X15318215Y-9759785D01*
X15374784Y-9759785D01*
X15628784Y-8997785D02*
X15628784Y-8941216D01*
X15572215Y-8941216D01*
X15572215Y-8997785D01*
X15628784Y-8997785D01*
X15628784Y-9759785D02*
X15628784Y-9703216D01*
X15572215Y-9703216D01*
X15572215Y-9759785D01*
X15628784Y-9759785D01*
X15643784Y-10366285D02*
X15643784Y-10309716D01*
X15587215Y-10309716D01*
X15587215Y-10366285D01*
X15643784Y-10366285D01*
X15643784Y-10620285D02*
X15643784Y-10563716D01*
X15587215Y-10563716D01*
X15587215Y-10620285D01*
X15643784Y-10620285D01*
X15643784Y-10874285D02*
X15643784Y-10817716D01*
X15587215Y-10817716D01*
X15587215Y-10874285D01*
X15643784Y-10874285D01*
X15643784Y-11128285D02*
X15643784Y-11071716D01*
X15587215Y-11071716D01*
X15587215Y-11128285D01*
X15643784Y-11128285D01*
X15755784Y-7703284D02*
X15755784Y-7646715D01*
X15699215Y-7646715D01*
X15699215Y-7703284D01*
X15755784Y-7703284D01*
X15755784Y-7953284D02*
X15755784Y-7896715D01*
X15699215Y-7896715D01*
X15699215Y-7953284D01*
X15755784Y-7953284D01*
X15882784Y-8997785D02*
X15882784Y-8941216D01*
X15826215Y-8941216D01*
X15826215Y-8997785D01*
X15882784Y-8997785D01*
X15882784Y-9759785D02*
X15882784Y-9703216D01*
X15826215Y-9703216D01*
X15826215Y-9759785D01*
X15882784Y-9759785D01*
X16105784Y-7728284D02*
X16105784Y-7671715D01*
X16049215Y-7671715D01*
X16049215Y-7728284D01*
X16105784Y-7728284D01*
X16136784Y-8997785D02*
X16136784Y-8941216D01*
X16080215Y-8941216D01*
X16080215Y-8997785D01*
X16136784Y-8997785D01*
X16136784Y-9759785D02*
X16136784Y-9703216D01*
X16080215Y-9703216D01*
X16080215Y-9759785D01*
X16136784Y-9759785D01*
X16355784Y-7728284D02*
X16355784Y-7671715D01*
X16299215Y-7671715D01*
X16299215Y-7728284D01*
X16355784Y-7728284D01*
X16405784Y-10366285D02*
X16405784Y-10309716D01*
X16349215Y-10309716D01*
X16349215Y-10366285D01*
X16405784Y-10366285D01*
X16405784Y-10620285D02*
X16405784Y-10563716D01*
X16349215Y-10563716D01*
X16349215Y-10620285D01*
X16405784Y-10620285D01*
X16405784Y-10874285D02*
X16405784Y-10817716D01*
X16349215Y-10817716D01*
X16349215Y-10874285D01*
X16405784Y-10874285D01*
X16405784Y-11128285D02*
X16405784Y-11071716D01*
X16349215Y-11071716D01*
X16349215Y-11128285D01*
X16405784Y-11128285D01*
X16824285Y-10368285D02*
X16824285Y-10311716D01*
X16767715Y-10311716D01*
X16767715Y-10368285D01*
X16824285Y-10368285D01*
X16824285Y-10618285D02*
X16824285Y-10561716D01*
X16767715Y-10561716D01*
X16767715Y-10618285D01*
X16824285Y-10618285D01*
X17293785Y-9570285D02*
X17293785Y-9513716D01*
X17237216Y-9513716D01*
X17237216Y-9570285D01*
X17293785Y-9570285D01*
X17293785Y-9824285D02*
X17293785Y-9767716D01*
X17237216Y-9767716D01*
X17237216Y-9824285D01*
X17293785Y-9824285D01*
X17293785Y-10078285D02*
X17293785Y-10021716D01*
X17237216Y-10021716D01*
X17237216Y-10078285D01*
X17293785Y-10078285D01*
X17293785Y-10332285D02*
X17293785Y-10275716D01*
X17237216Y-10275716D01*
X17237216Y-10332285D01*
X17293785Y-10332285D01*
X17293785Y-10586285D02*
X17293785Y-10529716D01*
X17237216Y-10529716D01*
X17237216Y-10586285D01*
X17293785Y-10586285D01*
X17293785Y-10840285D02*
X17293785Y-10783716D01*
X17237216Y-10783716D01*
X17237216Y-10840285D01*
X17293785Y-10840285D01*
X17293785Y-11094285D02*
X17293785Y-11037716D01*
X17237216Y-11037716D01*
X17237216Y-11094285D01*
X17293785Y-11094285D01*
X17293785Y-11348284D02*
X17293785Y-11291715D01*
X17237216Y-11291715D01*
X17237216Y-11348284D01*
X17293785Y-11348284D01*
X18055785Y-9570285D02*
X18055785Y-9513716D01*
X17999216Y-9513716D01*
X17999216Y-9570285D01*
X18055785Y-9570285D01*
X18055785Y-9824285D02*
X18055785Y-9767716D01*
X17999216Y-9767716D01*
X17999216Y-9824285D01*
X18055785Y-9824285D01*
X18055785Y-10078285D02*
X18055785Y-10021716D01*
X17999216Y-10021716D01*
X17999216Y-10078285D01*
X18055785Y-10078285D01*
X18055785Y-10332285D02*
X18055785Y-10275716D01*
X17999216Y-10275716D01*
X17999216Y-10332285D01*
X18055785Y-10332285D01*
X18055785Y-10586285D02*
X18055785Y-10529716D01*
X17999216Y-10529716D01*
X17999216Y-10586285D01*
X18055785Y-10586285D01*
X18055785Y-10840285D02*
X18055785Y-10783716D01*
X17999216Y-10783716D01*
X17999216Y-10840285D01*
X18055785Y-10840285D01*
X18055785Y-11094285D02*
X18055785Y-11037716D01*
X17999216Y-11037716D01*
X17999216Y-11094285D01*
X18055785Y-11094285D01*
X18055785Y-11348284D02*
X18055785Y-11291715D01*
X17999216Y-11291715D01*
X17999216Y-11348284D01*
X18055785Y-11348284D01*
X18318785Y-9570285D02*
X18318785Y-9513716D01*
X18262216Y-9513716D01*
X18262216Y-9570285D01*
X18318785Y-9570285D01*
X18318785Y-10020285D02*
X18318785Y-9963716D01*
X18262216Y-9963716D01*
X18262216Y-10020285D01*
X18318785Y-10020285D01*
X18568785Y-9570285D02*
X18568785Y-9513716D01*
X18512216Y-9513716D01*
X18512216Y-9570285D01*
X18568785Y-9570285D01*
X18568785Y-10020285D02*
X18568785Y-9963716D01*
X18512216Y-9963716D01*
X18512216Y-10020285D01*
X18568785Y-10020285D01*
X19428285Y-9378285D02*
X19428285Y-9321716D01*
X19371716Y-9321716D01*
X19371716Y-9378285D01*
X19428285Y-9378285D01*
X19428285Y-9578285D02*
X19428285Y-9521716D01*
X19371716Y-9521716D01*
X19371716Y-9578285D01*
X19428285Y-9578285D01*
X19428285Y-9778285D02*
X19428285Y-9721716D01*
X19371716Y-9721716D01*
X19371716Y-9778285D01*
X19428285Y-9778285D01*
X19428285Y-9978285D02*
X19428285Y-9921716D01*
X19371716Y-9921716D01*
X19371716Y-9978285D01*
X19428285Y-9978285D01*
X13377500Y-10033000D02*
X13422500Y-9988000D01*
X13377500Y-9943000D01*
X13332500Y-9988000D01*
X13377500Y-10033000D01*
X13377500Y-10795000D02*
X13422500Y-10750000D01*
X13377500Y-10705000D01*
X13332500Y-10750000D01*
X13377500Y-10795000D01*
X17150000Y-8722500D02*
X17250000Y-8822500D01*
X17250000Y-8722500D02*
X17150000Y-8822500D01*
X17250000Y-8772500D02*
G75*
G02*
X17150000Y-8772500I-50000J0D01*
G01*
X17150000Y-8772500D02*
G75*
G02*
X17250000Y-8772500I50000J0D01*
G01*
X17400000Y-8722500D02*
X17500000Y-8822500D01*
X17500000Y-8722500D02*
X17400000Y-8822500D01*
X17500000Y-8772500D02*
G75*
G02*
X17400000Y-8772500I-50000J0D01*
G01*
X17400000Y-8772500D02*
G75*
G02*
X17500000Y-8772500I50000J0D01*
G01*
X17650000Y-8722500D02*
X17750000Y-8822500D01*
X17750000Y-8722500D02*
X17650000Y-8822500D01*
X17750000Y-8772500D02*
G75*
G02*
X17650000Y-8772500I-50000J0D01*
G01*
X17650000Y-8772500D02*
G75*
G02*
X17750000Y-8772500I50000J0D01*
G01*
X18700000Y-8722500D02*
X18800000Y-8822500D01*
X18800000Y-8722500D02*
X18700000Y-8822500D01*
X18800000Y-8772500D02*
G75*
G02*
X18700000Y-8772500I-50000J0D01*
G01*
X18700000Y-8772500D02*
G75*
G02*
X18800000Y-8772500I50000J0D01*
G01*
X18950000Y-8722500D02*
X19050000Y-8822500D01*
X19050000Y-8722500D02*
X18950000Y-8822500D01*
X19050000Y-8772500D02*
G75*
G02*
X18950000Y-8772500I-50000J0D01*
G01*
X18950000Y-8772500D02*
G75*
G02*
X19050000Y-8772500I50000J0D01*
G01*
X19200000Y-8722500D02*
X19300000Y-8822500D01*
X19300000Y-8722500D02*
X19200000Y-8822500D01*
X19300000Y-8772500D02*
G75*
G02*
X19200000Y-8772500I-50000J0D01*
G01*
X19200000Y-8772500D02*
G75*
G02*
X19300000Y-8772500I50000J0D01*
G01*
D12*
X12822500Y-9956000D02*
X12932500Y-10066000D01*
X12932500Y-9956000D02*
X12822500Y-10066000D01*
X12877500Y-9956000D02*
X12877500Y-10066000D01*
X12822500Y-10011000D02*
X12932500Y-10011000D01*
X12822500Y-10972000D02*
X12932500Y-11082000D01*
X12932500Y-10972000D02*
X12822500Y-11082000D01*
X12877500Y-10972000D02*
X12877500Y-11082000D01*
X12822500Y-11027000D02*
X12932500Y-11027000D01*
X16915000Y-7967500D02*
X17025000Y-8077500D01*
X17025000Y-7967500D02*
X16915000Y-8077500D01*
X16970000Y-7967500D02*
X16970000Y-8077500D01*
X16915000Y-8022500D02*
X17025000Y-8022500D01*
D10*
X17025000Y-8057500D02*
X17025000Y-7987500D01*
X16915000Y-7987500D02*
G75*
G02*
X17025000Y-7987500I55000J0D01*
G01*
X16915000Y-7987500D02*
X16915000Y-8057500D01*
X16915000Y-8057500D02*
G75*
G03*
X17025000Y-8057500I55000J0D01*
G01*
D12*
X17875000Y-7967500D02*
X17985000Y-8077500D01*
X17985000Y-7967500D02*
X17875000Y-8077500D01*
X17930000Y-7967500D02*
X17930000Y-8077500D01*
X17875000Y-8022500D02*
X17985000Y-8022500D01*
D10*
X17985000Y-8057500D02*
X17985000Y-7987500D01*
X17875000Y-7987500D02*
G75*
G02*
X17985000Y-7987500I55000J0D01*
G01*
X17875000Y-7987500D02*
X17875000Y-8057500D01*
X17875000Y-8057500D02*
G75*
G03*
X17985000Y-8057500I55000J0D01*
G01*
D12*
X18465000Y-7967500D02*
X18575000Y-8077500D01*
X18575000Y-7967500D02*
X18465000Y-8077500D01*
X18520000Y-7967500D02*
X18520000Y-8077500D01*
X18465000Y-8022500D02*
X18575000Y-8022500D01*
D10*
X18575000Y-8057500D02*
X18575000Y-7987500D01*
X18465000Y-7987500D02*
G75*
G02*
X18575000Y-7987500I55000J0D01*
G01*
X18465000Y-7987500D02*
X18465000Y-8057500D01*
X18465000Y-8057500D02*
G75*
G03*
X18575000Y-8057500I55000J0D01*
G01*
D12*
X19425000Y-7967500D02*
X19535000Y-8077500D01*
X19535000Y-7967500D02*
X19425000Y-8077500D01*
X19480000Y-7967500D02*
X19480000Y-8077500D01*
X19425000Y-8022500D02*
X19535000Y-8022500D01*
D10*
X19535000Y-8057500D02*
X19535000Y-7987500D01*
X19425000Y-7987500D02*
G75*
G02*
X19535000Y-7987500I55000J0D01*
G01*
X19425000Y-7987500D02*
X19425000Y-8057500D01*
X19425000Y-8057500D02*
G75*
G03*
X19535000Y-8057500I55000J0D01*
G01*
D11*
X12705777Y-12066484D02*
X12705777Y-11866484D01*
X12705777Y-11866484D02*
X12753396Y-11866484D01*
X12753396Y-11866484D02*
X12781967Y-11876008D01*
X12781967Y-11876008D02*
X12801015Y-11895055D01*
X12801015Y-11895055D02*
X12810539Y-11914103D01*
X12810539Y-11914103D02*
X12820062Y-11952198D01*
X12820062Y-11952198D02*
X12820062Y-11980769D01*
X12820062Y-11980769D02*
X12810539Y-12018865D01*
X12810539Y-12018865D02*
X12801015Y-12037912D01*
X12801015Y-12037912D02*
X12781967Y-12056960D01*
X12781967Y-12056960D02*
X12753396Y-12066484D01*
X12753396Y-12066484D02*
X12705777Y-12066484D01*
X12905777Y-12066484D02*
X12905777Y-11933150D01*
X12905777Y-11971246D02*
X12915301Y-11952198D01*
X12915301Y-11952198D02*
X12924824Y-11942674D01*
X12924824Y-11942674D02*
X12943872Y-11933150D01*
X12943872Y-11933150D02*
X12962920Y-11933150D01*
X13029586Y-12066484D02*
X13029586Y-11933150D01*
X13029586Y-11866484D02*
X13020062Y-11876008D01*
X13020062Y-11876008D02*
X13029586Y-11885531D01*
X13029586Y-11885531D02*
X13039110Y-11876008D01*
X13039110Y-11876008D02*
X13029586Y-11866484D01*
X13029586Y-11866484D02*
X13029586Y-11885531D01*
X13153396Y-12066484D02*
X13134348Y-12056960D01*
X13134348Y-12056960D02*
X13124824Y-12037912D01*
X13124824Y-12037912D02*
X13124824Y-11866484D01*
X13258158Y-12066484D02*
X13239110Y-12056960D01*
X13239110Y-12056960D02*
X13229586Y-12037912D01*
X13229586Y-12037912D02*
X13229586Y-11866484D01*
X13486729Y-12066484D02*
X13486729Y-11866484D01*
X13486729Y-11866484D02*
X13553396Y-12009341D01*
X13553396Y-12009341D02*
X13620062Y-11866484D01*
X13620062Y-11866484D02*
X13620062Y-12066484D01*
X13801015Y-12066484D02*
X13801015Y-11961722D01*
X13801015Y-11961722D02*
X13791491Y-11942674D01*
X13791491Y-11942674D02*
X13772443Y-11933150D01*
X13772443Y-11933150D02*
X13734348Y-11933150D01*
X13734348Y-11933150D02*
X13715301Y-11942674D01*
X13801015Y-12056960D02*
X13781967Y-12066484D01*
X13781967Y-12066484D02*
X13734348Y-12066484D01*
X13734348Y-12066484D02*
X13715301Y-12056960D01*
X13715301Y-12056960D02*
X13705777Y-12037912D01*
X13705777Y-12037912D02*
X13705777Y-12018865D01*
X13705777Y-12018865D02*
X13715301Y-11999817D01*
X13715301Y-11999817D02*
X13734348Y-11990293D01*
X13734348Y-11990293D02*
X13781967Y-11990293D01*
X13781967Y-11990293D02*
X13801015Y-11980769D01*
X13896253Y-11933150D02*
X13896253Y-12133150D01*
X13896253Y-11942674D02*
X13915301Y-11933150D01*
X13915301Y-11933150D02*
X13953396Y-11933150D01*
X13953396Y-11933150D02*
X13972443Y-11942674D01*
X13972443Y-11942674D02*
X13981967Y-11952198D01*
X13981967Y-11952198D02*
X13991491Y-11971246D01*
X13991491Y-11971246D02*
X13991491Y-12028388D01*
X13991491Y-12028388D02*
X13981967Y-12047436D01*
X13981967Y-12047436D02*
X13972443Y-12056960D01*
X13972443Y-12056960D02*
X13953396Y-12066484D01*
X13953396Y-12066484D02*
X13915301Y-12066484D01*
X13915301Y-12066484D02*
X13896253Y-12056960D01*
X14077205Y-12047436D02*
X14086729Y-12056960D01*
X14086729Y-12056960D02*
X14077205Y-12066484D01*
X14077205Y-12066484D02*
X14067682Y-12056960D01*
X14067682Y-12056960D02*
X14077205Y-12047436D01*
X14077205Y-12047436D02*
X14077205Y-12066484D01*
X14077205Y-11942674D02*
X14086729Y-11952198D01*
X14086729Y-11952198D02*
X14077205Y-11961722D01*
X14077205Y-11961722D02*
X14067682Y-11952198D01*
X14067682Y-11952198D02*
X14077205Y-11942674D01*
X14077205Y-11942674D02*
X14077205Y-11961722D01*
D10*
X12411980Y-12378490D02*
X12445000Y-12411510D01*
X12445000Y-12378490D02*
X12411980Y-12411510D01*
D11*
X12743872Y-12286484D02*
X12762920Y-12286484D01*
X12762920Y-12286484D02*
X12781967Y-12296008D01*
X12781967Y-12296008D02*
X12791491Y-12305531D01*
X12791491Y-12305531D02*
X12801015Y-12324579D01*
X12801015Y-12324579D02*
X12810539Y-12362674D01*
X12810539Y-12362674D02*
X12810539Y-12410293D01*
X12810539Y-12410293D02*
X12801015Y-12448388D01*
X12801015Y-12448388D02*
X12791491Y-12467436D01*
X12791491Y-12467436D02*
X12781967Y-12476960D01*
X12781967Y-12476960D02*
X12762920Y-12486484D01*
X12762920Y-12486484D02*
X12743872Y-12486484D01*
X12743872Y-12486484D02*
X12724824Y-12476960D01*
X12724824Y-12476960D02*
X12715301Y-12467436D01*
X12715301Y-12467436D02*
X12705777Y-12448388D01*
X12705777Y-12448388D02*
X12696253Y-12410293D01*
X12696253Y-12410293D02*
X12696253Y-12362674D01*
X12696253Y-12362674D02*
X12705777Y-12324579D01*
X12705777Y-12324579D02*
X12715301Y-12305531D01*
X12715301Y-12305531D02*
X12724824Y-12296008D01*
X12724824Y-12296008D02*
X12743872Y-12286484D01*
X12896253Y-12467436D02*
X12905777Y-12476960D01*
X12905777Y-12476960D02*
X12896253Y-12486484D01*
X12896253Y-12486484D02*
X12886729Y-12476960D01*
X12886729Y-12476960D02*
X12896253Y-12467436D01*
X12896253Y-12467436D02*
X12896253Y-12486484D01*
X12972443Y-12286484D02*
X13096253Y-12286484D01*
X13096253Y-12286484D02*
X13029586Y-12362674D01*
X13029586Y-12362674D02*
X13058158Y-12362674D01*
X13058158Y-12362674D02*
X13077205Y-12372198D01*
X13077205Y-12372198D02*
X13086729Y-12381722D01*
X13086729Y-12381722D02*
X13096253Y-12400769D01*
X13096253Y-12400769D02*
X13096253Y-12448388D01*
X13096253Y-12448388D02*
X13086729Y-12467436D01*
X13086729Y-12467436D02*
X13077205Y-12476960D01*
X13077205Y-12476960D02*
X13058158Y-12486484D01*
X13058158Y-12486484D02*
X13001015Y-12486484D01*
X13001015Y-12486484D02*
X12981967Y-12476960D01*
X12981967Y-12476960D02*
X12972443Y-12467436D01*
X13162920Y-12286484D02*
X13286729Y-12286484D01*
X13286729Y-12286484D02*
X13220062Y-12362674D01*
X13220062Y-12362674D02*
X13248634Y-12362674D01*
X13248634Y-12362674D02*
X13267682Y-12372198D01*
X13267682Y-12372198D02*
X13277205Y-12381722D01*
X13277205Y-12381722D02*
X13286729Y-12400769D01*
X13286729Y-12400769D02*
X13286729Y-12448388D01*
X13286729Y-12448388D02*
X13277205Y-12467436D01*
X13277205Y-12467436D02*
X13267682Y-12476960D01*
X13267682Y-12476960D02*
X13248634Y-12486484D01*
X13248634Y-12486484D02*
X13191491Y-12486484D01*
X13191491Y-12486484D02*
X13172443Y-12476960D01*
X13172443Y-12476960D02*
X13162920Y-12467436D01*
X13410539Y-12286484D02*
X13429586Y-12286484D01*
X13429586Y-12286484D02*
X13448634Y-12296008D01*
X13448634Y-12296008D02*
X13458158Y-12305531D01*
X13458158Y-12305531D02*
X13467682Y-12324579D01*
X13467682Y-12324579D02*
X13477205Y-12362674D01*
X13477205Y-12362674D02*
X13477205Y-12410293D01*
X13477205Y-12410293D02*
X13467682Y-12448388D01*
X13467682Y-12448388D02*
X13458158Y-12467436D01*
X13458158Y-12467436D02*
X13448634Y-12476960D01*
X13448634Y-12476960D02*
X13429586Y-12486484D01*
X13429586Y-12486484D02*
X13410539Y-12486484D01*
X13410539Y-12486484D02*
X13391491Y-12476960D01*
X13391491Y-12476960D02*
X13381967Y-12467436D01*
X13381967Y-12467436D02*
X13372443Y-12448388D01*
X13372443Y-12448388D02*
X13362920Y-12410293D01*
X13362920Y-12410293D02*
X13362920Y-12362674D01*
X13362920Y-12362674D02*
X13372443Y-12324579D01*
X13372443Y-12324579D02*
X13381967Y-12305531D01*
X13381967Y-12305531D02*
X13391491Y-12296008D01*
X13391491Y-12296008D02*
X13410539Y-12286484D01*
X13562920Y-12486484D02*
X13562920Y-12353150D01*
X13562920Y-12372198D02*
X13572443Y-12362674D01*
X13572443Y-12362674D02*
X13591491Y-12353150D01*
X13591491Y-12353150D02*
X13620063Y-12353150D01*
X13620063Y-12353150D02*
X13639110Y-12362674D01*
X13639110Y-12362674D02*
X13648634Y-12381722D01*
X13648634Y-12381722D02*
X13648634Y-12486484D01*
X13648634Y-12381722D02*
X13658158Y-12362674D01*
X13658158Y-12362674D02*
X13677205Y-12353150D01*
X13677205Y-12353150D02*
X13705777Y-12353150D01*
X13705777Y-12353150D02*
X13724824Y-12362674D01*
X13724824Y-12362674D02*
X13734348Y-12381722D01*
X13734348Y-12381722D02*
X13734348Y-12486484D01*
X13829586Y-12486484D02*
X13829586Y-12353150D01*
X13829586Y-12372198D02*
X13839110Y-12362674D01*
X13839110Y-12362674D02*
X13858158Y-12353150D01*
X13858158Y-12353150D02*
X13886729Y-12353150D01*
X13886729Y-12353150D02*
X13905777Y-12362674D01*
X13905777Y-12362674D02*
X13915301Y-12381722D01*
X13915301Y-12381722D02*
X13915301Y-12486484D01*
X13915301Y-12381722D02*
X13924824Y-12362674D01*
X13924824Y-12362674D02*
X13943872Y-12353150D01*
X13943872Y-12353150D02*
X13972443Y-12353150D01*
X13972443Y-12353150D02*
X13991491Y-12362674D01*
X13991491Y-12362674D02*
X14001015Y-12381722D01*
X14001015Y-12381722D02*
X14001015Y-12486484D01*
X14391491Y-12276960D02*
X14220063Y-12534103D01*
X14648634Y-12286484D02*
X14667682Y-12286484D01*
X14667682Y-12286484D02*
X14686729Y-12296008D01*
X14686729Y-12296008D02*
X14696253Y-12305531D01*
X14696253Y-12305531D02*
X14705777Y-12324579D01*
X14705777Y-12324579D02*
X14715301Y-12362674D01*
X14715301Y-12362674D02*
X14715301Y-12410293D01*
X14715301Y-12410293D02*
X14705777Y-12448388D01*
X14705777Y-12448388D02*
X14696253Y-12467436D01*
X14696253Y-12467436D02*
X14686729Y-12476960D01*
X14686729Y-12476960D02*
X14667682Y-12486484D01*
X14667682Y-12486484D02*
X14648634Y-12486484D01*
X14648634Y-12486484D02*
X14629586Y-12476960D01*
X14629586Y-12476960D02*
X14620063Y-12467436D01*
X14620063Y-12467436D02*
X14610539Y-12448388D01*
X14610539Y-12448388D02*
X14601015Y-12410293D01*
X14601015Y-12410293D02*
X14601015Y-12362674D01*
X14601015Y-12362674D02*
X14610539Y-12324579D01*
X14610539Y-12324579D02*
X14620063Y-12305531D01*
X14620063Y-12305531D02*
X14629586Y-12296008D01*
X14629586Y-12296008D02*
X14648634Y-12286484D01*
X14801015Y-12467436D02*
X14810539Y-12476960D01*
X14810539Y-12476960D02*
X14801015Y-12486484D01*
X14801015Y-12486484D02*
X14791491Y-12476960D01*
X14791491Y-12476960D02*
X14801015Y-12467436D01*
X14801015Y-12467436D02*
X14801015Y-12486484D01*
X14934348Y-12286484D02*
X14953396Y-12286484D01*
X14953396Y-12286484D02*
X14972444Y-12296008D01*
X14972444Y-12296008D02*
X14981967Y-12305531D01*
X14981967Y-12305531D02*
X14991491Y-12324579D01*
X14991491Y-12324579D02*
X15001015Y-12362674D01*
X15001015Y-12362674D02*
X15001015Y-12410293D01*
X15001015Y-12410293D02*
X14991491Y-12448388D01*
X14991491Y-12448388D02*
X14981967Y-12467436D01*
X14981967Y-12467436D02*
X14972444Y-12476960D01*
X14972444Y-12476960D02*
X14953396Y-12486484D01*
X14953396Y-12486484D02*
X14934348Y-12486484D01*
X14934348Y-12486484D02*
X14915301Y-12476960D01*
X14915301Y-12476960D02*
X14905777Y-12467436D01*
X14905777Y-12467436D02*
X14896253Y-12448388D01*
X14896253Y-12448388D02*
X14886729Y-12410293D01*
X14886729Y-12410293D02*
X14886729Y-12362674D01*
X14886729Y-12362674D02*
X14896253Y-12324579D01*
X14896253Y-12324579D02*
X14905777Y-12305531D01*
X14905777Y-12305531D02*
X14915301Y-12296008D01*
X14915301Y-12296008D02*
X14934348Y-12286484D01*
X15191491Y-12486484D02*
X15077206Y-12486484D01*
X15134348Y-12486484D02*
X15134348Y-12286484D01*
X15134348Y-12286484D02*
X15115301Y-12315055D01*
X15115301Y-12315055D02*
X15096253Y-12334103D01*
X15096253Y-12334103D02*
X15077206Y-12343627D01*
X15258158Y-12286484D02*
X15381967Y-12286484D01*
X15381967Y-12286484D02*
X15315301Y-12362674D01*
X15315301Y-12362674D02*
X15343872Y-12362674D01*
X15343872Y-12362674D02*
X15362920Y-12372198D01*
X15362920Y-12372198D02*
X15372444Y-12381722D01*
X15372444Y-12381722D02*
X15381967Y-12400769D01*
X15381967Y-12400769D02*
X15381967Y-12448388D01*
X15381967Y-12448388D02*
X15372444Y-12467436D01*
X15372444Y-12467436D02*
X15362920Y-12476960D01*
X15362920Y-12476960D02*
X15343872Y-12486484D01*
X15343872Y-12486484D02*
X15286729Y-12486484D01*
X15286729Y-12486484D02*
X15267682Y-12476960D01*
X15267682Y-12476960D02*
X15258158Y-12467436D01*
X15505777Y-12286484D02*
X15524825Y-12286484D01*
X15524825Y-12286484D02*
X15543872Y-12296008D01*
X15543872Y-12296008D02*
X15553396Y-12305531D01*
X15553396Y-12305531D02*
X15562920Y-12324579D01*
X15562920Y-12324579D02*
X15572444Y-12362674D01*
X15572444Y-12362674D02*
X15572444Y-12410293D01*
X15572444Y-12410293D02*
X15562920Y-12448388D01*
X15562920Y-12448388D02*
X15553396Y-12467436D01*
X15553396Y-12467436D02*
X15543872Y-12476960D01*
X15543872Y-12476960D02*
X15524825Y-12486484D01*
X15524825Y-12486484D02*
X15505777Y-12486484D01*
X15505777Y-12486484D02*
X15486729Y-12476960D01*
X15486729Y-12476960D02*
X15477206Y-12467436D01*
X15477206Y-12467436D02*
X15467682Y-12448388D01*
X15467682Y-12448388D02*
X15458158Y-12410293D01*
X15458158Y-12410293D02*
X15458158Y-12362674D01*
X15458158Y-12362674D02*
X15467682Y-12324579D01*
X15467682Y-12324579D02*
X15477206Y-12305531D01*
X15477206Y-12305531D02*
X15486729Y-12296008D01*
X15486729Y-12296008D02*
X15505777Y-12286484D01*
X15648634Y-12286484D02*
X15648634Y-12324579D01*
X15724825Y-12286484D02*
X15724825Y-12324579D01*
X16020063Y-12562674D02*
X16010539Y-12553150D01*
X16010539Y-12553150D02*
X15991491Y-12524579D01*
X15991491Y-12524579D02*
X15981968Y-12505531D01*
X15981968Y-12505531D02*
X15972444Y-12476960D01*
X15972444Y-12476960D02*
X15962920Y-12429341D01*
X15962920Y-12429341D02*
X15962920Y-12391246D01*
X15962920Y-12391246D02*
X15972444Y-12343627D01*
X15972444Y-12343627D02*
X15981968Y-12315055D01*
X15981968Y-12315055D02*
X15991491Y-12296008D01*
X15991491Y-12296008D02*
X16010539Y-12267436D01*
X16010539Y-12267436D02*
X16020063Y-12257912D01*
X16191491Y-12286484D02*
X16096253Y-12286484D01*
X16096253Y-12286484D02*
X16086729Y-12381722D01*
X16086729Y-12381722D02*
X16096253Y-12372198D01*
X16096253Y-12372198D02*
X16115301Y-12362674D01*
X16115301Y-12362674D02*
X16162920Y-12362674D01*
X16162920Y-12362674D02*
X16181968Y-12372198D01*
X16181968Y-12372198D02*
X16191491Y-12381722D01*
X16191491Y-12381722D02*
X16201015Y-12400769D01*
X16201015Y-12400769D02*
X16201015Y-12448388D01*
X16201015Y-12448388D02*
X16191491Y-12467436D01*
X16191491Y-12467436D02*
X16181968Y-12476960D01*
X16181968Y-12476960D02*
X16162920Y-12486484D01*
X16162920Y-12486484D02*
X16115301Y-12486484D01*
X16115301Y-12486484D02*
X16096253Y-12476960D01*
X16096253Y-12476960D02*
X16086729Y-12467436D01*
X16296253Y-12486484D02*
X16334348Y-12486484D01*
X16334348Y-12486484D02*
X16353396Y-12476960D01*
X16353396Y-12476960D02*
X16362920Y-12467436D01*
X16362920Y-12467436D02*
X16381968Y-12438865D01*
X16381968Y-12438865D02*
X16391491Y-12400769D01*
X16391491Y-12400769D02*
X16391491Y-12324579D01*
X16391491Y-12324579D02*
X16381968Y-12305531D01*
X16381968Y-12305531D02*
X16372444Y-12296008D01*
X16372444Y-12296008D02*
X16353396Y-12286484D01*
X16353396Y-12286484D02*
X16315301Y-12286484D01*
X16315301Y-12286484D02*
X16296253Y-12296008D01*
X16296253Y-12296008D02*
X16286729Y-12305531D01*
X16286729Y-12305531D02*
X16277206Y-12324579D01*
X16277206Y-12324579D02*
X16277206Y-12372198D01*
X16277206Y-12372198D02*
X16286729Y-12391246D01*
X16286729Y-12391246D02*
X16296253Y-12400769D01*
X16296253Y-12400769D02*
X16315301Y-12410293D01*
X16315301Y-12410293D02*
X16353396Y-12410293D01*
X16353396Y-12410293D02*
X16372444Y-12400769D01*
X16372444Y-12400769D02*
X16381968Y-12391246D01*
X16381968Y-12391246D02*
X16391491Y-12372198D01*
X16629587Y-12486484D02*
X16629587Y-12286484D01*
X16715301Y-12486484D02*
X16715301Y-12381722D01*
X16715301Y-12381722D02*
X16705777Y-12362674D01*
X16705777Y-12362674D02*
X16686730Y-12353150D01*
X16686730Y-12353150D02*
X16658158Y-12353150D01*
X16658158Y-12353150D02*
X16639110Y-12362674D01*
X16639110Y-12362674D02*
X16629587Y-12372198D01*
X16839111Y-12486484D02*
X16820063Y-12476960D01*
X16820063Y-12476960D02*
X16810539Y-12467436D01*
X16810539Y-12467436D02*
X16801015Y-12448388D01*
X16801015Y-12448388D02*
X16801015Y-12391246D01*
X16801015Y-12391246D02*
X16810539Y-12372198D01*
X16810539Y-12372198D02*
X16820063Y-12362674D01*
X16820063Y-12362674D02*
X16839111Y-12353150D01*
X16839111Y-12353150D02*
X16867682Y-12353150D01*
X16867682Y-12353150D02*
X16886730Y-12362674D01*
X16886730Y-12362674D02*
X16896253Y-12372198D01*
X16896253Y-12372198D02*
X16905777Y-12391246D01*
X16905777Y-12391246D02*
X16905777Y-12448388D01*
X16905777Y-12448388D02*
X16896253Y-12467436D01*
X16896253Y-12467436D02*
X16886730Y-12476960D01*
X16886730Y-12476960D02*
X16867682Y-12486484D01*
X16867682Y-12486484D02*
X16839111Y-12486484D01*
X17020063Y-12486484D02*
X17001015Y-12476960D01*
X17001015Y-12476960D02*
X16991492Y-12457912D01*
X16991492Y-12457912D02*
X16991492Y-12286484D01*
X17172444Y-12476960D02*
X17153396Y-12486484D01*
X17153396Y-12486484D02*
X17115301Y-12486484D01*
X17115301Y-12486484D02*
X17096253Y-12476960D01*
X17096253Y-12476960D02*
X17086730Y-12457912D01*
X17086730Y-12457912D02*
X17086730Y-12381722D01*
X17086730Y-12381722D02*
X17096253Y-12362674D01*
X17096253Y-12362674D02*
X17115301Y-12353150D01*
X17115301Y-12353150D02*
X17153396Y-12353150D01*
X17153396Y-12353150D02*
X17172444Y-12362674D01*
X17172444Y-12362674D02*
X17181968Y-12381722D01*
X17181968Y-12381722D02*
X17181968Y-12400769D01*
X17181968Y-12400769D02*
X17086730Y-12419817D01*
X17258158Y-12476960D02*
X17277206Y-12486484D01*
X17277206Y-12486484D02*
X17315301Y-12486484D01*
X17315301Y-12486484D02*
X17334349Y-12476960D01*
X17334349Y-12476960D02*
X17343873Y-12457912D01*
X17343873Y-12457912D02*
X17343873Y-12448388D01*
X17343873Y-12448388D02*
X17334349Y-12429341D01*
X17334349Y-12429341D02*
X17315301Y-12419817D01*
X17315301Y-12419817D02*
X17286730Y-12419817D01*
X17286730Y-12419817D02*
X17267682Y-12410293D01*
X17267682Y-12410293D02*
X17258158Y-12391246D01*
X17258158Y-12391246D02*
X17258158Y-12381722D01*
X17258158Y-12381722D02*
X17267682Y-12362674D01*
X17267682Y-12362674D02*
X17286730Y-12353150D01*
X17286730Y-12353150D02*
X17315301Y-12353150D01*
X17315301Y-12353150D02*
X17334349Y-12362674D01*
X17410539Y-12562674D02*
X17420063Y-12553150D01*
X17420063Y-12553150D02*
X17439111Y-12524579D01*
X17439111Y-12524579D02*
X17448634Y-12505531D01*
X17448634Y-12505531D02*
X17458158Y-12476960D01*
X17458158Y-12476960D02*
X17467682Y-12429341D01*
X17467682Y-12429341D02*
X17467682Y-12391246D01*
X17467682Y-12391246D02*
X17458158Y-12343627D01*
X17458158Y-12343627D02*
X17448634Y-12315055D01*
X17448634Y-12315055D02*
X17439111Y-12296008D01*
X17439111Y-12296008D02*
X17420063Y-12267436D01*
X17420063Y-12267436D02*
X17410539Y-12257912D01*
D10*
X12445000Y-12659000D02*
G75*
G02*
X12380000Y-12659000I-32500J0D01*
G01*
X12380000Y-12659000D02*
G75*
G02*
X12445000Y-12659000I32500J0D01*
G01*
D11*
X12743872Y-12550484D02*
X12762920Y-12550484D01*
X12762920Y-12550484D02*
X12781967Y-12560008D01*
X12781967Y-12560008D02*
X12791491Y-12569531D01*
X12791491Y-12569531D02*
X12801015Y-12588579D01*
X12801015Y-12588579D02*
X12810539Y-12626674D01*
X12810539Y-12626674D02*
X12810539Y-12674293D01*
X12810539Y-12674293D02*
X12801015Y-12712388D01*
X12801015Y-12712388D02*
X12791491Y-12731436D01*
X12791491Y-12731436D02*
X12781967Y-12740960D01*
X12781967Y-12740960D02*
X12762920Y-12750484D01*
X12762920Y-12750484D02*
X12743872Y-12750484D01*
X12743872Y-12750484D02*
X12724824Y-12740960D01*
X12724824Y-12740960D02*
X12715301Y-12731436D01*
X12715301Y-12731436D02*
X12705777Y-12712388D01*
X12705777Y-12712388D02*
X12696253Y-12674293D01*
X12696253Y-12674293D02*
X12696253Y-12626674D01*
X12696253Y-12626674D02*
X12705777Y-12588579D01*
X12705777Y-12588579D02*
X12715301Y-12569531D01*
X12715301Y-12569531D02*
X12724824Y-12560008D01*
X12724824Y-12560008D02*
X12743872Y-12550484D01*
X12896253Y-12731436D02*
X12905777Y-12740960D01*
X12905777Y-12740960D02*
X12896253Y-12750484D01*
X12896253Y-12750484D02*
X12886729Y-12740960D01*
X12886729Y-12740960D02*
X12896253Y-12731436D01*
X12896253Y-12731436D02*
X12896253Y-12750484D01*
X13077205Y-12550484D02*
X13039110Y-12550484D01*
X13039110Y-12550484D02*
X13020062Y-12560008D01*
X13020062Y-12560008D02*
X13010539Y-12569531D01*
X13010539Y-12569531D02*
X12991491Y-12598103D01*
X12991491Y-12598103D02*
X12981967Y-12636198D01*
X12981967Y-12636198D02*
X12981967Y-12712388D01*
X12981967Y-12712388D02*
X12991491Y-12731436D01*
X12991491Y-12731436D02*
X13001015Y-12740960D01*
X13001015Y-12740960D02*
X13020062Y-12750484D01*
X13020062Y-12750484D02*
X13058158Y-12750484D01*
X13058158Y-12750484D02*
X13077205Y-12740960D01*
X13077205Y-12740960D02*
X13086729Y-12731436D01*
X13086729Y-12731436D02*
X13096253Y-12712388D01*
X13096253Y-12712388D02*
X13096253Y-12664769D01*
X13096253Y-12664769D02*
X13086729Y-12645722D01*
X13086729Y-12645722D02*
X13077205Y-12636198D01*
X13077205Y-12636198D02*
X13058158Y-12626674D01*
X13058158Y-12626674D02*
X13020062Y-12626674D01*
X13020062Y-12626674D02*
X13001015Y-12636198D01*
X13001015Y-12636198D02*
X12991491Y-12645722D01*
X12991491Y-12645722D02*
X12981967Y-12664769D01*
X13277205Y-12550484D02*
X13181967Y-12550484D01*
X13181967Y-12550484D02*
X13172443Y-12645722D01*
X13172443Y-12645722D02*
X13181967Y-12636198D01*
X13181967Y-12636198D02*
X13201015Y-12626674D01*
X13201015Y-12626674D02*
X13248634Y-12626674D01*
X13248634Y-12626674D02*
X13267682Y-12636198D01*
X13267682Y-12636198D02*
X13277205Y-12645722D01*
X13277205Y-12645722D02*
X13286729Y-12664769D01*
X13286729Y-12664769D02*
X13286729Y-12712388D01*
X13286729Y-12712388D02*
X13277205Y-12731436D01*
X13277205Y-12731436D02*
X13267682Y-12740960D01*
X13267682Y-12740960D02*
X13248634Y-12750484D01*
X13248634Y-12750484D02*
X13201015Y-12750484D01*
X13201015Y-12750484D02*
X13181967Y-12740960D01*
X13181967Y-12740960D02*
X13172443Y-12731436D01*
X13410539Y-12550484D02*
X13429586Y-12550484D01*
X13429586Y-12550484D02*
X13448634Y-12560008D01*
X13448634Y-12560008D02*
X13458158Y-12569531D01*
X13458158Y-12569531D02*
X13467682Y-12588579D01*
X13467682Y-12588579D02*
X13477205Y-12626674D01*
X13477205Y-12626674D02*
X13477205Y-12674293D01*
X13477205Y-12674293D02*
X13467682Y-12712388D01*
X13467682Y-12712388D02*
X13458158Y-12731436D01*
X13458158Y-12731436D02*
X13448634Y-12740960D01*
X13448634Y-12740960D02*
X13429586Y-12750484D01*
X13429586Y-12750484D02*
X13410539Y-12750484D01*
X13410539Y-12750484D02*
X13391491Y-12740960D01*
X13391491Y-12740960D02*
X13381967Y-12731436D01*
X13381967Y-12731436D02*
X13372443Y-12712388D01*
X13372443Y-12712388D02*
X13362920Y-12674293D01*
X13362920Y-12674293D02*
X13362920Y-12626674D01*
X13362920Y-12626674D02*
X13372443Y-12588579D01*
X13372443Y-12588579D02*
X13381967Y-12569531D01*
X13381967Y-12569531D02*
X13391491Y-12560008D01*
X13391491Y-12560008D02*
X13410539Y-12550484D01*
X13562920Y-12750484D02*
X13562920Y-12617150D01*
X13562920Y-12636198D02*
X13572443Y-12626674D01*
X13572443Y-12626674D02*
X13591491Y-12617150D01*
X13591491Y-12617150D02*
X13620063Y-12617150D01*
X13620063Y-12617150D02*
X13639110Y-12626674D01*
X13639110Y-12626674D02*
X13648634Y-12645722D01*
X13648634Y-12645722D02*
X13648634Y-12750484D01*
X13648634Y-12645722D02*
X13658158Y-12626674D01*
X13658158Y-12626674D02*
X13677205Y-12617150D01*
X13677205Y-12617150D02*
X13705777Y-12617150D01*
X13705777Y-12617150D02*
X13724824Y-12626674D01*
X13724824Y-12626674D02*
X13734348Y-12645722D01*
X13734348Y-12645722D02*
X13734348Y-12750484D01*
X13829586Y-12750484D02*
X13829586Y-12617150D01*
X13829586Y-12636198D02*
X13839110Y-12626674D01*
X13839110Y-12626674D02*
X13858158Y-12617150D01*
X13858158Y-12617150D02*
X13886729Y-12617150D01*
X13886729Y-12617150D02*
X13905777Y-12626674D01*
X13905777Y-12626674D02*
X13915301Y-12645722D01*
X13915301Y-12645722D02*
X13915301Y-12750484D01*
X13915301Y-12645722D02*
X13924824Y-12626674D01*
X13924824Y-12626674D02*
X13943872Y-12617150D01*
X13943872Y-12617150D02*
X13972443Y-12617150D01*
X13972443Y-12617150D02*
X13991491Y-12626674D01*
X13991491Y-12626674D02*
X14001015Y-12645722D01*
X14001015Y-12645722D02*
X14001015Y-12750484D01*
X14391491Y-12540960D02*
X14220063Y-12798103D01*
X14648634Y-12550484D02*
X14667682Y-12550484D01*
X14667682Y-12550484D02*
X14686729Y-12560008D01*
X14686729Y-12560008D02*
X14696253Y-12569531D01*
X14696253Y-12569531D02*
X14705777Y-12588579D01*
X14705777Y-12588579D02*
X14715301Y-12626674D01*
X14715301Y-12626674D02*
X14715301Y-12674293D01*
X14715301Y-12674293D02*
X14705777Y-12712388D01*
X14705777Y-12712388D02*
X14696253Y-12731436D01*
X14696253Y-12731436D02*
X14686729Y-12740960D01*
X14686729Y-12740960D02*
X14667682Y-12750484D01*
X14667682Y-12750484D02*
X14648634Y-12750484D01*
X14648634Y-12750484D02*
X14629586Y-12740960D01*
X14629586Y-12740960D02*
X14620063Y-12731436D01*
X14620063Y-12731436D02*
X14610539Y-12712388D01*
X14610539Y-12712388D02*
X14601015Y-12674293D01*
X14601015Y-12674293D02*
X14601015Y-12626674D01*
X14601015Y-12626674D02*
X14610539Y-12588579D01*
X14610539Y-12588579D02*
X14620063Y-12569531D01*
X14620063Y-12569531D02*
X14629586Y-12560008D01*
X14629586Y-12560008D02*
X14648634Y-12550484D01*
X14801015Y-12731436D02*
X14810539Y-12740960D01*
X14810539Y-12740960D02*
X14801015Y-12750484D01*
X14801015Y-12750484D02*
X14791491Y-12740960D01*
X14791491Y-12740960D02*
X14801015Y-12731436D01*
X14801015Y-12731436D02*
X14801015Y-12750484D01*
X14934348Y-12550484D02*
X14953396Y-12550484D01*
X14953396Y-12550484D02*
X14972444Y-12560008D01*
X14972444Y-12560008D02*
X14981967Y-12569531D01*
X14981967Y-12569531D02*
X14991491Y-12588579D01*
X14991491Y-12588579D02*
X15001015Y-12626674D01*
X15001015Y-12626674D02*
X15001015Y-12674293D01*
X15001015Y-12674293D02*
X14991491Y-12712388D01*
X14991491Y-12712388D02*
X14981967Y-12731436D01*
X14981967Y-12731436D02*
X14972444Y-12740960D01*
X14972444Y-12740960D02*
X14953396Y-12750484D01*
X14953396Y-12750484D02*
X14934348Y-12750484D01*
X14934348Y-12750484D02*
X14915301Y-12740960D01*
X14915301Y-12740960D02*
X14905777Y-12731436D01*
X14905777Y-12731436D02*
X14896253Y-12712388D01*
X14896253Y-12712388D02*
X14886729Y-12674293D01*
X14886729Y-12674293D02*
X14886729Y-12626674D01*
X14886729Y-12626674D02*
X14896253Y-12588579D01*
X14896253Y-12588579D02*
X14905777Y-12569531D01*
X14905777Y-12569531D02*
X14915301Y-12560008D01*
X14915301Y-12560008D02*
X14934348Y-12550484D01*
X15077206Y-12569531D02*
X15086729Y-12560008D01*
X15086729Y-12560008D02*
X15105777Y-12550484D01*
X15105777Y-12550484D02*
X15153396Y-12550484D01*
X15153396Y-12550484D02*
X15172444Y-12560008D01*
X15172444Y-12560008D02*
X15181967Y-12569531D01*
X15181967Y-12569531D02*
X15191491Y-12588579D01*
X15191491Y-12588579D02*
X15191491Y-12607627D01*
X15191491Y-12607627D02*
X15181967Y-12636198D01*
X15181967Y-12636198D02*
X15067682Y-12750484D01*
X15067682Y-12750484D02*
X15191491Y-12750484D01*
X15372444Y-12550484D02*
X15277206Y-12550484D01*
X15277206Y-12550484D02*
X15267682Y-12645722D01*
X15267682Y-12645722D02*
X15277206Y-12636198D01*
X15277206Y-12636198D02*
X15296253Y-12626674D01*
X15296253Y-12626674D02*
X15343872Y-12626674D01*
X15343872Y-12626674D02*
X15362920Y-12636198D01*
X15362920Y-12636198D02*
X15372444Y-12645722D01*
X15372444Y-12645722D02*
X15381967Y-12664769D01*
X15381967Y-12664769D02*
X15381967Y-12712388D01*
X15381967Y-12712388D02*
X15372444Y-12731436D01*
X15372444Y-12731436D02*
X15362920Y-12740960D01*
X15362920Y-12740960D02*
X15343872Y-12750484D01*
X15343872Y-12750484D02*
X15296253Y-12750484D01*
X15296253Y-12750484D02*
X15277206Y-12740960D01*
X15277206Y-12740960D02*
X15267682Y-12731436D01*
X15553396Y-12550484D02*
X15515301Y-12550484D01*
X15515301Y-12550484D02*
X15496253Y-12560008D01*
X15496253Y-12560008D02*
X15486729Y-12569531D01*
X15486729Y-12569531D02*
X15467682Y-12598103D01*
X15467682Y-12598103D02*
X15458158Y-12636198D01*
X15458158Y-12636198D02*
X15458158Y-12712388D01*
X15458158Y-12712388D02*
X15467682Y-12731436D01*
X15467682Y-12731436D02*
X15477206Y-12740960D01*
X15477206Y-12740960D02*
X15496253Y-12750484D01*
X15496253Y-12750484D02*
X15534348Y-12750484D01*
X15534348Y-12750484D02*
X15553396Y-12740960D01*
X15553396Y-12740960D02*
X15562920Y-12731436D01*
X15562920Y-12731436D02*
X15572444Y-12712388D01*
X15572444Y-12712388D02*
X15572444Y-12664769D01*
X15572444Y-12664769D02*
X15562920Y-12645722D01*
X15562920Y-12645722D02*
X15553396Y-12636198D01*
X15553396Y-12636198D02*
X15534348Y-12626674D01*
X15534348Y-12626674D02*
X15496253Y-12626674D01*
X15496253Y-12626674D02*
X15477206Y-12636198D01*
X15477206Y-12636198D02*
X15467682Y-12645722D01*
X15467682Y-12645722D02*
X15458158Y-12664769D01*
X15648634Y-12550484D02*
X15648634Y-12588579D01*
X15724825Y-12550484D02*
X15724825Y-12588579D01*
X16020063Y-12826674D02*
X16010539Y-12817150D01*
X16010539Y-12817150D02*
X15991491Y-12788579D01*
X15991491Y-12788579D02*
X15981968Y-12769531D01*
X15981968Y-12769531D02*
X15972444Y-12740960D01*
X15972444Y-12740960D02*
X15962920Y-12693341D01*
X15962920Y-12693341D02*
X15962920Y-12655246D01*
X15962920Y-12655246D02*
X15972444Y-12607627D01*
X15972444Y-12607627D02*
X15981968Y-12579055D01*
X15981968Y-12579055D02*
X15991491Y-12560008D01*
X15991491Y-12560008D02*
X16010539Y-12531436D01*
X16010539Y-12531436D02*
X16020063Y-12521912D01*
X16181968Y-12550484D02*
X16143872Y-12550484D01*
X16143872Y-12550484D02*
X16124825Y-12560008D01*
X16124825Y-12560008D02*
X16115301Y-12569531D01*
X16115301Y-12569531D02*
X16096253Y-12598103D01*
X16096253Y-12598103D02*
X16086729Y-12636198D01*
X16086729Y-12636198D02*
X16086729Y-12712388D01*
X16086729Y-12712388D02*
X16096253Y-12731436D01*
X16096253Y-12731436D02*
X16105777Y-12740960D01*
X16105777Y-12740960D02*
X16124825Y-12750484D01*
X16124825Y-12750484D02*
X16162920Y-12750484D01*
X16162920Y-12750484D02*
X16181968Y-12740960D01*
X16181968Y-12740960D02*
X16191491Y-12731436D01*
X16191491Y-12731436D02*
X16201015Y-12712388D01*
X16201015Y-12712388D02*
X16201015Y-12664769D01*
X16201015Y-12664769D02*
X16191491Y-12645722D01*
X16191491Y-12645722D02*
X16181968Y-12636198D01*
X16181968Y-12636198D02*
X16162920Y-12626674D01*
X16162920Y-12626674D02*
X16124825Y-12626674D01*
X16124825Y-12626674D02*
X16105777Y-12636198D01*
X16105777Y-12636198D02*
X16096253Y-12645722D01*
X16096253Y-12645722D02*
X16086729Y-12664769D01*
X16439110Y-12750484D02*
X16439110Y-12550484D01*
X16524825Y-12750484D02*
X16524825Y-12645722D01*
X16524825Y-12645722D02*
X16515301Y-12626674D01*
X16515301Y-12626674D02*
X16496253Y-12617150D01*
X16496253Y-12617150D02*
X16467682Y-12617150D01*
X16467682Y-12617150D02*
X16448634Y-12626674D01*
X16448634Y-12626674D02*
X16439110Y-12636198D01*
X16648634Y-12750484D02*
X16629587Y-12740960D01*
X16629587Y-12740960D02*
X16620063Y-12731436D01*
X16620063Y-12731436D02*
X16610539Y-12712388D01*
X16610539Y-12712388D02*
X16610539Y-12655246D01*
X16610539Y-12655246D02*
X16620063Y-12636198D01*
X16620063Y-12636198D02*
X16629587Y-12626674D01*
X16629587Y-12626674D02*
X16648634Y-12617150D01*
X16648634Y-12617150D02*
X16677206Y-12617150D01*
X16677206Y-12617150D02*
X16696253Y-12626674D01*
X16696253Y-12626674D02*
X16705777Y-12636198D01*
X16705777Y-12636198D02*
X16715301Y-12655246D01*
X16715301Y-12655246D02*
X16715301Y-12712388D01*
X16715301Y-12712388D02*
X16705777Y-12731436D01*
X16705777Y-12731436D02*
X16696253Y-12740960D01*
X16696253Y-12740960D02*
X16677206Y-12750484D01*
X16677206Y-12750484D02*
X16648634Y-12750484D01*
X16829587Y-12750484D02*
X16810539Y-12740960D01*
X16810539Y-12740960D02*
X16801015Y-12721912D01*
X16801015Y-12721912D02*
X16801015Y-12550484D01*
X16981968Y-12740960D02*
X16962920Y-12750484D01*
X16962920Y-12750484D02*
X16924825Y-12750484D01*
X16924825Y-12750484D02*
X16905777Y-12740960D01*
X16905777Y-12740960D02*
X16896253Y-12721912D01*
X16896253Y-12721912D02*
X16896253Y-12645722D01*
X16896253Y-12645722D02*
X16905777Y-12626674D01*
X16905777Y-12626674D02*
X16924825Y-12617150D01*
X16924825Y-12617150D02*
X16962920Y-12617150D01*
X16962920Y-12617150D02*
X16981968Y-12626674D01*
X16981968Y-12626674D02*
X16991492Y-12645722D01*
X16991492Y-12645722D02*
X16991492Y-12664769D01*
X16991492Y-12664769D02*
X16896253Y-12683817D01*
X17067682Y-12740960D02*
X17086730Y-12750484D01*
X17086730Y-12750484D02*
X17124825Y-12750484D01*
X17124825Y-12750484D02*
X17143873Y-12740960D01*
X17143873Y-12740960D02*
X17153396Y-12721912D01*
X17153396Y-12721912D02*
X17153396Y-12712388D01*
X17153396Y-12712388D02*
X17143873Y-12693341D01*
X17143873Y-12693341D02*
X17124825Y-12683817D01*
X17124825Y-12683817D02*
X17096253Y-12683817D01*
X17096253Y-12683817D02*
X17077206Y-12674293D01*
X17077206Y-12674293D02*
X17067682Y-12655246D01*
X17067682Y-12655246D02*
X17067682Y-12645722D01*
X17067682Y-12645722D02*
X17077206Y-12626674D01*
X17077206Y-12626674D02*
X17096253Y-12617150D01*
X17096253Y-12617150D02*
X17124825Y-12617150D01*
X17124825Y-12617150D02*
X17143873Y-12626674D01*
X17220063Y-12826674D02*
X17229587Y-12817150D01*
X17229587Y-12817150D02*
X17248634Y-12788579D01*
X17248634Y-12788579D02*
X17258158Y-12769531D01*
X17258158Y-12769531D02*
X17267682Y-12740960D01*
X17267682Y-12740960D02*
X17277206Y-12693341D01*
X17277206Y-12693341D02*
X17277206Y-12655246D01*
X17277206Y-12655246D02*
X17267682Y-12607627D01*
X17267682Y-12607627D02*
X17258158Y-12579055D01*
X17258158Y-12579055D02*
X17248634Y-12560008D01*
X17248634Y-12560008D02*
X17229587Y-12531436D01*
X17229587Y-12531436D02*
X17220063Y-12521912D01*
D10*
X12410000Y-12888000D02*
X12410000Y-12958000D01*
X12375000Y-12923000D02*
X12445000Y-12923000D01*
D11*
X12743872Y-12814484D02*
X12762920Y-12814484D01*
X12762920Y-12814484D02*
X12781967Y-12824008D01*
X12781967Y-12824008D02*
X12791491Y-12833531D01*
X12791491Y-12833531D02*
X12801015Y-12852579D01*
X12801015Y-12852579D02*
X12810539Y-12890674D01*
X12810539Y-12890674D02*
X12810539Y-12938293D01*
X12810539Y-12938293D02*
X12801015Y-12976388D01*
X12801015Y-12976388D02*
X12791491Y-12995436D01*
X12791491Y-12995436D02*
X12781967Y-13004960D01*
X12781967Y-13004960D02*
X12762920Y-13014484D01*
X12762920Y-13014484D02*
X12743872Y-13014484D01*
X12743872Y-13014484D02*
X12724824Y-13004960D01*
X12724824Y-13004960D02*
X12715301Y-12995436D01*
X12715301Y-12995436D02*
X12705777Y-12976388D01*
X12705777Y-12976388D02*
X12696253Y-12938293D01*
X12696253Y-12938293D02*
X12696253Y-12890674D01*
X12696253Y-12890674D02*
X12705777Y-12852579D01*
X12705777Y-12852579D02*
X12715301Y-12833531D01*
X12715301Y-12833531D02*
X12724824Y-12824008D01*
X12724824Y-12824008D02*
X12743872Y-12814484D01*
X12896253Y-12995436D02*
X12905777Y-13004960D01*
X12905777Y-13004960D02*
X12896253Y-13014484D01*
X12896253Y-13014484D02*
X12886729Y-13004960D01*
X12886729Y-13004960D02*
X12896253Y-12995436D01*
X12896253Y-12995436D02*
X12896253Y-13014484D01*
X12972443Y-12814484D02*
X13105777Y-12814484D01*
X13105777Y-12814484D02*
X13020062Y-13014484D01*
X13220062Y-12814484D02*
X13239110Y-12814484D01*
X13239110Y-12814484D02*
X13258158Y-12824008D01*
X13258158Y-12824008D02*
X13267682Y-12833531D01*
X13267682Y-12833531D02*
X13277205Y-12852579D01*
X13277205Y-12852579D02*
X13286729Y-12890674D01*
X13286729Y-12890674D02*
X13286729Y-12938293D01*
X13286729Y-12938293D02*
X13277205Y-12976388D01*
X13277205Y-12976388D02*
X13267682Y-12995436D01*
X13267682Y-12995436D02*
X13258158Y-13004960D01*
X13258158Y-13004960D02*
X13239110Y-13014484D01*
X13239110Y-13014484D02*
X13220062Y-13014484D01*
X13220062Y-13014484D02*
X13201015Y-13004960D01*
X13201015Y-13004960D02*
X13191491Y-12995436D01*
X13191491Y-12995436D02*
X13181967Y-12976388D01*
X13181967Y-12976388D02*
X13172443Y-12938293D01*
X13172443Y-12938293D02*
X13172443Y-12890674D01*
X13172443Y-12890674D02*
X13181967Y-12852579D01*
X13181967Y-12852579D02*
X13191491Y-12833531D01*
X13191491Y-12833531D02*
X13201015Y-12824008D01*
X13201015Y-12824008D02*
X13220062Y-12814484D01*
X13410539Y-12814484D02*
X13429586Y-12814484D01*
X13429586Y-12814484D02*
X13448634Y-12824008D01*
X13448634Y-12824008D02*
X13458158Y-12833531D01*
X13458158Y-12833531D02*
X13467682Y-12852579D01*
X13467682Y-12852579D02*
X13477205Y-12890674D01*
X13477205Y-12890674D02*
X13477205Y-12938293D01*
X13477205Y-12938293D02*
X13467682Y-12976388D01*
X13467682Y-12976388D02*
X13458158Y-12995436D01*
X13458158Y-12995436D02*
X13448634Y-13004960D01*
X13448634Y-13004960D02*
X13429586Y-13014484D01*
X13429586Y-13014484D02*
X13410539Y-13014484D01*
X13410539Y-13014484D02*
X13391491Y-13004960D01*
X13391491Y-13004960D02*
X13381967Y-12995436D01*
X13381967Y-12995436D02*
X13372443Y-12976388D01*
X13372443Y-12976388D02*
X13362920Y-12938293D01*
X13362920Y-12938293D02*
X13362920Y-12890674D01*
X13362920Y-12890674D02*
X13372443Y-12852579D01*
X13372443Y-12852579D02*
X13381967Y-12833531D01*
X13381967Y-12833531D02*
X13391491Y-12824008D01*
X13391491Y-12824008D02*
X13410539Y-12814484D01*
X13562920Y-13014484D02*
X13562920Y-12881150D01*
X13562920Y-12900198D02*
X13572443Y-12890674D01*
X13572443Y-12890674D02*
X13591491Y-12881150D01*
X13591491Y-12881150D02*
X13620063Y-12881150D01*
X13620063Y-12881150D02*
X13639110Y-12890674D01*
X13639110Y-12890674D02*
X13648634Y-12909722D01*
X13648634Y-12909722D02*
X13648634Y-13014484D01*
X13648634Y-12909722D02*
X13658158Y-12890674D01*
X13658158Y-12890674D02*
X13677205Y-12881150D01*
X13677205Y-12881150D02*
X13705777Y-12881150D01*
X13705777Y-12881150D02*
X13724824Y-12890674D01*
X13724824Y-12890674D02*
X13734348Y-12909722D01*
X13734348Y-12909722D02*
X13734348Y-13014484D01*
X13829586Y-13014484D02*
X13829586Y-12881150D01*
X13829586Y-12900198D02*
X13839110Y-12890674D01*
X13839110Y-12890674D02*
X13858158Y-12881150D01*
X13858158Y-12881150D02*
X13886729Y-12881150D01*
X13886729Y-12881150D02*
X13905777Y-12890674D01*
X13905777Y-12890674D02*
X13915301Y-12909722D01*
X13915301Y-12909722D02*
X13915301Y-13014484D01*
X13915301Y-12909722D02*
X13924824Y-12890674D01*
X13924824Y-12890674D02*
X13943872Y-12881150D01*
X13943872Y-12881150D02*
X13972443Y-12881150D01*
X13972443Y-12881150D02*
X13991491Y-12890674D01*
X13991491Y-12890674D02*
X14001015Y-12909722D01*
X14001015Y-12909722D02*
X14001015Y-13014484D01*
X14391491Y-12804960D02*
X14220063Y-13062103D01*
X14648634Y-12814484D02*
X14667682Y-12814484D01*
X14667682Y-12814484D02*
X14686729Y-12824008D01*
X14686729Y-12824008D02*
X14696253Y-12833531D01*
X14696253Y-12833531D02*
X14705777Y-12852579D01*
X14705777Y-12852579D02*
X14715301Y-12890674D01*
X14715301Y-12890674D02*
X14715301Y-12938293D01*
X14715301Y-12938293D02*
X14705777Y-12976388D01*
X14705777Y-12976388D02*
X14696253Y-12995436D01*
X14696253Y-12995436D02*
X14686729Y-13004960D01*
X14686729Y-13004960D02*
X14667682Y-13014484D01*
X14667682Y-13014484D02*
X14648634Y-13014484D01*
X14648634Y-13014484D02*
X14629586Y-13004960D01*
X14629586Y-13004960D02*
X14620063Y-12995436D01*
X14620063Y-12995436D02*
X14610539Y-12976388D01*
X14610539Y-12976388D02*
X14601015Y-12938293D01*
X14601015Y-12938293D02*
X14601015Y-12890674D01*
X14601015Y-12890674D02*
X14610539Y-12852579D01*
X14610539Y-12852579D02*
X14620063Y-12833531D01*
X14620063Y-12833531D02*
X14629586Y-12824008D01*
X14629586Y-12824008D02*
X14648634Y-12814484D01*
X14801015Y-12995436D02*
X14810539Y-13004960D01*
X14810539Y-13004960D02*
X14801015Y-13014484D01*
X14801015Y-13014484D02*
X14791491Y-13004960D01*
X14791491Y-13004960D02*
X14801015Y-12995436D01*
X14801015Y-12995436D02*
X14801015Y-13014484D01*
X14934348Y-12814484D02*
X14953396Y-12814484D01*
X14953396Y-12814484D02*
X14972444Y-12824008D01*
X14972444Y-12824008D02*
X14981967Y-12833531D01*
X14981967Y-12833531D02*
X14991491Y-12852579D01*
X14991491Y-12852579D02*
X15001015Y-12890674D01*
X15001015Y-12890674D02*
X15001015Y-12938293D01*
X15001015Y-12938293D02*
X14991491Y-12976388D01*
X14991491Y-12976388D02*
X14981967Y-12995436D01*
X14981967Y-12995436D02*
X14972444Y-13004960D01*
X14972444Y-13004960D02*
X14953396Y-13014484D01*
X14953396Y-13014484D02*
X14934348Y-13014484D01*
X14934348Y-13014484D02*
X14915301Y-13004960D01*
X14915301Y-13004960D02*
X14905777Y-12995436D01*
X14905777Y-12995436D02*
X14896253Y-12976388D01*
X14896253Y-12976388D02*
X14886729Y-12938293D01*
X14886729Y-12938293D02*
X14886729Y-12890674D01*
X14886729Y-12890674D02*
X14896253Y-12852579D01*
X14896253Y-12852579D02*
X14905777Y-12833531D01*
X14905777Y-12833531D02*
X14915301Y-12824008D01*
X14915301Y-12824008D02*
X14934348Y-12814484D01*
X15077206Y-12833531D02*
X15086729Y-12824008D01*
X15086729Y-12824008D02*
X15105777Y-12814484D01*
X15105777Y-12814484D02*
X15153396Y-12814484D01*
X15153396Y-12814484D02*
X15172444Y-12824008D01*
X15172444Y-12824008D02*
X15181967Y-12833531D01*
X15181967Y-12833531D02*
X15191491Y-12852579D01*
X15191491Y-12852579D02*
X15191491Y-12871627D01*
X15191491Y-12871627D02*
X15181967Y-12900198D01*
X15181967Y-12900198D02*
X15067682Y-13014484D01*
X15067682Y-13014484D02*
X15191491Y-13014484D01*
X15258158Y-12814484D02*
X15391491Y-12814484D01*
X15391491Y-12814484D02*
X15305777Y-13014484D01*
X15553396Y-12814484D02*
X15515301Y-12814484D01*
X15515301Y-12814484D02*
X15496253Y-12824008D01*
X15496253Y-12824008D02*
X15486729Y-12833531D01*
X15486729Y-12833531D02*
X15467682Y-12862103D01*
X15467682Y-12862103D02*
X15458158Y-12900198D01*
X15458158Y-12900198D02*
X15458158Y-12976388D01*
X15458158Y-12976388D02*
X15467682Y-12995436D01*
X15467682Y-12995436D02*
X15477206Y-13004960D01*
X15477206Y-13004960D02*
X15496253Y-13014484D01*
X15496253Y-13014484D02*
X15534348Y-13014484D01*
X15534348Y-13014484D02*
X15553396Y-13004960D01*
X15553396Y-13004960D02*
X15562920Y-12995436D01*
X15562920Y-12995436D02*
X15572444Y-12976388D01*
X15572444Y-12976388D02*
X15572444Y-12928769D01*
X15572444Y-12928769D02*
X15562920Y-12909722D01*
X15562920Y-12909722D02*
X15553396Y-12900198D01*
X15553396Y-12900198D02*
X15534348Y-12890674D01*
X15534348Y-12890674D02*
X15496253Y-12890674D01*
X15496253Y-12890674D02*
X15477206Y-12900198D01*
X15477206Y-12900198D02*
X15467682Y-12909722D01*
X15467682Y-12909722D02*
X15458158Y-12928769D01*
X15648634Y-12814484D02*
X15648634Y-12852579D01*
X15724825Y-12814484D02*
X15724825Y-12852579D01*
X16020063Y-13090674D02*
X16010539Y-13081150D01*
X16010539Y-13081150D02*
X15991491Y-13052579D01*
X15991491Y-13052579D02*
X15981968Y-13033531D01*
X15981968Y-13033531D02*
X15972444Y-13004960D01*
X15972444Y-13004960D02*
X15962920Y-12957341D01*
X15962920Y-12957341D02*
X15962920Y-12919246D01*
X15962920Y-12919246D02*
X15972444Y-12871627D01*
X15972444Y-12871627D02*
X15981968Y-12843055D01*
X15981968Y-12843055D02*
X15991491Y-12824008D01*
X15991491Y-12824008D02*
X16010539Y-12795436D01*
X16010539Y-12795436D02*
X16020063Y-12785912D01*
X16181968Y-12881150D02*
X16181968Y-13014484D01*
X16134348Y-12804960D02*
X16086729Y-12947817D01*
X16086729Y-12947817D02*
X16210539Y-12947817D01*
X16324825Y-12814484D02*
X16343872Y-12814484D01*
X16343872Y-12814484D02*
X16362920Y-12824008D01*
X16362920Y-12824008D02*
X16372444Y-12833531D01*
X16372444Y-12833531D02*
X16381968Y-12852579D01*
X16381968Y-12852579D02*
X16391491Y-12890674D01*
X16391491Y-12890674D02*
X16391491Y-12938293D01*
X16391491Y-12938293D02*
X16381968Y-12976388D01*
X16381968Y-12976388D02*
X16372444Y-12995436D01*
X16372444Y-12995436D02*
X16362920Y-13004960D01*
X16362920Y-13004960D02*
X16343872Y-13014484D01*
X16343872Y-13014484D02*
X16324825Y-13014484D01*
X16324825Y-13014484D02*
X16305777Y-13004960D01*
X16305777Y-13004960D02*
X16296253Y-12995436D01*
X16296253Y-12995436D02*
X16286729Y-12976388D01*
X16286729Y-12976388D02*
X16277206Y-12938293D01*
X16277206Y-12938293D02*
X16277206Y-12890674D01*
X16277206Y-12890674D02*
X16286729Y-12852579D01*
X16286729Y-12852579D02*
X16296253Y-12833531D01*
X16296253Y-12833531D02*
X16305777Y-12824008D01*
X16305777Y-12824008D02*
X16324825Y-12814484D01*
X16629587Y-13014484D02*
X16629587Y-12814484D01*
X16715301Y-13014484D02*
X16715301Y-12909722D01*
X16715301Y-12909722D02*
X16705777Y-12890674D01*
X16705777Y-12890674D02*
X16686730Y-12881150D01*
X16686730Y-12881150D02*
X16658158Y-12881150D01*
X16658158Y-12881150D02*
X16639110Y-12890674D01*
X16639110Y-12890674D02*
X16629587Y-12900198D01*
X16839111Y-13014484D02*
X16820063Y-13004960D01*
X16820063Y-13004960D02*
X16810539Y-12995436D01*
X16810539Y-12995436D02*
X16801015Y-12976388D01*
X16801015Y-12976388D02*
X16801015Y-12919246D01*
X16801015Y-12919246D02*
X16810539Y-12900198D01*
X16810539Y-12900198D02*
X16820063Y-12890674D01*
X16820063Y-12890674D02*
X16839111Y-12881150D01*
X16839111Y-12881150D02*
X16867682Y-12881150D01*
X16867682Y-12881150D02*
X16886730Y-12890674D01*
X16886730Y-12890674D02*
X16896253Y-12900198D01*
X16896253Y-12900198D02*
X16905777Y-12919246D01*
X16905777Y-12919246D02*
X16905777Y-12976388D01*
X16905777Y-12976388D02*
X16896253Y-12995436D01*
X16896253Y-12995436D02*
X16886730Y-13004960D01*
X16886730Y-13004960D02*
X16867682Y-13014484D01*
X16867682Y-13014484D02*
X16839111Y-13014484D01*
X17020063Y-13014484D02*
X17001015Y-13004960D01*
X17001015Y-13004960D02*
X16991492Y-12985912D01*
X16991492Y-12985912D02*
X16991492Y-12814484D01*
X17172444Y-13004960D02*
X17153396Y-13014484D01*
X17153396Y-13014484D02*
X17115301Y-13014484D01*
X17115301Y-13014484D02*
X17096253Y-13004960D01*
X17096253Y-13004960D02*
X17086730Y-12985912D01*
X17086730Y-12985912D02*
X17086730Y-12909722D01*
X17086730Y-12909722D02*
X17096253Y-12890674D01*
X17096253Y-12890674D02*
X17115301Y-12881150D01*
X17115301Y-12881150D02*
X17153396Y-12881150D01*
X17153396Y-12881150D02*
X17172444Y-12890674D01*
X17172444Y-12890674D02*
X17181968Y-12909722D01*
X17181968Y-12909722D02*
X17181968Y-12928769D01*
X17181968Y-12928769D02*
X17086730Y-12947817D01*
X17258158Y-13004960D02*
X17277206Y-13014484D01*
X17277206Y-13014484D02*
X17315301Y-13014484D01*
X17315301Y-13014484D02*
X17334349Y-13004960D01*
X17334349Y-13004960D02*
X17343873Y-12985912D01*
X17343873Y-12985912D02*
X17343873Y-12976388D01*
X17343873Y-12976388D02*
X17334349Y-12957341D01*
X17334349Y-12957341D02*
X17315301Y-12947817D01*
X17315301Y-12947817D02*
X17286730Y-12947817D01*
X17286730Y-12947817D02*
X17267682Y-12938293D01*
X17267682Y-12938293D02*
X17258158Y-12919246D01*
X17258158Y-12919246D02*
X17258158Y-12909722D01*
X17258158Y-12909722D02*
X17267682Y-12890674D01*
X17267682Y-12890674D02*
X17286730Y-12881150D01*
X17286730Y-12881150D02*
X17315301Y-12881150D01*
X17315301Y-12881150D02*
X17334349Y-12890674D01*
X17410539Y-13090674D02*
X17420063Y-13081150D01*
X17420063Y-13081150D02*
X17439111Y-13052579D01*
X17439111Y-13052579D02*
X17448634Y-13033531D01*
X17448634Y-13033531D02*
X17458158Y-13004960D01*
X17458158Y-13004960D02*
X17467682Y-12957341D01*
X17467682Y-12957341D02*
X17467682Y-12919246D01*
X17467682Y-12919246D02*
X17458158Y-12871627D01*
X17458158Y-12871627D02*
X17448634Y-12843055D01*
X17448634Y-12843055D02*
X17439111Y-12824008D01*
X17439111Y-12824008D02*
X17420063Y-12795436D01*
X17420063Y-12795436D02*
X17410539Y-12785912D01*
D10*
X12433284Y-13215284D02*
X12433284Y-13158715D01*
X12376715Y-13158715D01*
X12376715Y-13215284D01*
X12433284Y-13215284D01*
D11*
X12743872Y-13078484D02*
X12762920Y-13078484D01*
X12762920Y-13078484D02*
X12781967Y-13088008D01*
X12781967Y-13088008D02*
X12791491Y-13097531D01*
X12791491Y-13097531D02*
X12801015Y-13116579D01*
X12801015Y-13116579D02*
X12810539Y-13154674D01*
X12810539Y-13154674D02*
X12810539Y-13202293D01*
X12810539Y-13202293D02*
X12801015Y-13240388D01*
X12801015Y-13240388D02*
X12791491Y-13259436D01*
X12791491Y-13259436D02*
X12781967Y-13268960D01*
X12781967Y-13268960D02*
X12762920Y-13278484D01*
X12762920Y-13278484D02*
X12743872Y-13278484D01*
X12743872Y-13278484D02*
X12724824Y-13268960D01*
X12724824Y-13268960D02*
X12715301Y-13259436D01*
X12715301Y-13259436D02*
X12705777Y-13240388D01*
X12705777Y-13240388D02*
X12696253Y-13202293D01*
X12696253Y-13202293D02*
X12696253Y-13154674D01*
X12696253Y-13154674D02*
X12705777Y-13116579D01*
X12705777Y-13116579D02*
X12715301Y-13097531D01*
X12715301Y-13097531D02*
X12724824Y-13088008D01*
X12724824Y-13088008D02*
X12743872Y-13078484D01*
X12896253Y-13259436D02*
X12905777Y-13268960D01*
X12905777Y-13268960D02*
X12896253Y-13278484D01*
X12896253Y-13278484D02*
X12886729Y-13268960D01*
X12886729Y-13268960D02*
X12896253Y-13259436D01*
X12896253Y-13259436D02*
X12896253Y-13278484D01*
X13020062Y-13164198D02*
X13001015Y-13154674D01*
X13001015Y-13154674D02*
X12991491Y-13145150D01*
X12991491Y-13145150D02*
X12981967Y-13126103D01*
X12981967Y-13126103D02*
X12981967Y-13116579D01*
X12981967Y-13116579D02*
X12991491Y-13097531D01*
X12991491Y-13097531D02*
X13001015Y-13088008D01*
X13001015Y-13088008D02*
X13020062Y-13078484D01*
X13020062Y-13078484D02*
X13058158Y-13078484D01*
X13058158Y-13078484D02*
X13077205Y-13088008D01*
X13077205Y-13088008D02*
X13086729Y-13097531D01*
X13086729Y-13097531D02*
X13096253Y-13116579D01*
X13096253Y-13116579D02*
X13096253Y-13126103D01*
X13096253Y-13126103D02*
X13086729Y-13145150D01*
X13086729Y-13145150D02*
X13077205Y-13154674D01*
X13077205Y-13154674D02*
X13058158Y-13164198D01*
X13058158Y-13164198D02*
X13020062Y-13164198D01*
X13020062Y-13164198D02*
X13001015Y-13173722D01*
X13001015Y-13173722D02*
X12991491Y-13183246D01*
X12991491Y-13183246D02*
X12981967Y-13202293D01*
X12981967Y-13202293D02*
X12981967Y-13240388D01*
X12981967Y-13240388D02*
X12991491Y-13259436D01*
X12991491Y-13259436D02*
X13001015Y-13268960D01*
X13001015Y-13268960D02*
X13020062Y-13278484D01*
X13020062Y-13278484D02*
X13058158Y-13278484D01*
X13058158Y-13278484D02*
X13077205Y-13268960D01*
X13077205Y-13268960D02*
X13086729Y-13259436D01*
X13086729Y-13259436D02*
X13096253Y-13240388D01*
X13096253Y-13240388D02*
X13096253Y-13202293D01*
X13096253Y-13202293D02*
X13086729Y-13183246D01*
X13086729Y-13183246D02*
X13077205Y-13173722D01*
X13077205Y-13173722D02*
X13058158Y-13164198D01*
X13220062Y-13078484D02*
X13239110Y-13078484D01*
X13239110Y-13078484D02*
X13258158Y-13088008D01*
X13258158Y-13088008D02*
X13267682Y-13097531D01*
X13267682Y-13097531D02*
X13277205Y-13116579D01*
X13277205Y-13116579D02*
X13286729Y-13154674D01*
X13286729Y-13154674D02*
X13286729Y-13202293D01*
X13286729Y-13202293D02*
X13277205Y-13240388D01*
X13277205Y-13240388D02*
X13267682Y-13259436D01*
X13267682Y-13259436D02*
X13258158Y-13268960D01*
X13258158Y-13268960D02*
X13239110Y-13278484D01*
X13239110Y-13278484D02*
X13220062Y-13278484D01*
X13220062Y-13278484D02*
X13201015Y-13268960D01*
X13201015Y-13268960D02*
X13191491Y-13259436D01*
X13191491Y-13259436D02*
X13181967Y-13240388D01*
X13181967Y-13240388D02*
X13172443Y-13202293D01*
X13172443Y-13202293D02*
X13172443Y-13154674D01*
X13172443Y-13154674D02*
X13181967Y-13116579D01*
X13181967Y-13116579D02*
X13191491Y-13097531D01*
X13191491Y-13097531D02*
X13201015Y-13088008D01*
X13201015Y-13088008D02*
X13220062Y-13078484D01*
X13410539Y-13078484D02*
X13429586Y-13078484D01*
X13429586Y-13078484D02*
X13448634Y-13088008D01*
X13448634Y-13088008D02*
X13458158Y-13097531D01*
X13458158Y-13097531D02*
X13467682Y-13116579D01*
X13467682Y-13116579D02*
X13477205Y-13154674D01*
X13477205Y-13154674D02*
X13477205Y-13202293D01*
X13477205Y-13202293D02*
X13467682Y-13240388D01*
X13467682Y-13240388D02*
X13458158Y-13259436D01*
X13458158Y-13259436D02*
X13448634Y-13268960D01*
X13448634Y-13268960D02*
X13429586Y-13278484D01*
X13429586Y-13278484D02*
X13410539Y-13278484D01*
X13410539Y-13278484D02*
X13391491Y-13268960D01*
X13391491Y-13268960D02*
X13381967Y-13259436D01*
X13381967Y-13259436D02*
X13372443Y-13240388D01*
X13372443Y-13240388D02*
X13362920Y-13202293D01*
X13362920Y-13202293D02*
X13362920Y-13154674D01*
X13362920Y-13154674D02*
X13372443Y-13116579D01*
X13372443Y-13116579D02*
X13381967Y-13097531D01*
X13381967Y-13097531D02*
X13391491Y-13088008D01*
X13391491Y-13088008D02*
X13410539Y-13078484D01*
X13562920Y-13278484D02*
X13562920Y-13145150D01*
X13562920Y-13164198D02*
X13572443Y-13154674D01*
X13572443Y-13154674D02*
X13591491Y-13145150D01*
X13591491Y-13145150D02*
X13620063Y-13145150D01*
X13620063Y-13145150D02*
X13639110Y-13154674D01*
X13639110Y-13154674D02*
X13648634Y-13173722D01*
X13648634Y-13173722D02*
X13648634Y-13278484D01*
X13648634Y-13173722D02*
X13658158Y-13154674D01*
X13658158Y-13154674D02*
X13677205Y-13145150D01*
X13677205Y-13145150D02*
X13705777Y-13145150D01*
X13705777Y-13145150D02*
X13724824Y-13154674D01*
X13724824Y-13154674D02*
X13734348Y-13173722D01*
X13734348Y-13173722D02*
X13734348Y-13278484D01*
X13829586Y-13278484D02*
X13829586Y-13145150D01*
X13829586Y-13164198D02*
X13839110Y-13154674D01*
X13839110Y-13154674D02*
X13858158Y-13145150D01*
X13858158Y-13145150D02*
X13886729Y-13145150D01*
X13886729Y-13145150D02*
X13905777Y-13154674D01*
X13905777Y-13154674D02*
X13915301Y-13173722D01*
X13915301Y-13173722D02*
X13915301Y-13278484D01*
X13915301Y-13173722D02*
X13924824Y-13154674D01*
X13924824Y-13154674D02*
X13943872Y-13145150D01*
X13943872Y-13145150D02*
X13972443Y-13145150D01*
X13972443Y-13145150D02*
X13991491Y-13154674D01*
X13991491Y-13154674D02*
X14001015Y-13173722D01*
X14001015Y-13173722D02*
X14001015Y-13278484D01*
X14391491Y-13068960D02*
X14220063Y-13326103D01*
X14648634Y-13078484D02*
X14667682Y-13078484D01*
X14667682Y-13078484D02*
X14686729Y-13088008D01*
X14686729Y-13088008D02*
X14696253Y-13097531D01*
X14696253Y-13097531D02*
X14705777Y-13116579D01*
X14705777Y-13116579D02*
X14715301Y-13154674D01*
X14715301Y-13154674D02*
X14715301Y-13202293D01*
X14715301Y-13202293D02*
X14705777Y-13240388D01*
X14705777Y-13240388D02*
X14696253Y-13259436D01*
X14696253Y-13259436D02*
X14686729Y-13268960D01*
X14686729Y-13268960D02*
X14667682Y-13278484D01*
X14667682Y-13278484D02*
X14648634Y-13278484D01*
X14648634Y-13278484D02*
X14629586Y-13268960D01*
X14629586Y-13268960D02*
X14620063Y-13259436D01*
X14620063Y-13259436D02*
X14610539Y-13240388D01*
X14610539Y-13240388D02*
X14601015Y-13202293D01*
X14601015Y-13202293D02*
X14601015Y-13154674D01*
X14601015Y-13154674D02*
X14610539Y-13116579D01*
X14610539Y-13116579D02*
X14620063Y-13097531D01*
X14620063Y-13097531D02*
X14629586Y-13088008D01*
X14629586Y-13088008D02*
X14648634Y-13078484D01*
X14801015Y-13259436D02*
X14810539Y-13268960D01*
X14810539Y-13268960D02*
X14801015Y-13278484D01*
X14801015Y-13278484D02*
X14791491Y-13268960D01*
X14791491Y-13268960D02*
X14801015Y-13259436D01*
X14801015Y-13259436D02*
X14801015Y-13278484D01*
X14934348Y-13078484D02*
X14953396Y-13078484D01*
X14953396Y-13078484D02*
X14972444Y-13088008D01*
X14972444Y-13088008D02*
X14981967Y-13097531D01*
X14981967Y-13097531D02*
X14991491Y-13116579D01*
X14991491Y-13116579D02*
X15001015Y-13154674D01*
X15001015Y-13154674D02*
X15001015Y-13202293D01*
X15001015Y-13202293D02*
X14991491Y-13240388D01*
X14991491Y-13240388D02*
X14981967Y-13259436D01*
X14981967Y-13259436D02*
X14972444Y-13268960D01*
X14972444Y-13268960D02*
X14953396Y-13278484D01*
X14953396Y-13278484D02*
X14934348Y-13278484D01*
X14934348Y-13278484D02*
X14915301Y-13268960D01*
X14915301Y-13268960D02*
X14905777Y-13259436D01*
X14905777Y-13259436D02*
X14896253Y-13240388D01*
X14896253Y-13240388D02*
X14886729Y-13202293D01*
X14886729Y-13202293D02*
X14886729Y-13154674D01*
X14886729Y-13154674D02*
X14896253Y-13116579D01*
X14896253Y-13116579D02*
X14905777Y-13097531D01*
X14905777Y-13097531D02*
X14915301Y-13088008D01*
X14915301Y-13088008D02*
X14934348Y-13078484D01*
X15067682Y-13078484D02*
X15191491Y-13078484D01*
X15191491Y-13078484D02*
X15124825Y-13154674D01*
X15124825Y-13154674D02*
X15153396Y-13154674D01*
X15153396Y-13154674D02*
X15172444Y-13164198D01*
X15172444Y-13164198D02*
X15181967Y-13173722D01*
X15181967Y-13173722D02*
X15191491Y-13192769D01*
X15191491Y-13192769D02*
X15191491Y-13240388D01*
X15191491Y-13240388D02*
X15181967Y-13259436D01*
X15181967Y-13259436D02*
X15172444Y-13268960D01*
X15172444Y-13268960D02*
X15153396Y-13278484D01*
X15153396Y-13278484D02*
X15096253Y-13278484D01*
X15096253Y-13278484D02*
X15077206Y-13268960D01*
X15077206Y-13268960D02*
X15067682Y-13259436D01*
X15381967Y-13278484D02*
X15267682Y-13278484D01*
X15324825Y-13278484D02*
X15324825Y-13078484D01*
X15324825Y-13078484D02*
X15305777Y-13107055D01*
X15305777Y-13107055D02*
X15286729Y-13126103D01*
X15286729Y-13126103D02*
X15267682Y-13135627D01*
X15562920Y-13078484D02*
X15467682Y-13078484D01*
X15467682Y-13078484D02*
X15458158Y-13173722D01*
X15458158Y-13173722D02*
X15467682Y-13164198D01*
X15467682Y-13164198D02*
X15486729Y-13154674D01*
X15486729Y-13154674D02*
X15534348Y-13154674D01*
X15534348Y-13154674D02*
X15553396Y-13164198D01*
X15553396Y-13164198D02*
X15562920Y-13173722D01*
X15562920Y-13173722D02*
X15572444Y-13192769D01*
X15572444Y-13192769D02*
X15572444Y-13240388D01*
X15572444Y-13240388D02*
X15562920Y-13259436D01*
X15562920Y-13259436D02*
X15553396Y-13268960D01*
X15553396Y-13268960D02*
X15534348Y-13278484D01*
X15534348Y-13278484D02*
X15486729Y-13278484D01*
X15486729Y-13278484D02*
X15467682Y-13268960D01*
X15467682Y-13268960D02*
X15458158Y-13259436D01*
X15648634Y-13078484D02*
X15648634Y-13116579D01*
X15724825Y-13078484D02*
X15724825Y-13116579D01*
X16020063Y-13354674D02*
X16010539Y-13345150D01*
X16010539Y-13345150D02*
X15991491Y-13316579D01*
X15991491Y-13316579D02*
X15981968Y-13297531D01*
X15981968Y-13297531D02*
X15972444Y-13268960D01*
X15972444Y-13268960D02*
X15962920Y-13221341D01*
X15962920Y-13221341D02*
X15962920Y-13183246D01*
X15962920Y-13183246D02*
X15972444Y-13135627D01*
X15972444Y-13135627D02*
X15981968Y-13107055D01*
X15981968Y-13107055D02*
X15991491Y-13088008D01*
X15991491Y-13088008D02*
X16010539Y-13059436D01*
X16010539Y-13059436D02*
X16020063Y-13049912D01*
X16077206Y-13078484D02*
X16210539Y-13078484D01*
X16210539Y-13078484D02*
X16124825Y-13278484D01*
X16391491Y-13278484D02*
X16277206Y-13278484D01*
X16334348Y-13278484D02*
X16334348Y-13078484D01*
X16334348Y-13078484D02*
X16315301Y-13107055D01*
X16315301Y-13107055D02*
X16296253Y-13126103D01*
X16296253Y-13126103D02*
X16277206Y-13135627D01*
X16629587Y-13278484D02*
X16629587Y-13078484D01*
X16715301Y-13278484D02*
X16715301Y-13173722D01*
X16715301Y-13173722D02*
X16705777Y-13154674D01*
X16705777Y-13154674D02*
X16686730Y-13145150D01*
X16686730Y-13145150D02*
X16658158Y-13145150D01*
X16658158Y-13145150D02*
X16639110Y-13154674D01*
X16639110Y-13154674D02*
X16629587Y-13164198D01*
X16839111Y-13278484D02*
X16820063Y-13268960D01*
X16820063Y-13268960D02*
X16810539Y-13259436D01*
X16810539Y-13259436D02*
X16801015Y-13240388D01*
X16801015Y-13240388D02*
X16801015Y-13183246D01*
X16801015Y-13183246D02*
X16810539Y-13164198D01*
X16810539Y-13164198D02*
X16820063Y-13154674D01*
X16820063Y-13154674D02*
X16839111Y-13145150D01*
X16839111Y-13145150D02*
X16867682Y-13145150D01*
X16867682Y-13145150D02*
X16886730Y-13154674D01*
X16886730Y-13154674D02*
X16896253Y-13164198D01*
X16896253Y-13164198D02*
X16905777Y-13183246D01*
X16905777Y-13183246D02*
X16905777Y-13240388D01*
X16905777Y-13240388D02*
X16896253Y-13259436D01*
X16896253Y-13259436D02*
X16886730Y-13268960D01*
X16886730Y-13268960D02*
X16867682Y-13278484D01*
X16867682Y-13278484D02*
X16839111Y-13278484D01*
X17020063Y-13278484D02*
X17001015Y-13268960D01*
X17001015Y-13268960D02*
X16991492Y-13249912D01*
X16991492Y-13249912D02*
X16991492Y-13078484D01*
X17172444Y-13268960D02*
X17153396Y-13278484D01*
X17153396Y-13278484D02*
X17115301Y-13278484D01*
X17115301Y-13278484D02*
X17096253Y-13268960D01*
X17096253Y-13268960D02*
X17086730Y-13249912D01*
X17086730Y-13249912D02*
X17086730Y-13173722D01*
X17086730Y-13173722D02*
X17096253Y-13154674D01*
X17096253Y-13154674D02*
X17115301Y-13145150D01*
X17115301Y-13145150D02*
X17153396Y-13145150D01*
X17153396Y-13145150D02*
X17172444Y-13154674D01*
X17172444Y-13154674D02*
X17181968Y-13173722D01*
X17181968Y-13173722D02*
X17181968Y-13192769D01*
X17181968Y-13192769D02*
X17086730Y-13211817D01*
X17258158Y-13268960D02*
X17277206Y-13278484D01*
X17277206Y-13278484D02*
X17315301Y-13278484D01*
X17315301Y-13278484D02*
X17334349Y-13268960D01*
X17334349Y-13268960D02*
X17343873Y-13249912D01*
X17343873Y-13249912D02*
X17343873Y-13240388D01*
X17343873Y-13240388D02*
X17334349Y-13221341D01*
X17334349Y-13221341D02*
X17315301Y-13211817D01*
X17315301Y-13211817D02*
X17286730Y-13211817D01*
X17286730Y-13211817D02*
X17267682Y-13202293D01*
X17267682Y-13202293D02*
X17258158Y-13183246D01*
X17258158Y-13183246D02*
X17258158Y-13173722D01*
X17258158Y-13173722D02*
X17267682Y-13154674D01*
X17267682Y-13154674D02*
X17286730Y-13145150D01*
X17286730Y-13145150D02*
X17315301Y-13145150D01*
X17315301Y-13145150D02*
X17334349Y-13154674D01*
X17410539Y-13354674D02*
X17420063Y-13345150D01*
X17420063Y-13345150D02*
X17439111Y-13316579D01*
X17439111Y-13316579D02*
X17448634Y-13297531D01*
X17448634Y-13297531D02*
X17458158Y-13268960D01*
X17458158Y-13268960D02*
X17467682Y-13221341D01*
X17467682Y-13221341D02*
X17467682Y-13183246D01*
X17467682Y-13183246D02*
X17458158Y-13135627D01*
X17458158Y-13135627D02*
X17448634Y-13107055D01*
X17448634Y-13107055D02*
X17439111Y-13088008D01*
X17439111Y-13088008D02*
X17420063Y-13059436D01*
X17420063Y-13059436D02*
X17410539Y-13049912D01*
D10*
X12400000Y-13496000D02*
X12445000Y-13451000D01*
X12400000Y-13406000D01*
X12355000Y-13451000D01*
X12400000Y-13496000D01*
D11*
X12743872Y-13342484D02*
X12762920Y-13342484D01*
X12762920Y-13342484D02*
X12781967Y-13352008D01*
X12781967Y-13352008D02*
X12791491Y-13361531D01*
X12791491Y-13361531D02*
X12801015Y-13380579D01*
X12801015Y-13380579D02*
X12810539Y-13418674D01*
X12810539Y-13418674D02*
X12810539Y-13466293D01*
X12810539Y-13466293D02*
X12801015Y-13504388D01*
X12801015Y-13504388D02*
X12791491Y-13523436D01*
X12791491Y-13523436D02*
X12781967Y-13532960D01*
X12781967Y-13532960D02*
X12762920Y-13542484D01*
X12762920Y-13542484D02*
X12743872Y-13542484D01*
X12743872Y-13542484D02*
X12724824Y-13532960D01*
X12724824Y-13532960D02*
X12715301Y-13523436D01*
X12715301Y-13523436D02*
X12705777Y-13504388D01*
X12705777Y-13504388D02*
X12696253Y-13466293D01*
X12696253Y-13466293D02*
X12696253Y-13418674D01*
X12696253Y-13418674D02*
X12705777Y-13380579D01*
X12705777Y-13380579D02*
X12715301Y-13361531D01*
X12715301Y-13361531D02*
X12724824Y-13352008D01*
X12724824Y-13352008D02*
X12743872Y-13342484D01*
X12896253Y-13523436D02*
X12905777Y-13532960D01*
X12905777Y-13532960D02*
X12896253Y-13542484D01*
X12896253Y-13542484D02*
X12886729Y-13532960D01*
X12886729Y-13532960D02*
X12896253Y-13523436D01*
X12896253Y-13523436D02*
X12896253Y-13542484D01*
X13001015Y-13542484D02*
X13039110Y-13542484D01*
X13039110Y-13542484D02*
X13058158Y-13532960D01*
X13058158Y-13532960D02*
X13067682Y-13523436D01*
X13067682Y-13523436D02*
X13086729Y-13494865D01*
X13086729Y-13494865D02*
X13096253Y-13456769D01*
X13096253Y-13456769D02*
X13096253Y-13380579D01*
X13096253Y-13380579D02*
X13086729Y-13361531D01*
X13086729Y-13361531D02*
X13077205Y-13352008D01*
X13077205Y-13352008D02*
X13058158Y-13342484D01*
X13058158Y-13342484D02*
X13020062Y-13342484D01*
X13020062Y-13342484D02*
X13001015Y-13352008D01*
X13001015Y-13352008D02*
X12991491Y-13361531D01*
X12991491Y-13361531D02*
X12981967Y-13380579D01*
X12981967Y-13380579D02*
X12981967Y-13428198D01*
X12981967Y-13428198D02*
X12991491Y-13447246D01*
X12991491Y-13447246D02*
X13001015Y-13456769D01*
X13001015Y-13456769D02*
X13020062Y-13466293D01*
X13020062Y-13466293D02*
X13058158Y-13466293D01*
X13058158Y-13466293D02*
X13077205Y-13456769D01*
X13077205Y-13456769D02*
X13086729Y-13447246D01*
X13086729Y-13447246D02*
X13096253Y-13428198D01*
X13220062Y-13342484D02*
X13239110Y-13342484D01*
X13239110Y-13342484D02*
X13258158Y-13352008D01*
X13258158Y-13352008D02*
X13267682Y-13361531D01*
X13267682Y-13361531D02*
X13277205Y-13380579D01*
X13277205Y-13380579D02*
X13286729Y-13418674D01*
X13286729Y-13418674D02*
X13286729Y-13466293D01*
X13286729Y-13466293D02*
X13277205Y-13504388D01*
X13277205Y-13504388D02*
X13267682Y-13523436D01*
X13267682Y-13523436D02*
X13258158Y-13532960D01*
X13258158Y-13532960D02*
X13239110Y-13542484D01*
X13239110Y-13542484D02*
X13220062Y-13542484D01*
X13220062Y-13542484D02*
X13201015Y-13532960D01*
X13201015Y-13532960D02*
X13191491Y-13523436D01*
X13191491Y-13523436D02*
X13181967Y-13504388D01*
X13181967Y-13504388D02*
X13172443Y-13466293D01*
X13172443Y-13466293D02*
X13172443Y-13418674D01*
X13172443Y-13418674D02*
X13181967Y-13380579D01*
X13181967Y-13380579D02*
X13191491Y-13361531D01*
X13191491Y-13361531D02*
X13201015Y-13352008D01*
X13201015Y-13352008D02*
X13220062Y-13342484D01*
X13410539Y-13342484D02*
X13429586Y-13342484D01*
X13429586Y-13342484D02*
X13448634Y-13352008D01*
X13448634Y-13352008D02*
X13458158Y-13361531D01*
X13458158Y-13361531D02*
X13467682Y-13380579D01*
X13467682Y-13380579D02*
X13477205Y-13418674D01*
X13477205Y-13418674D02*
X13477205Y-13466293D01*
X13477205Y-13466293D02*
X13467682Y-13504388D01*
X13467682Y-13504388D02*
X13458158Y-13523436D01*
X13458158Y-13523436D02*
X13448634Y-13532960D01*
X13448634Y-13532960D02*
X13429586Y-13542484D01*
X13429586Y-13542484D02*
X13410539Y-13542484D01*
X13410539Y-13542484D02*
X13391491Y-13532960D01*
X13391491Y-13532960D02*
X13381967Y-13523436D01*
X13381967Y-13523436D02*
X13372443Y-13504388D01*
X13372443Y-13504388D02*
X13362920Y-13466293D01*
X13362920Y-13466293D02*
X13362920Y-13418674D01*
X13362920Y-13418674D02*
X13372443Y-13380579D01*
X13372443Y-13380579D02*
X13381967Y-13361531D01*
X13381967Y-13361531D02*
X13391491Y-13352008D01*
X13391491Y-13352008D02*
X13410539Y-13342484D01*
X13562920Y-13542484D02*
X13562920Y-13409150D01*
X13562920Y-13428198D02*
X13572443Y-13418674D01*
X13572443Y-13418674D02*
X13591491Y-13409150D01*
X13591491Y-13409150D02*
X13620063Y-13409150D01*
X13620063Y-13409150D02*
X13639110Y-13418674D01*
X13639110Y-13418674D02*
X13648634Y-13437722D01*
X13648634Y-13437722D02*
X13648634Y-13542484D01*
X13648634Y-13437722D02*
X13658158Y-13418674D01*
X13658158Y-13418674D02*
X13677205Y-13409150D01*
X13677205Y-13409150D02*
X13705777Y-13409150D01*
X13705777Y-13409150D02*
X13724824Y-13418674D01*
X13724824Y-13418674D02*
X13734348Y-13437722D01*
X13734348Y-13437722D02*
X13734348Y-13542484D01*
X13829586Y-13542484D02*
X13829586Y-13409150D01*
X13829586Y-13428198D02*
X13839110Y-13418674D01*
X13839110Y-13418674D02*
X13858158Y-13409150D01*
X13858158Y-13409150D02*
X13886729Y-13409150D01*
X13886729Y-13409150D02*
X13905777Y-13418674D01*
X13905777Y-13418674D02*
X13915301Y-13437722D01*
X13915301Y-13437722D02*
X13915301Y-13542484D01*
X13915301Y-13437722D02*
X13924824Y-13418674D01*
X13924824Y-13418674D02*
X13943872Y-13409150D01*
X13943872Y-13409150D02*
X13972443Y-13409150D01*
X13972443Y-13409150D02*
X13991491Y-13418674D01*
X13991491Y-13418674D02*
X14001015Y-13437722D01*
X14001015Y-13437722D02*
X14001015Y-13542484D01*
X14391491Y-13332960D02*
X14220063Y-13590103D01*
X14648634Y-13342484D02*
X14667682Y-13342484D01*
X14667682Y-13342484D02*
X14686729Y-13352008D01*
X14686729Y-13352008D02*
X14696253Y-13361531D01*
X14696253Y-13361531D02*
X14705777Y-13380579D01*
X14705777Y-13380579D02*
X14715301Y-13418674D01*
X14715301Y-13418674D02*
X14715301Y-13466293D01*
X14715301Y-13466293D02*
X14705777Y-13504388D01*
X14705777Y-13504388D02*
X14696253Y-13523436D01*
X14696253Y-13523436D02*
X14686729Y-13532960D01*
X14686729Y-13532960D02*
X14667682Y-13542484D01*
X14667682Y-13542484D02*
X14648634Y-13542484D01*
X14648634Y-13542484D02*
X14629586Y-13532960D01*
X14629586Y-13532960D02*
X14620063Y-13523436D01*
X14620063Y-13523436D02*
X14610539Y-13504388D01*
X14610539Y-13504388D02*
X14601015Y-13466293D01*
X14601015Y-13466293D02*
X14601015Y-13418674D01*
X14601015Y-13418674D02*
X14610539Y-13380579D01*
X14610539Y-13380579D02*
X14620063Y-13361531D01*
X14620063Y-13361531D02*
X14629586Y-13352008D01*
X14629586Y-13352008D02*
X14648634Y-13342484D01*
X14801015Y-13523436D02*
X14810539Y-13532960D01*
X14810539Y-13532960D02*
X14801015Y-13542484D01*
X14801015Y-13542484D02*
X14791491Y-13532960D01*
X14791491Y-13532960D02*
X14801015Y-13523436D01*
X14801015Y-13523436D02*
X14801015Y-13542484D01*
X14934348Y-13342484D02*
X14953396Y-13342484D01*
X14953396Y-13342484D02*
X14972444Y-13352008D01*
X14972444Y-13352008D02*
X14981967Y-13361531D01*
X14981967Y-13361531D02*
X14991491Y-13380579D01*
X14991491Y-13380579D02*
X15001015Y-13418674D01*
X15001015Y-13418674D02*
X15001015Y-13466293D01*
X15001015Y-13466293D02*
X14991491Y-13504388D01*
X14991491Y-13504388D02*
X14981967Y-13523436D01*
X14981967Y-13523436D02*
X14972444Y-13532960D01*
X14972444Y-13532960D02*
X14953396Y-13542484D01*
X14953396Y-13542484D02*
X14934348Y-13542484D01*
X14934348Y-13542484D02*
X14915301Y-13532960D01*
X14915301Y-13532960D02*
X14905777Y-13523436D01*
X14905777Y-13523436D02*
X14896253Y-13504388D01*
X14896253Y-13504388D02*
X14886729Y-13466293D01*
X14886729Y-13466293D02*
X14886729Y-13418674D01*
X14886729Y-13418674D02*
X14896253Y-13380579D01*
X14896253Y-13380579D02*
X14905777Y-13361531D01*
X14905777Y-13361531D02*
X14915301Y-13352008D01*
X14915301Y-13352008D02*
X14934348Y-13342484D01*
X15067682Y-13342484D02*
X15191491Y-13342484D01*
X15191491Y-13342484D02*
X15124825Y-13418674D01*
X15124825Y-13418674D02*
X15153396Y-13418674D01*
X15153396Y-13418674D02*
X15172444Y-13428198D01*
X15172444Y-13428198D02*
X15181967Y-13437722D01*
X15181967Y-13437722D02*
X15191491Y-13456769D01*
X15191491Y-13456769D02*
X15191491Y-13504388D01*
X15191491Y-13504388D02*
X15181967Y-13523436D01*
X15181967Y-13523436D02*
X15172444Y-13532960D01*
X15172444Y-13532960D02*
X15153396Y-13542484D01*
X15153396Y-13542484D02*
X15096253Y-13542484D01*
X15096253Y-13542484D02*
X15077206Y-13532960D01*
X15077206Y-13532960D02*
X15067682Y-13523436D01*
X15372444Y-13342484D02*
X15277206Y-13342484D01*
X15277206Y-13342484D02*
X15267682Y-13437722D01*
X15267682Y-13437722D02*
X15277206Y-13428198D01*
X15277206Y-13428198D02*
X15296253Y-13418674D01*
X15296253Y-13418674D02*
X15343872Y-13418674D01*
X15343872Y-13418674D02*
X15362920Y-13428198D01*
X15362920Y-13428198D02*
X15372444Y-13437722D01*
X15372444Y-13437722D02*
X15381967Y-13456769D01*
X15381967Y-13456769D02*
X15381967Y-13504388D01*
X15381967Y-13504388D02*
X15372444Y-13523436D01*
X15372444Y-13523436D02*
X15362920Y-13532960D01*
X15362920Y-13532960D02*
X15343872Y-13542484D01*
X15343872Y-13542484D02*
X15296253Y-13542484D01*
X15296253Y-13542484D02*
X15277206Y-13532960D01*
X15277206Y-13532960D02*
X15267682Y-13523436D01*
X15553396Y-13409150D02*
X15553396Y-13542484D01*
X15505777Y-13332960D02*
X15458158Y-13475817D01*
X15458158Y-13475817D02*
X15581967Y-13475817D01*
X15648634Y-13342484D02*
X15648634Y-13380579D01*
X15724825Y-13342484D02*
X15724825Y-13380579D01*
X16020063Y-13618674D02*
X16010539Y-13609150D01*
X16010539Y-13609150D02*
X15991491Y-13580579D01*
X15991491Y-13580579D02*
X15981968Y-13561531D01*
X15981968Y-13561531D02*
X15972444Y-13532960D01*
X15972444Y-13532960D02*
X15962920Y-13485341D01*
X15962920Y-13485341D02*
X15962920Y-13447246D01*
X15962920Y-13447246D02*
X15972444Y-13399627D01*
X15972444Y-13399627D02*
X15981968Y-13371055D01*
X15981968Y-13371055D02*
X15991491Y-13352008D01*
X15991491Y-13352008D02*
X16010539Y-13323436D01*
X16010539Y-13323436D02*
X16020063Y-13313912D01*
X16086729Y-13361531D02*
X16096253Y-13352008D01*
X16096253Y-13352008D02*
X16115301Y-13342484D01*
X16115301Y-13342484D02*
X16162920Y-13342484D01*
X16162920Y-13342484D02*
X16181968Y-13352008D01*
X16181968Y-13352008D02*
X16191491Y-13361531D01*
X16191491Y-13361531D02*
X16201015Y-13380579D01*
X16201015Y-13380579D02*
X16201015Y-13399627D01*
X16201015Y-13399627D02*
X16191491Y-13428198D01*
X16191491Y-13428198D02*
X16077206Y-13542484D01*
X16077206Y-13542484D02*
X16201015Y-13542484D01*
X16439110Y-13542484D02*
X16439110Y-13342484D01*
X16524825Y-13542484D02*
X16524825Y-13437722D01*
X16524825Y-13437722D02*
X16515301Y-13418674D01*
X16515301Y-13418674D02*
X16496253Y-13409150D01*
X16496253Y-13409150D02*
X16467682Y-13409150D01*
X16467682Y-13409150D02*
X16448634Y-13418674D01*
X16448634Y-13418674D02*
X16439110Y-13428198D01*
X16648634Y-13542484D02*
X16629587Y-13532960D01*
X16629587Y-13532960D02*
X16620063Y-13523436D01*
X16620063Y-13523436D02*
X16610539Y-13504388D01*
X16610539Y-13504388D02*
X16610539Y-13447246D01*
X16610539Y-13447246D02*
X16620063Y-13428198D01*
X16620063Y-13428198D02*
X16629587Y-13418674D01*
X16629587Y-13418674D02*
X16648634Y-13409150D01*
X16648634Y-13409150D02*
X16677206Y-13409150D01*
X16677206Y-13409150D02*
X16696253Y-13418674D01*
X16696253Y-13418674D02*
X16705777Y-13428198D01*
X16705777Y-13428198D02*
X16715301Y-13447246D01*
X16715301Y-13447246D02*
X16715301Y-13504388D01*
X16715301Y-13504388D02*
X16705777Y-13523436D01*
X16705777Y-13523436D02*
X16696253Y-13532960D01*
X16696253Y-13532960D02*
X16677206Y-13542484D01*
X16677206Y-13542484D02*
X16648634Y-13542484D01*
X16829587Y-13542484D02*
X16810539Y-13532960D01*
X16810539Y-13532960D02*
X16801015Y-13513912D01*
X16801015Y-13513912D02*
X16801015Y-13342484D01*
X16981968Y-13532960D02*
X16962920Y-13542484D01*
X16962920Y-13542484D02*
X16924825Y-13542484D01*
X16924825Y-13542484D02*
X16905777Y-13532960D01*
X16905777Y-13532960D02*
X16896253Y-13513912D01*
X16896253Y-13513912D02*
X16896253Y-13437722D01*
X16896253Y-13437722D02*
X16905777Y-13418674D01*
X16905777Y-13418674D02*
X16924825Y-13409150D01*
X16924825Y-13409150D02*
X16962920Y-13409150D01*
X16962920Y-13409150D02*
X16981968Y-13418674D01*
X16981968Y-13418674D02*
X16991492Y-13437722D01*
X16991492Y-13437722D02*
X16991492Y-13456769D01*
X16991492Y-13456769D02*
X16896253Y-13475817D01*
X17067682Y-13532960D02*
X17086730Y-13542484D01*
X17086730Y-13542484D02*
X17124825Y-13542484D01*
X17124825Y-13542484D02*
X17143873Y-13532960D01*
X17143873Y-13532960D02*
X17153396Y-13513912D01*
X17153396Y-13513912D02*
X17153396Y-13504388D01*
X17153396Y-13504388D02*
X17143873Y-13485341D01*
X17143873Y-13485341D02*
X17124825Y-13475817D01*
X17124825Y-13475817D02*
X17096253Y-13475817D01*
X17096253Y-13475817D02*
X17077206Y-13466293D01*
X17077206Y-13466293D02*
X17067682Y-13447246D01*
X17067682Y-13447246D02*
X17067682Y-13437722D01*
X17067682Y-13437722D02*
X17077206Y-13418674D01*
X17077206Y-13418674D02*
X17096253Y-13409150D01*
X17096253Y-13409150D02*
X17124825Y-13409150D01*
X17124825Y-13409150D02*
X17143873Y-13418674D01*
X17220063Y-13618674D02*
X17229587Y-13609150D01*
X17229587Y-13609150D02*
X17248634Y-13580579D01*
X17248634Y-13580579D02*
X17258158Y-13561531D01*
X17258158Y-13561531D02*
X17267682Y-13532960D01*
X17267682Y-13532960D02*
X17277206Y-13485341D01*
X17277206Y-13485341D02*
X17277206Y-13447246D01*
X17277206Y-13447246D02*
X17267682Y-13399627D01*
X17267682Y-13399627D02*
X17258158Y-13371055D01*
X17258158Y-13371055D02*
X17248634Y-13352008D01*
X17248634Y-13352008D02*
X17229587Y-13323436D01*
X17229587Y-13323436D02*
X17220063Y-13313912D01*
D10*
X12345000Y-13665000D02*
X12445000Y-13765000D01*
X12445000Y-13665000D02*
X12345000Y-13765000D01*
X12445000Y-13715000D02*
G75*
G02*
X12345000Y-13715000I-50000J0D01*
G01*
X12345000Y-13715000D02*
G75*
G02*
X12445000Y-13715000I50000J0D01*
G01*
D11*
X12810539Y-13806484D02*
X12696253Y-13806484D01*
X12753396Y-13806484D02*
X12753396Y-13606484D01*
X12753396Y-13606484D02*
X12734348Y-13635055D01*
X12734348Y-13635055D02*
X12715301Y-13654103D01*
X12715301Y-13654103D02*
X12696253Y-13663627D01*
X12896253Y-13787436D02*
X12905777Y-13796960D01*
X12905777Y-13796960D02*
X12896253Y-13806484D01*
X12896253Y-13806484D02*
X12886729Y-13796960D01*
X12886729Y-13796960D02*
X12896253Y-13787436D01*
X12896253Y-13787436D02*
X12896253Y-13806484D01*
X13029586Y-13606484D02*
X13048634Y-13606484D01*
X13048634Y-13606484D02*
X13067682Y-13616008D01*
X13067682Y-13616008D02*
X13077205Y-13625531D01*
X13077205Y-13625531D02*
X13086729Y-13644579D01*
X13086729Y-13644579D02*
X13096253Y-13682674D01*
X13096253Y-13682674D02*
X13096253Y-13730293D01*
X13096253Y-13730293D02*
X13086729Y-13768388D01*
X13086729Y-13768388D02*
X13077205Y-13787436D01*
X13077205Y-13787436D02*
X13067682Y-13796960D01*
X13067682Y-13796960D02*
X13048634Y-13806484D01*
X13048634Y-13806484D02*
X13029586Y-13806484D01*
X13029586Y-13806484D02*
X13010539Y-13796960D01*
X13010539Y-13796960D02*
X13001015Y-13787436D01*
X13001015Y-13787436D02*
X12991491Y-13768388D01*
X12991491Y-13768388D02*
X12981967Y-13730293D01*
X12981967Y-13730293D02*
X12981967Y-13682674D01*
X12981967Y-13682674D02*
X12991491Y-13644579D01*
X12991491Y-13644579D02*
X13001015Y-13625531D01*
X13001015Y-13625531D02*
X13010539Y-13616008D01*
X13010539Y-13616008D02*
X13029586Y-13606484D01*
X13220062Y-13606484D02*
X13239110Y-13606484D01*
X13239110Y-13606484D02*
X13258158Y-13616008D01*
X13258158Y-13616008D02*
X13267682Y-13625531D01*
X13267682Y-13625531D02*
X13277205Y-13644579D01*
X13277205Y-13644579D02*
X13286729Y-13682674D01*
X13286729Y-13682674D02*
X13286729Y-13730293D01*
X13286729Y-13730293D02*
X13277205Y-13768388D01*
X13277205Y-13768388D02*
X13267682Y-13787436D01*
X13267682Y-13787436D02*
X13258158Y-13796960D01*
X13258158Y-13796960D02*
X13239110Y-13806484D01*
X13239110Y-13806484D02*
X13220062Y-13806484D01*
X13220062Y-13806484D02*
X13201015Y-13796960D01*
X13201015Y-13796960D02*
X13191491Y-13787436D01*
X13191491Y-13787436D02*
X13181967Y-13768388D01*
X13181967Y-13768388D02*
X13172443Y-13730293D01*
X13172443Y-13730293D02*
X13172443Y-13682674D01*
X13172443Y-13682674D02*
X13181967Y-13644579D01*
X13181967Y-13644579D02*
X13191491Y-13625531D01*
X13191491Y-13625531D02*
X13201015Y-13616008D01*
X13201015Y-13616008D02*
X13220062Y-13606484D01*
X13410539Y-13606484D02*
X13429586Y-13606484D01*
X13429586Y-13606484D02*
X13448634Y-13616008D01*
X13448634Y-13616008D02*
X13458158Y-13625531D01*
X13458158Y-13625531D02*
X13467682Y-13644579D01*
X13467682Y-13644579D02*
X13477205Y-13682674D01*
X13477205Y-13682674D02*
X13477205Y-13730293D01*
X13477205Y-13730293D02*
X13467682Y-13768388D01*
X13467682Y-13768388D02*
X13458158Y-13787436D01*
X13458158Y-13787436D02*
X13448634Y-13796960D01*
X13448634Y-13796960D02*
X13429586Y-13806484D01*
X13429586Y-13806484D02*
X13410539Y-13806484D01*
X13410539Y-13806484D02*
X13391491Y-13796960D01*
X13391491Y-13796960D02*
X13381967Y-13787436D01*
X13381967Y-13787436D02*
X13372443Y-13768388D01*
X13372443Y-13768388D02*
X13362920Y-13730293D01*
X13362920Y-13730293D02*
X13362920Y-13682674D01*
X13362920Y-13682674D02*
X13372443Y-13644579D01*
X13372443Y-13644579D02*
X13381967Y-13625531D01*
X13381967Y-13625531D02*
X13391491Y-13616008D01*
X13391491Y-13616008D02*
X13410539Y-13606484D01*
X13562920Y-13806484D02*
X13562920Y-13673150D01*
X13562920Y-13692198D02*
X13572443Y-13682674D01*
X13572443Y-13682674D02*
X13591491Y-13673150D01*
X13591491Y-13673150D02*
X13620063Y-13673150D01*
X13620063Y-13673150D02*
X13639110Y-13682674D01*
X13639110Y-13682674D02*
X13648634Y-13701722D01*
X13648634Y-13701722D02*
X13648634Y-13806484D01*
X13648634Y-13701722D02*
X13658158Y-13682674D01*
X13658158Y-13682674D02*
X13677205Y-13673150D01*
X13677205Y-13673150D02*
X13705777Y-13673150D01*
X13705777Y-13673150D02*
X13724824Y-13682674D01*
X13724824Y-13682674D02*
X13734348Y-13701722D01*
X13734348Y-13701722D02*
X13734348Y-13806484D01*
X13829586Y-13806484D02*
X13829586Y-13673150D01*
X13829586Y-13692198D02*
X13839110Y-13682674D01*
X13839110Y-13682674D02*
X13858158Y-13673150D01*
X13858158Y-13673150D02*
X13886729Y-13673150D01*
X13886729Y-13673150D02*
X13905777Y-13682674D01*
X13905777Y-13682674D02*
X13915301Y-13701722D01*
X13915301Y-13701722D02*
X13915301Y-13806484D01*
X13915301Y-13701722D02*
X13924824Y-13682674D01*
X13924824Y-13682674D02*
X13943872Y-13673150D01*
X13943872Y-13673150D02*
X13972443Y-13673150D01*
X13972443Y-13673150D02*
X13991491Y-13682674D01*
X13991491Y-13682674D02*
X14001015Y-13701722D01*
X14001015Y-13701722D02*
X14001015Y-13806484D01*
X14391491Y-13596960D02*
X14220063Y-13854103D01*
X14648634Y-13606484D02*
X14667682Y-13606484D01*
X14667682Y-13606484D02*
X14686729Y-13616008D01*
X14686729Y-13616008D02*
X14696253Y-13625531D01*
X14696253Y-13625531D02*
X14705777Y-13644579D01*
X14705777Y-13644579D02*
X14715301Y-13682674D01*
X14715301Y-13682674D02*
X14715301Y-13730293D01*
X14715301Y-13730293D02*
X14705777Y-13768388D01*
X14705777Y-13768388D02*
X14696253Y-13787436D01*
X14696253Y-13787436D02*
X14686729Y-13796960D01*
X14686729Y-13796960D02*
X14667682Y-13806484D01*
X14667682Y-13806484D02*
X14648634Y-13806484D01*
X14648634Y-13806484D02*
X14629586Y-13796960D01*
X14629586Y-13796960D02*
X14620063Y-13787436D01*
X14620063Y-13787436D02*
X14610539Y-13768388D01*
X14610539Y-13768388D02*
X14601015Y-13730293D01*
X14601015Y-13730293D02*
X14601015Y-13682674D01*
X14601015Y-13682674D02*
X14610539Y-13644579D01*
X14610539Y-13644579D02*
X14620063Y-13625531D01*
X14620063Y-13625531D02*
X14629586Y-13616008D01*
X14629586Y-13616008D02*
X14648634Y-13606484D01*
X14801015Y-13787436D02*
X14810539Y-13796960D01*
X14810539Y-13796960D02*
X14801015Y-13806484D01*
X14801015Y-13806484D02*
X14791491Y-13796960D01*
X14791491Y-13796960D02*
X14801015Y-13787436D01*
X14801015Y-13787436D02*
X14801015Y-13806484D01*
X14934348Y-13606484D02*
X14953396Y-13606484D01*
X14953396Y-13606484D02*
X14972444Y-13616008D01*
X14972444Y-13616008D02*
X14981967Y-13625531D01*
X14981967Y-13625531D02*
X14991491Y-13644579D01*
X14991491Y-13644579D02*
X15001015Y-13682674D01*
X15001015Y-13682674D02*
X15001015Y-13730293D01*
X15001015Y-13730293D02*
X14991491Y-13768388D01*
X14991491Y-13768388D02*
X14981967Y-13787436D01*
X14981967Y-13787436D02*
X14972444Y-13796960D01*
X14972444Y-13796960D02*
X14953396Y-13806484D01*
X14953396Y-13806484D02*
X14934348Y-13806484D01*
X14934348Y-13806484D02*
X14915301Y-13796960D01*
X14915301Y-13796960D02*
X14905777Y-13787436D01*
X14905777Y-13787436D02*
X14896253Y-13768388D01*
X14896253Y-13768388D02*
X14886729Y-13730293D01*
X14886729Y-13730293D02*
X14886729Y-13682674D01*
X14886729Y-13682674D02*
X14896253Y-13644579D01*
X14896253Y-13644579D02*
X14905777Y-13625531D01*
X14905777Y-13625531D02*
X14915301Y-13616008D01*
X14915301Y-13616008D02*
X14934348Y-13606484D01*
X15067682Y-13606484D02*
X15191491Y-13606484D01*
X15191491Y-13606484D02*
X15124825Y-13682674D01*
X15124825Y-13682674D02*
X15153396Y-13682674D01*
X15153396Y-13682674D02*
X15172444Y-13692198D01*
X15172444Y-13692198D02*
X15181967Y-13701722D01*
X15181967Y-13701722D02*
X15191491Y-13720769D01*
X15191491Y-13720769D02*
X15191491Y-13768388D01*
X15191491Y-13768388D02*
X15181967Y-13787436D01*
X15181967Y-13787436D02*
X15172444Y-13796960D01*
X15172444Y-13796960D02*
X15153396Y-13806484D01*
X15153396Y-13806484D02*
X15096253Y-13806484D01*
X15096253Y-13806484D02*
X15077206Y-13796960D01*
X15077206Y-13796960D02*
X15067682Y-13787436D01*
X15286729Y-13806484D02*
X15324825Y-13806484D01*
X15324825Y-13806484D02*
X15343872Y-13796960D01*
X15343872Y-13796960D02*
X15353396Y-13787436D01*
X15353396Y-13787436D02*
X15372444Y-13758865D01*
X15372444Y-13758865D02*
X15381967Y-13720769D01*
X15381967Y-13720769D02*
X15381967Y-13644579D01*
X15381967Y-13644579D02*
X15372444Y-13625531D01*
X15372444Y-13625531D02*
X15362920Y-13616008D01*
X15362920Y-13616008D02*
X15343872Y-13606484D01*
X15343872Y-13606484D02*
X15305777Y-13606484D01*
X15305777Y-13606484D02*
X15286729Y-13616008D01*
X15286729Y-13616008D02*
X15277206Y-13625531D01*
X15277206Y-13625531D02*
X15267682Y-13644579D01*
X15267682Y-13644579D02*
X15267682Y-13692198D01*
X15267682Y-13692198D02*
X15277206Y-13711246D01*
X15277206Y-13711246D02*
X15286729Y-13720769D01*
X15286729Y-13720769D02*
X15305777Y-13730293D01*
X15305777Y-13730293D02*
X15343872Y-13730293D01*
X15343872Y-13730293D02*
X15362920Y-13720769D01*
X15362920Y-13720769D02*
X15372444Y-13711246D01*
X15372444Y-13711246D02*
X15381967Y-13692198D01*
X15553396Y-13673150D02*
X15553396Y-13806484D01*
X15505777Y-13596960D02*
X15458158Y-13739817D01*
X15458158Y-13739817D02*
X15581967Y-13739817D01*
X15648634Y-13606484D02*
X15648634Y-13644579D01*
X15724825Y-13606484D02*
X15724825Y-13644579D01*
X16020063Y-13882674D02*
X16010539Y-13873150D01*
X16010539Y-13873150D02*
X15991491Y-13844579D01*
X15991491Y-13844579D02*
X15981968Y-13825531D01*
X15981968Y-13825531D02*
X15972444Y-13796960D01*
X15972444Y-13796960D02*
X15962920Y-13749341D01*
X15962920Y-13749341D02*
X15962920Y-13711246D01*
X15962920Y-13711246D02*
X15972444Y-13663627D01*
X15972444Y-13663627D02*
X15981968Y-13635055D01*
X15981968Y-13635055D02*
X15991491Y-13616008D01*
X15991491Y-13616008D02*
X16010539Y-13587436D01*
X16010539Y-13587436D02*
X16020063Y-13577912D01*
X16181968Y-13606484D02*
X16143872Y-13606484D01*
X16143872Y-13606484D02*
X16124825Y-13616008D01*
X16124825Y-13616008D02*
X16115301Y-13625531D01*
X16115301Y-13625531D02*
X16096253Y-13654103D01*
X16096253Y-13654103D02*
X16086729Y-13692198D01*
X16086729Y-13692198D02*
X16086729Y-13768388D01*
X16086729Y-13768388D02*
X16096253Y-13787436D01*
X16096253Y-13787436D02*
X16105777Y-13796960D01*
X16105777Y-13796960D02*
X16124825Y-13806484D01*
X16124825Y-13806484D02*
X16162920Y-13806484D01*
X16162920Y-13806484D02*
X16181968Y-13796960D01*
X16181968Y-13796960D02*
X16191491Y-13787436D01*
X16191491Y-13787436D02*
X16201015Y-13768388D01*
X16201015Y-13768388D02*
X16201015Y-13720769D01*
X16201015Y-13720769D02*
X16191491Y-13701722D01*
X16191491Y-13701722D02*
X16181968Y-13692198D01*
X16181968Y-13692198D02*
X16162920Y-13682674D01*
X16162920Y-13682674D02*
X16124825Y-13682674D01*
X16124825Y-13682674D02*
X16105777Y-13692198D01*
X16105777Y-13692198D02*
X16096253Y-13701722D01*
X16096253Y-13701722D02*
X16086729Y-13720769D01*
X16439110Y-13806484D02*
X16439110Y-13606484D01*
X16524825Y-13806484D02*
X16524825Y-13701722D01*
X16524825Y-13701722D02*
X16515301Y-13682674D01*
X16515301Y-13682674D02*
X16496253Y-13673150D01*
X16496253Y-13673150D02*
X16467682Y-13673150D01*
X16467682Y-13673150D02*
X16448634Y-13682674D01*
X16448634Y-13682674D02*
X16439110Y-13692198D01*
X16648634Y-13806484D02*
X16629587Y-13796960D01*
X16629587Y-13796960D02*
X16620063Y-13787436D01*
X16620063Y-13787436D02*
X16610539Y-13768388D01*
X16610539Y-13768388D02*
X16610539Y-13711246D01*
X16610539Y-13711246D02*
X16620063Y-13692198D01*
X16620063Y-13692198D02*
X16629587Y-13682674D01*
X16629587Y-13682674D02*
X16648634Y-13673150D01*
X16648634Y-13673150D02*
X16677206Y-13673150D01*
X16677206Y-13673150D02*
X16696253Y-13682674D01*
X16696253Y-13682674D02*
X16705777Y-13692198D01*
X16705777Y-13692198D02*
X16715301Y-13711246D01*
X16715301Y-13711246D02*
X16715301Y-13768388D01*
X16715301Y-13768388D02*
X16705777Y-13787436D01*
X16705777Y-13787436D02*
X16696253Y-13796960D01*
X16696253Y-13796960D02*
X16677206Y-13806484D01*
X16677206Y-13806484D02*
X16648634Y-13806484D01*
X16829587Y-13806484D02*
X16810539Y-13796960D01*
X16810539Y-13796960D02*
X16801015Y-13777912D01*
X16801015Y-13777912D02*
X16801015Y-13606484D01*
X16981968Y-13796960D02*
X16962920Y-13806484D01*
X16962920Y-13806484D02*
X16924825Y-13806484D01*
X16924825Y-13806484D02*
X16905777Y-13796960D01*
X16905777Y-13796960D02*
X16896253Y-13777912D01*
X16896253Y-13777912D02*
X16896253Y-13701722D01*
X16896253Y-13701722D02*
X16905777Y-13682674D01*
X16905777Y-13682674D02*
X16924825Y-13673150D01*
X16924825Y-13673150D02*
X16962920Y-13673150D01*
X16962920Y-13673150D02*
X16981968Y-13682674D01*
X16981968Y-13682674D02*
X16991492Y-13701722D01*
X16991492Y-13701722D02*
X16991492Y-13720769D01*
X16991492Y-13720769D02*
X16896253Y-13739817D01*
X17067682Y-13796960D02*
X17086730Y-13806484D01*
X17086730Y-13806484D02*
X17124825Y-13806484D01*
X17124825Y-13806484D02*
X17143873Y-13796960D01*
X17143873Y-13796960D02*
X17153396Y-13777912D01*
X17153396Y-13777912D02*
X17153396Y-13768388D01*
X17153396Y-13768388D02*
X17143873Y-13749341D01*
X17143873Y-13749341D02*
X17124825Y-13739817D01*
X17124825Y-13739817D02*
X17096253Y-13739817D01*
X17096253Y-13739817D02*
X17077206Y-13730293D01*
X17077206Y-13730293D02*
X17067682Y-13711246D01*
X17067682Y-13711246D02*
X17067682Y-13701722D01*
X17067682Y-13701722D02*
X17077206Y-13682674D01*
X17077206Y-13682674D02*
X17096253Y-13673150D01*
X17096253Y-13673150D02*
X17124825Y-13673150D01*
X17124825Y-13673150D02*
X17143873Y-13682674D01*
X17220063Y-13882674D02*
X17229587Y-13873150D01*
X17229587Y-13873150D02*
X17248634Y-13844579D01*
X17248634Y-13844579D02*
X17258158Y-13825531D01*
X17258158Y-13825531D02*
X17267682Y-13796960D01*
X17267682Y-13796960D02*
X17277206Y-13749341D01*
X17277206Y-13749341D02*
X17277206Y-13711246D01*
X17277206Y-13711246D02*
X17267682Y-13663627D01*
X17267682Y-13663627D02*
X17258158Y-13635055D01*
X17258158Y-13635055D02*
X17248634Y-13616008D01*
X17248634Y-13616008D02*
X17229587Y-13587436D01*
X17229587Y-13587436D02*
X17220063Y-13577912D01*
D12*
X12335000Y-13924000D02*
X12445000Y-14034000D01*
X12445000Y-13924000D02*
X12335000Y-14034000D01*
X12390000Y-13924000D02*
X12390000Y-14034000D01*
X12335000Y-13979000D02*
X12445000Y-13979000D01*
D11*
X12810539Y-14070484D02*
X12696253Y-14070484D01*
X12753396Y-14070484D02*
X12753396Y-13870484D01*
X12753396Y-13870484D02*
X12734348Y-13899055D01*
X12734348Y-13899055D02*
X12715301Y-13918103D01*
X12715301Y-13918103D02*
X12696253Y-13927627D01*
X12896253Y-14051436D02*
X12905777Y-14060960D01*
X12905777Y-14060960D02*
X12896253Y-14070484D01*
X12896253Y-14070484D02*
X12886729Y-14060960D01*
X12886729Y-14060960D02*
X12896253Y-14051436D01*
X12896253Y-14051436D02*
X12896253Y-14070484D01*
X13096253Y-14070484D02*
X12981967Y-14070484D01*
X13039110Y-14070484D02*
X13039110Y-13870484D01*
X13039110Y-13870484D02*
X13020062Y-13899055D01*
X13020062Y-13899055D02*
X13001015Y-13918103D01*
X13001015Y-13918103D02*
X12981967Y-13927627D01*
X13220062Y-13870484D02*
X13239110Y-13870484D01*
X13239110Y-13870484D02*
X13258158Y-13880008D01*
X13258158Y-13880008D02*
X13267682Y-13889531D01*
X13267682Y-13889531D02*
X13277205Y-13908579D01*
X13277205Y-13908579D02*
X13286729Y-13946674D01*
X13286729Y-13946674D02*
X13286729Y-13994293D01*
X13286729Y-13994293D02*
X13277205Y-14032388D01*
X13277205Y-14032388D02*
X13267682Y-14051436D01*
X13267682Y-14051436D02*
X13258158Y-14060960D01*
X13258158Y-14060960D02*
X13239110Y-14070484D01*
X13239110Y-14070484D02*
X13220062Y-14070484D01*
X13220062Y-14070484D02*
X13201015Y-14060960D01*
X13201015Y-14060960D02*
X13191491Y-14051436D01*
X13191491Y-14051436D02*
X13181967Y-14032388D01*
X13181967Y-14032388D02*
X13172443Y-13994293D01*
X13172443Y-13994293D02*
X13172443Y-13946674D01*
X13172443Y-13946674D02*
X13181967Y-13908579D01*
X13181967Y-13908579D02*
X13191491Y-13889531D01*
X13191491Y-13889531D02*
X13201015Y-13880008D01*
X13201015Y-13880008D02*
X13220062Y-13870484D01*
X13410539Y-13870484D02*
X13429586Y-13870484D01*
X13429586Y-13870484D02*
X13448634Y-13880008D01*
X13448634Y-13880008D02*
X13458158Y-13889531D01*
X13458158Y-13889531D02*
X13467682Y-13908579D01*
X13467682Y-13908579D02*
X13477205Y-13946674D01*
X13477205Y-13946674D02*
X13477205Y-13994293D01*
X13477205Y-13994293D02*
X13467682Y-14032388D01*
X13467682Y-14032388D02*
X13458158Y-14051436D01*
X13458158Y-14051436D02*
X13448634Y-14060960D01*
X13448634Y-14060960D02*
X13429586Y-14070484D01*
X13429586Y-14070484D02*
X13410539Y-14070484D01*
X13410539Y-14070484D02*
X13391491Y-14060960D01*
X13391491Y-14060960D02*
X13381967Y-14051436D01*
X13381967Y-14051436D02*
X13372443Y-14032388D01*
X13372443Y-14032388D02*
X13362920Y-13994293D01*
X13362920Y-13994293D02*
X13362920Y-13946674D01*
X13362920Y-13946674D02*
X13372443Y-13908579D01*
X13372443Y-13908579D02*
X13381967Y-13889531D01*
X13381967Y-13889531D02*
X13391491Y-13880008D01*
X13391491Y-13880008D02*
X13410539Y-13870484D01*
X13562920Y-14070484D02*
X13562920Y-13937150D01*
X13562920Y-13956198D02*
X13572443Y-13946674D01*
X13572443Y-13946674D02*
X13591491Y-13937150D01*
X13591491Y-13937150D02*
X13620063Y-13937150D01*
X13620063Y-13937150D02*
X13639110Y-13946674D01*
X13639110Y-13946674D02*
X13648634Y-13965722D01*
X13648634Y-13965722D02*
X13648634Y-14070484D01*
X13648634Y-13965722D02*
X13658158Y-13946674D01*
X13658158Y-13946674D02*
X13677205Y-13937150D01*
X13677205Y-13937150D02*
X13705777Y-13937150D01*
X13705777Y-13937150D02*
X13724824Y-13946674D01*
X13724824Y-13946674D02*
X13734348Y-13965722D01*
X13734348Y-13965722D02*
X13734348Y-14070484D01*
X13829586Y-14070484D02*
X13829586Y-13937150D01*
X13829586Y-13956198D02*
X13839110Y-13946674D01*
X13839110Y-13946674D02*
X13858158Y-13937150D01*
X13858158Y-13937150D02*
X13886729Y-13937150D01*
X13886729Y-13937150D02*
X13905777Y-13946674D01*
X13905777Y-13946674D02*
X13915301Y-13965722D01*
X13915301Y-13965722D02*
X13915301Y-14070484D01*
X13915301Y-13965722D02*
X13924824Y-13946674D01*
X13924824Y-13946674D02*
X13943872Y-13937150D01*
X13943872Y-13937150D02*
X13972443Y-13937150D01*
X13972443Y-13937150D02*
X13991491Y-13946674D01*
X13991491Y-13946674D02*
X14001015Y-13965722D01*
X14001015Y-13965722D02*
X14001015Y-14070484D01*
X14391491Y-13860960D02*
X14220063Y-14118103D01*
X14648634Y-13870484D02*
X14667682Y-13870484D01*
X14667682Y-13870484D02*
X14686729Y-13880008D01*
X14686729Y-13880008D02*
X14696253Y-13889531D01*
X14696253Y-13889531D02*
X14705777Y-13908579D01*
X14705777Y-13908579D02*
X14715301Y-13946674D01*
X14715301Y-13946674D02*
X14715301Y-13994293D01*
X14715301Y-13994293D02*
X14705777Y-14032388D01*
X14705777Y-14032388D02*
X14696253Y-14051436D01*
X14696253Y-14051436D02*
X14686729Y-14060960D01*
X14686729Y-14060960D02*
X14667682Y-14070484D01*
X14667682Y-14070484D02*
X14648634Y-14070484D01*
X14648634Y-14070484D02*
X14629586Y-14060960D01*
X14629586Y-14060960D02*
X14620063Y-14051436D01*
X14620063Y-14051436D02*
X14610539Y-14032388D01*
X14610539Y-14032388D02*
X14601015Y-13994293D01*
X14601015Y-13994293D02*
X14601015Y-13946674D01*
X14601015Y-13946674D02*
X14610539Y-13908579D01*
X14610539Y-13908579D02*
X14620063Y-13889531D01*
X14620063Y-13889531D02*
X14629586Y-13880008D01*
X14629586Y-13880008D02*
X14648634Y-13870484D01*
X14801015Y-14051436D02*
X14810539Y-14060960D01*
X14810539Y-14060960D02*
X14801015Y-14070484D01*
X14801015Y-14070484D02*
X14791491Y-14060960D01*
X14791491Y-14060960D02*
X14801015Y-14051436D01*
X14801015Y-14051436D02*
X14801015Y-14070484D01*
X14934348Y-13870484D02*
X14953396Y-13870484D01*
X14953396Y-13870484D02*
X14972444Y-13880008D01*
X14972444Y-13880008D02*
X14981967Y-13889531D01*
X14981967Y-13889531D02*
X14991491Y-13908579D01*
X14991491Y-13908579D02*
X15001015Y-13946674D01*
X15001015Y-13946674D02*
X15001015Y-13994293D01*
X15001015Y-13994293D02*
X14991491Y-14032388D01*
X14991491Y-14032388D02*
X14981967Y-14051436D01*
X14981967Y-14051436D02*
X14972444Y-14060960D01*
X14972444Y-14060960D02*
X14953396Y-14070484D01*
X14953396Y-14070484D02*
X14934348Y-14070484D01*
X14934348Y-14070484D02*
X14915301Y-14060960D01*
X14915301Y-14060960D02*
X14905777Y-14051436D01*
X14905777Y-14051436D02*
X14896253Y-14032388D01*
X14896253Y-14032388D02*
X14886729Y-13994293D01*
X14886729Y-13994293D02*
X14886729Y-13946674D01*
X14886729Y-13946674D02*
X14896253Y-13908579D01*
X14896253Y-13908579D02*
X14905777Y-13889531D01*
X14905777Y-13889531D02*
X14915301Y-13880008D01*
X14915301Y-13880008D02*
X14934348Y-13870484D01*
X15172444Y-13937150D02*
X15172444Y-14070484D01*
X15124825Y-13860960D02*
X15077206Y-14003817D01*
X15077206Y-14003817D02*
X15201015Y-14003817D01*
X15258158Y-13870484D02*
X15381967Y-13870484D01*
X15381967Y-13870484D02*
X15315301Y-13946674D01*
X15315301Y-13946674D02*
X15343872Y-13946674D01*
X15343872Y-13946674D02*
X15362920Y-13956198D01*
X15362920Y-13956198D02*
X15372444Y-13965722D01*
X15372444Y-13965722D02*
X15381967Y-13984769D01*
X15381967Y-13984769D02*
X15381967Y-14032388D01*
X15381967Y-14032388D02*
X15372444Y-14051436D01*
X15372444Y-14051436D02*
X15362920Y-14060960D01*
X15362920Y-14060960D02*
X15343872Y-14070484D01*
X15343872Y-14070484D02*
X15286729Y-14070484D01*
X15286729Y-14070484D02*
X15267682Y-14060960D01*
X15267682Y-14060960D02*
X15258158Y-14051436D01*
X15448634Y-13870484D02*
X15572444Y-13870484D01*
X15572444Y-13870484D02*
X15505777Y-13946674D01*
X15505777Y-13946674D02*
X15534348Y-13946674D01*
X15534348Y-13946674D02*
X15553396Y-13956198D01*
X15553396Y-13956198D02*
X15562920Y-13965722D01*
X15562920Y-13965722D02*
X15572444Y-13984769D01*
X15572444Y-13984769D02*
X15572444Y-14032388D01*
X15572444Y-14032388D02*
X15562920Y-14051436D01*
X15562920Y-14051436D02*
X15553396Y-14060960D01*
X15553396Y-14060960D02*
X15534348Y-14070484D01*
X15534348Y-14070484D02*
X15477206Y-14070484D01*
X15477206Y-14070484D02*
X15458158Y-14060960D01*
X15458158Y-14060960D02*
X15448634Y-14051436D01*
X15648634Y-13870484D02*
X15648634Y-13908579D01*
X15724825Y-13870484D02*
X15724825Y-13908579D01*
X16020063Y-14146674D02*
X16010539Y-14137150D01*
X16010539Y-14137150D02*
X15991491Y-14108579D01*
X15991491Y-14108579D02*
X15981968Y-14089531D01*
X15981968Y-14089531D02*
X15972444Y-14060960D01*
X15972444Y-14060960D02*
X15962920Y-14013341D01*
X15962920Y-14013341D02*
X15962920Y-13975246D01*
X15962920Y-13975246D02*
X15972444Y-13927627D01*
X15972444Y-13927627D02*
X15981968Y-13899055D01*
X15981968Y-13899055D02*
X15991491Y-13880008D01*
X15991491Y-13880008D02*
X16010539Y-13851436D01*
X16010539Y-13851436D02*
X16020063Y-13841912D01*
X16086729Y-13889531D02*
X16096253Y-13880008D01*
X16096253Y-13880008D02*
X16115301Y-13870484D01*
X16115301Y-13870484D02*
X16162920Y-13870484D01*
X16162920Y-13870484D02*
X16181968Y-13880008D01*
X16181968Y-13880008D02*
X16191491Y-13889531D01*
X16191491Y-13889531D02*
X16201015Y-13908579D01*
X16201015Y-13908579D02*
X16201015Y-13927627D01*
X16201015Y-13927627D02*
X16191491Y-13956198D01*
X16191491Y-13956198D02*
X16077206Y-14070484D01*
X16077206Y-14070484D02*
X16201015Y-14070484D01*
X16439110Y-14070484D02*
X16439110Y-13870484D01*
X16524825Y-14070484D02*
X16524825Y-13965722D01*
X16524825Y-13965722D02*
X16515301Y-13946674D01*
X16515301Y-13946674D02*
X16496253Y-13937150D01*
X16496253Y-13937150D02*
X16467682Y-13937150D01*
X16467682Y-13937150D02*
X16448634Y-13946674D01*
X16448634Y-13946674D02*
X16439110Y-13956198D01*
X16648634Y-14070484D02*
X16629587Y-14060960D01*
X16629587Y-14060960D02*
X16620063Y-14051436D01*
X16620063Y-14051436D02*
X16610539Y-14032388D01*
X16610539Y-14032388D02*
X16610539Y-13975246D01*
X16610539Y-13975246D02*
X16620063Y-13956198D01*
X16620063Y-13956198D02*
X16629587Y-13946674D01*
X16629587Y-13946674D02*
X16648634Y-13937150D01*
X16648634Y-13937150D02*
X16677206Y-13937150D01*
X16677206Y-13937150D02*
X16696253Y-13946674D01*
X16696253Y-13946674D02*
X16705777Y-13956198D01*
X16705777Y-13956198D02*
X16715301Y-13975246D01*
X16715301Y-13975246D02*
X16715301Y-14032388D01*
X16715301Y-14032388D02*
X16705777Y-14051436D01*
X16705777Y-14051436D02*
X16696253Y-14060960D01*
X16696253Y-14060960D02*
X16677206Y-14070484D01*
X16677206Y-14070484D02*
X16648634Y-14070484D01*
X16829587Y-14070484D02*
X16810539Y-14060960D01*
X16810539Y-14060960D02*
X16801015Y-14041912D01*
X16801015Y-14041912D02*
X16801015Y-13870484D01*
X16981968Y-14060960D02*
X16962920Y-14070484D01*
X16962920Y-14070484D02*
X16924825Y-14070484D01*
X16924825Y-14070484D02*
X16905777Y-14060960D01*
X16905777Y-14060960D02*
X16896253Y-14041912D01*
X16896253Y-14041912D02*
X16896253Y-13965722D01*
X16896253Y-13965722D02*
X16905777Y-13946674D01*
X16905777Y-13946674D02*
X16924825Y-13937150D01*
X16924825Y-13937150D02*
X16962920Y-13937150D01*
X16962920Y-13937150D02*
X16981968Y-13946674D01*
X16981968Y-13946674D02*
X16991492Y-13965722D01*
X16991492Y-13965722D02*
X16991492Y-13984769D01*
X16991492Y-13984769D02*
X16896253Y-14003817D01*
X17067682Y-14060960D02*
X17086730Y-14070484D01*
X17086730Y-14070484D02*
X17124825Y-14070484D01*
X17124825Y-14070484D02*
X17143873Y-14060960D01*
X17143873Y-14060960D02*
X17153396Y-14041912D01*
X17153396Y-14041912D02*
X17153396Y-14032388D01*
X17153396Y-14032388D02*
X17143873Y-14013341D01*
X17143873Y-14013341D02*
X17124825Y-14003817D01*
X17124825Y-14003817D02*
X17096253Y-14003817D01*
X17096253Y-14003817D02*
X17077206Y-13994293D01*
X17077206Y-13994293D02*
X17067682Y-13975246D01*
X17067682Y-13975246D02*
X17067682Y-13965722D01*
X17067682Y-13965722D02*
X17077206Y-13946674D01*
X17077206Y-13946674D02*
X17096253Y-13937150D01*
X17096253Y-13937150D02*
X17124825Y-13937150D01*
X17124825Y-13937150D02*
X17143873Y-13946674D01*
X17391492Y-13994293D02*
X17543873Y-13994293D01*
X17467682Y-14070484D02*
X17467682Y-13918103D01*
X17877206Y-13937150D02*
X17877206Y-14070484D01*
X17829587Y-13860960D02*
X17781968Y-14003817D01*
X17781968Y-14003817D02*
X17905777Y-14003817D01*
X18124825Y-14060960D02*
X18143873Y-14070484D01*
X18143873Y-14070484D02*
X18181968Y-14070484D01*
X18181968Y-14070484D02*
X18201016Y-14060960D01*
X18201016Y-14060960D02*
X18210539Y-14041912D01*
X18210539Y-14041912D02*
X18210539Y-14032388D01*
X18210539Y-14032388D02*
X18201016Y-14013341D01*
X18201016Y-14013341D02*
X18181968Y-14003817D01*
X18181968Y-14003817D02*
X18153396Y-14003817D01*
X18153396Y-14003817D02*
X18134349Y-13994293D01*
X18134349Y-13994293D02*
X18124825Y-13975246D01*
X18124825Y-13975246D02*
X18124825Y-13965722D01*
X18124825Y-13965722D02*
X18134349Y-13946674D01*
X18134349Y-13946674D02*
X18153396Y-13937150D01*
X18153396Y-13937150D02*
X18181968Y-13937150D01*
X18181968Y-13937150D02*
X18201016Y-13946674D01*
X18324825Y-14070484D02*
X18305777Y-14060960D01*
X18305777Y-14060960D02*
X18296254Y-14041912D01*
X18296254Y-14041912D02*
X18296254Y-13870484D01*
X18429587Y-14070484D02*
X18410539Y-14060960D01*
X18410539Y-14060960D02*
X18401016Y-14051436D01*
X18401016Y-14051436D02*
X18391492Y-14032388D01*
X18391492Y-14032388D02*
X18391492Y-13975246D01*
X18391492Y-13975246D02*
X18401016Y-13956198D01*
X18401016Y-13956198D02*
X18410539Y-13946674D01*
X18410539Y-13946674D02*
X18429587Y-13937150D01*
X18429587Y-13937150D02*
X18458158Y-13937150D01*
X18458158Y-13937150D02*
X18477206Y-13946674D01*
X18477206Y-13946674D02*
X18486730Y-13956198D01*
X18486730Y-13956198D02*
X18496254Y-13975246D01*
X18496254Y-13975246D02*
X18496254Y-14032388D01*
X18496254Y-14032388D02*
X18486730Y-14051436D01*
X18486730Y-14051436D02*
X18477206Y-14060960D01*
X18477206Y-14060960D02*
X18458158Y-14070484D01*
X18458158Y-14070484D02*
X18429587Y-14070484D01*
X18553397Y-13937150D02*
X18629587Y-13937150D01*
X18581968Y-13870484D02*
X18581968Y-14041912D01*
X18581968Y-14041912D02*
X18591492Y-14060960D01*
X18591492Y-14060960D02*
X18610539Y-14070484D01*
X18610539Y-14070484D02*
X18629587Y-14070484D01*
X18686730Y-14060960D02*
X18705777Y-14070484D01*
X18705777Y-14070484D02*
X18743873Y-14070484D01*
X18743873Y-14070484D02*
X18762920Y-14060960D01*
X18762920Y-14060960D02*
X18772444Y-14041912D01*
X18772444Y-14041912D02*
X18772444Y-14032388D01*
X18772444Y-14032388D02*
X18762920Y-14013341D01*
X18762920Y-14013341D02*
X18743873Y-14003817D01*
X18743873Y-14003817D02*
X18715301Y-14003817D01*
X18715301Y-14003817D02*
X18696254Y-13994293D01*
X18696254Y-13994293D02*
X18686730Y-13975246D01*
X18686730Y-13975246D02*
X18686730Y-13965722D01*
X18686730Y-13965722D02*
X18696254Y-13946674D01*
X18696254Y-13946674D02*
X18715301Y-13937150D01*
X18715301Y-13937150D02*
X18743873Y-13937150D01*
X18743873Y-13937150D02*
X18762920Y-13946674D01*
X18839111Y-14146674D02*
X18848635Y-14137150D01*
X18848635Y-14137150D02*
X18867682Y-14108579D01*
X18867682Y-14108579D02*
X18877206Y-14089531D01*
X18877206Y-14089531D02*
X18886730Y-14060960D01*
X18886730Y-14060960D02*
X18896254Y-14013341D01*
X18896254Y-14013341D02*
X18896254Y-13975246D01*
X18896254Y-13975246D02*
X18886730Y-13927627D01*
X18886730Y-13927627D02*
X18877206Y-13899055D01*
X18877206Y-13899055D02*
X18867682Y-13880008D01*
X18867682Y-13880008D02*
X18848635Y-13851436D01*
X18848635Y-13851436D02*
X18839111Y-13841912D01*
M02*
